<?xml version="1.0" encoding="UTF-8" standalone="no"?>
<svg
   width="32"
   height="32"
   viewBox="0 0 32 32"
   version="1.1"
   id="svg1"
   sodipodi:docname="apple-icns.svg"
   inkscape:version="1.3.2 (091e20e, 2023-11-25)"
   xmlns:inkscape="http://www.inkscape.org/namespaces/inkscape"
   xmlns:sodipodi="http://sodipodi.sourceforge.net/DTD/sodipodi-0.dtd"
   xmlns="http://www.w3.org/2000/svg"
   xmlns:svg="http://www.w3.org/2000/svg"
   xmlns:bx="https://boxy-svg.com">
  <sodipodi:namedview
     id="namedview1"
     pagecolor="#ffffff"
     bordercolor="#000000"
     borderopacity="0.25"
     inkscape:showpageshadow="2"
     inkscape:pageopacity="0.0"
     inkscape:pagecheckerboard="0"
     inkscape:deskcolor="#d1d1d1"
     inkscape:zoom="7.375"
     inkscape:cx="15.932203"
     inkscape:cy="16"
     inkscape:window-width="1728"
     inkscape:window-height="969"
     inkscape:window-x="0"
     inkscape:window-y="38"
     inkscape:window-maximized="1"
     inkscape:current-layer="svg1" />
  <defs
     id="defs1">
    <filter
       id="shadow"
       bx:pinned="true"
       x="0"
       y="0"
       width="1"
       height="1">
      <title
         id="title1">Drop Shadow</title>
      <feDropShadow
         result="drop-shadow-0"
         in="ic"
         style="flood-opacity: 0.3;"
         stdDeviation="10"
         dx="0"
         dy="10" />
    </filter>
    <clipPath
       id="clip-0">
      <path
         style="fill:#ffffff;stroke-width:3px"
         d="M 100,724 V 300 C 100,185.001 170,99.995 300.026,100 L 724,99.995 C 854,100 924,185.001 924,300 v 424 c 0,115.001 -70,199.995 -200,200 H 300.026 C 170,924 100,839.001 100,724 Z"
         id="path2">
        <title
           id="title2">Icon Mask</title>
      </path>
    </clipPath>
  </defs>
  <path
     style="fill:#ffffff;stroke:none;stroke-width:0.0934761px"
     d="M 1.5097823,22.970005 V 8.8239504 c 0,-3.8325525 2.8042839,-7.3223281 7.3222657,-7.3223281 h 14.146117 c 4.518013,0 7.322265,3.4897756 7.322265,7.3223281 V 22.970005 c 0,3.83249 -2.804252,7.322265 -7.322265,7.322265 H 8.832048 c -4.5179818,0 -7.3222657,-3.489775 -7.3222657,-7.322265 z"
     id="path20">
    <title
       id="title20">Inner Bounding Box</title>
  </path>
  <circle
     style="fill:none;stroke-width:0.0311587"
     cx="15.905107"
     cy="15.896791"
     r="4.9042878"
     id="circle23">
    <title
       id="title23">Grid Circle 1</title>
  </circle>
  <circle
     style="fill:none;stroke-width:0.0311587"
     cx="15.905107"
     cy="15.896791"
     r="6.9352121"
     id="circle24">
    <title
       id="title24">Grid Circle 2</title>
  </circle>
  <circle
     style="fill:none;stroke-width:0.0311587"
     cx="15.905107"
     cy="15.896791"
     r="11.15485"
     id="circle25">
    <title
       id="title25">Grid Circle 3</title>
  </circle>
  <!-- Blue circle background -->
  <!-- MindStrike icon scaled and centered -->
  <path
     id="path1"
     style="fill:#000000;fill-opacity:1;stroke:#000000;stroke-width:0.024;stroke-opacity:1"
     sodipodi:type="inkscape:offset"
     inkscape:radius="0.13559322"
     inkscape:original="M 16.470703 4.1328125 C 16.352178 4.1291225 16.24199 4.1363971 16.150391 4.1582031 C 14.288313 4.2175681 13.022806 5.9279857 12.257812 7.4394531 C 12.132912 7.6863151 11.99739 7.9258146 11.949219 8.2011719 C 10.191534 7.9165509 8.1153503 7.7313334 6.5859375 8.84375 C 4.2290092 10.558119 5.4164088 13.816678 6.8457031 15.746094 C 6.987215 15.937118 7.1469939 16.1162 7.2832031 16.310547 C 7.0699451 16.590887 5.9476532 17.758293 6.4296875 18.087891 C 6.8374845 18.366634 7.3388179 17.164467 7.6953125 16.830078 C 7.9553367 17.072851 8.1785527 17.354992 8.4335938 17.603516 C 9.2013348 18.351771 10.005413 19.050592 10.871094 19.683594 C 10.988456 20.511518 11.10072 21.323243 11.289062 22.140625 C 11.409811 22.664507 11.587424 23.175594 11.703125 23.699219 C 11.272073 23.718829 10.838324 23.798262 10.40625 23.830078 C 8.7717412 23.950571 6.4511072 23.739909 5.9785156 21.828125 C 5.9411218 21.676839 5.9222053 21.476801 5.8359375 21.345703 C 5.6043185 20.993617 5.2299034 21.297538 5.2675781 21.650391 C 5.5750645 24.530268 9.1003531 24.667889 11.300781 24.400391 L 11.478516 24.378906 C 11.639067 24.351496 11.786497 24.334121 11.949219 24.337891 C 12.732358 25.944928 13.3917 27.570278 15.28125 28.228516 C 17.506019 29.003539 19.344115 27.210135 20.296875 25.382812 C 20.474611 25.04197 20.612156 24.668958 20.802734 24.337891 C 22.51442 24.635545 24.643941 24.744863 26.134766 23.695312 C 28.602757 21.957815 27.290218 18.85727 25.876953 16.869141 C 25.741383 16.678435 25.604849 16.4856 25.449219 16.310547 C 26.60821 14.923667 27.667076 13.073736 27.503906 11.205078 C 27.257107 8.3791235 24.213957 7.7929022 21.869141 8.0253906 C 21.533155 8.0586762 21.119682 8.0857264 20.802734 8.2011719 C 20.126991 6.6635809 19.166498 5.0031966 17.519531 4.3554688 C 17.260114 4.2534414 16.826278 4.143887 16.470703 4.1328125 z M 16.453125 4.7832031 C 18.18286 4.7780831 19.538108 6.9921081 20.148438 8.328125 C 19.086046 8.4965978 17.535595 9.1162058 16.583984 9.5605469 C 16.516134 9.5939599 16.446016 9.6233749 16.376953 9.6542969 C 15.351165 9.3180545 14.420654 8.8472767 13.320312 8.5332031 C 13.085653 8.4662487 12.847184 8.409774 12.617188 8.328125 C 12.622787 8.1269416 12.751615 7.921722 12.839844 7.7460938 C 13.497699 6.4368381 14.525384 4.9875509 16.101562 4.8144531 C 16.220094 4.7934731 16.33781 4.7835441 16.453125 4.7832031 z M 9.8945312 8.6386719 C 10.500866 8.6551349 11.094688 8.727023 11.703125 8.828125 C 11.148258 10.076112 11.044067 11.608658 10.814453 12.949219 C 9.9492197 13.427676 8.6169571 14.751672 7.9824219 15.46875 C 7.8883789 15.574357 7.790953 15.677048 7.6953125 15.78125 C 5.3244183 12.847196 4.7113631 9.1087954 9.2832031 8.640625 C 9.4893057 8.6328785 9.6924199 8.6331843 9.8945312 8.6386719 z M 22.353516 8.640625 C 24.131964 8.636795 26.454143 8.8650473 26.822266 11.050781 C 27.089637 12.63814 26.180409 14.224405 25.294922 15.46875 L 25.035156 15.78125 C 24.309262 14.951792 23.715601 14.374214 22.873047 13.666016 C 22.55578 13.399284 22.175821 13.142937 21.876953 12.871094 L 21.857422 12.855469 C 21.570948 11.455237 21.63271 10.301509 21.025391 8.828125 C 21.44801 8.6921082 21.913008 8.6781271 22.353516 8.640625 z M 20.363281 8.9511719 C 20.625413 9.1920935 21.110361 11.929473 21.134766 12.359375 C 20.579451 11.902576 19.796316 11.461726 19.171875 11.099609 C 18.554462 10.747331 17.779906 10.282046 17.121094 10.046875 C 17.858297 9.6309646 19.541518 9.1194256 20.333984 8.953125 L 20.363281 8.9511719 z M 12.365234 8.953125 C 13.188239 9.079112 14.8721 9.7006021 15.578125 10.046875 C 14.923082 10.346126 14.182697 10.706571 13.578125 11.099609 C 13.016167 11.395794 12.075538 11.935926 11.597656 12.359375 C 11.612096 11.294044 12.036786 9.9696455 12.365234 8.953125 z M 16.308594 10.396484 C 16.460583 10.377004 16.682853 10.553045 16.818359 10.617188 C 18.26721 11.30328 19.984563 12.231818 21.246094 13.25 C 21.247794 13.872588 21.313964 14.500012 21.339844 15.123047 C 21.384314 16.192212 21.346386 17.277752 21.285156 18.345703 C 21.265866 18.681945 21.236834 19.010455 21.246094 19.347656 C 20.970035 19.441766 20.709544 19.66115 20.46875 19.826172 C 19.170419 20.71594 17.817243 21.504155 16.376953 22.146484 C 15.996245 22.223274 11.960743 19.689776 11.478516 19.347656 C 11.367224 17.656926 11.278471 16.19795 11.378906 14.486328 C 11.403056 14.074506 11.414826 13.65786 11.478516 13.25 C 13.083893 12.060024 14.577806 11.299988 16.308594 10.396484 z M 10.740234 13.783203 C 10.774034 13.887404 10.678818 15.241801 10.673828 15.488281 C 10.651598 16.587345 10.772554 17.721613 10.740234 18.771484 C 10.31225 18.377661 9.8346097 18.020914 9.3886719 17.611328 C 8.9518066 17.200273 8.5118867 16.774502 8.1308594 16.310547 C 8.6720541 15.491823 9.9897435 14.389499 10.740234 13.783203 z M 21.921875 13.783203 C 22.368068 13.913151 24.311218 15.9223 24.654297 16.310547 C 24.211553 16.686528 23.832163 17.144409 23.394531 17.53125 C 22.918438 17.968372 22.421286 18.362857 21.921875 18.771484 C 22.028057 17.225013 22.067539 15.326544 21.921875 13.783203 z M 24.986328 16.830078 C 25.195817 16.957215 25.35534 17.254753 25.492188 17.453125 C 27.767812 20.752681 27.325086 23.89821 22.931641 23.882812 C 22.299086 23.883771 21.645807 23.822522 21.025391 23.699219 C 21.077911 23.425779 21.180244 23.157513 21.253906 22.888672 C 21.480262 22.062985 21.63856 21.220585 21.755859 20.373047 C 21.787159 20.146885 21.798387 19.903753 21.857422 19.683594 C 22.014266 19.506945 22.209038 19.377903 22.396484 19.236328 C 23.335638 18.527299 24.205682 17.708984 24.986328 16.830078 z M 5.7480469 18.556641 C 5.6961609 18.555441 5.6448559 18.559506 5.5917969 18.566406 C 5.0302347 18.639616 4.6330463 19.152886 4.703125 19.714844 C 4.773204 20.276803 5.2833745 20.676393 5.8457031 20.609375 C 6.4124468 20.541905 6.8167538 20.025351 6.7460938 19.458984 C 6.6821158 18.945715 6.2496097 18.567993 5.7480469 18.556641 z M 5.6992188 19.210938 C 5.9037498 19.202037 6.0778567 19.35825 6.0917969 19.5625 C 6.1057309 19.76675 5.9538344 19.943916 5.75 19.962891 C 5.6135479 19.975671 5.4816779 19.913861 5.4042969 19.800781 C 5.3269099 19.687699 5.3156461 19.54057 5.3769531 19.417969 C 5.4382601 19.295432 5.5623006 19.216814 5.6992188 19.210938 z M 11.597656 20.212891 C 11.769323 20.311921 11.931676 20.439452 12.097656 20.548828 C 13.199978 21.275489 14.353567 21.90627 15.529297 22.505859 C 15.275023 22.617407 15.015738 22.699071 14.775391 22.841797 C 14.383886 22.921147 14.020312 23.090535 13.640625 23.208984 C 13.21922 23.340401 12.784211 23.429458 12.365234 23.564453 C 12.018898 22.477591 11.738274 21.346518 11.597656 20.212891 z M 21.078125 20.212891 L 21.085938 20.21875 C 21.1895 20.491679 20.501963 23.179208 20.382812 23.564453 C 19.559999 23.383394 18.762887 23.131465 17.972656 22.841797 C 17.700813 22.740407 17.434673 22.624179 17.169922 22.505859 C 17.399343 22.368564 17.649731 22.260734 17.888672 22.140625 C 18.999749 21.581925 20.046973 20.905308 21.078125 20.212891 z M 16.308594 22.886719 C 16.385644 22.881119 17.698322 23.453271 17.904297 23.529297 C 18.625527 23.795455 19.395645 24.039398 20.148438 24.197266 C 19.999771 24.446812 19.88767 24.721632 19.759766 24.982422 C 19.085301 26.357802 18.088491 27.575861 16.492188 27.744141 C 14.427201 27.784521 13.330239 25.89036 12.617188 24.197266 C 12.819328 24.120276 13.033274 24.072905 13.242188 24.017578 C 14.300811 23.737239 15.318075 23.354698 16.308594 22.886719 z "
     d="m 16.474609,3.9980469 c -0.116937,-0.00364 -0.226051,0.00411 -0.328125,0.025391 -0.971513,0.030973 -1.786157,0.4930344 -2.447265,1.1328125 -0.661108,0.6397781 -1.175706,1.4584313 -1.5625,2.2226562 -0.104541,0.2066221 -0.214755,0.4255815 -0.28125,0.6718751 C 10.113259,7.775079 8.0550865,7.6075465 6.5058594,8.734375 c -1.2202712,0.8875938 -1.5292629,2.195515 -1.34375,3.498047 0.1855128,1.302531 0.8485295,2.614136 1.5742187,3.59375 0.1260969,0.170215 0.2567872,0.325871 0.375,0.484375 -0.1235491,0.150785 -0.3971891,0.44957 -0.6289062,0.794922 -0.1277829,0.190448 -0.235314,0.38408 -0.2832032,0.572265 -0.023945,0.09409 -0.033611,0.187998 -0.011719,0.28125 0.021893,0.09325 0.08025,0.181591 0.1660156,0.240235 0.07506,0.05131 0.1661507,0.07325 0.25,0.0625 0.083849,-0.01075 0.1576453,-0.04774 0.2246094,-0.0957 0.1339281,-0.09593 0.2493698,-0.239849 0.3632812,-0.398438 0.1980371,-0.275709 0.3760837,-0.559421 0.5175782,-0.728516 0.2089084,0.210605 0.4049379,0.441961 0.6308594,0.66211 0.7571212,0.737905 1.550951,1.426658 2.4042972,2.054687 0.114656,0.809464 0.226064,1.608605 0.412109,2.416016 0.111378,0.483225 0.262302,0.945455 0.375,1.410156 -0.384919,0.02935 -0.766463,0.08616 -1.134766,0.113281 -0.8067829,0.05947 -1.7818459,0.03506 -2.5976559,-0.232421 C 6.9830181,23.195408 6.3335413,22.701746 6.109375,21.794922 6.0761061,21.660324 6.0653,21.447889 5.9492187,21.271484 5.8771732,21.161967 5.7802623,21.087102 5.6738281,21.0625 c -0.1064341,-0.0246 -0.212968,0.0025 -0.296875,0.05664 -0.167814,0.108332 -0.2684487,0.317258 -0.2441406,0.544921 0.1595265,1.494105 1.1766792,2.301602 2.4023437,2.671875 1.2256646,0.370274 2.6696608,0.334351 3.7812498,0.199219 l 0.177735,-0.02148 a 0.13560678,0.13560678 0 0 0 0.0078,-0.002 c 0.129512,-0.02211 0.245119,-0.03079 0.367188,-0.0332 0.764202,1.576443 1.454814,3.212717 3.367187,3.878906 1.154021,0.402016 2.222812,0.134557 3.105469,-0.462891 0.882656,-0.597447 1.591673,-1.519986 2.076172,-2.449219 0.169495,-0.325038 0.301681,-0.660283 0.464843,-0.960937 1.708059,0.287213 3.815339,0.388652 5.330079,-0.677734 1.274289,-0.897117 1.584439,-2.176625 1.382812,-3.451172 -0.201626,-1.274548 -0.892989,-2.559416 -1.607422,-3.564453 -0.114485,-0.161046 -0.237642,-0.324778 -0.36914,-0.482422 1.143996,-1.391768 2.184474,-3.226273 2.019531,-5.115235 C 27.511141,9.7330732 26.643997,8.8283382 25.527344,8.34375 24.41069,7.8591618 23.044742,7.7727086 21.855469,7.890625 21.559975,7.9198991 21.199693,7.9535947 20.878906,8.046875 20.200654,6.5260565 19.235784,4.8842891 17.568359,4.2285156 17.291792,4.1197429 16.854565,4.0098807 16.474609,3.9980469 Z m -0.02148,0.9199218 c 0.80691,-0.00239 1.548126,0.5200547 2.166016,1.2246094 0.575729,0.6564804 1.022112,1.4513513 1.326171,2.0917969 -1.078783,0.2064424 -2.507934,0.7781975 -3.417968,1.203125 a 0.13560678,0.13560678 0 0 0 -0.0039,0.00195 c -0.04701,0.023152 -0.0984,0.045474 -0.15039,0.068359 C 15.378076,9.176635 14.455279,8.715708 13.357422,8.4023438 13.158954,8.3457155 12.96677,8.2941067 12.779297,8.234375 12.81249,8.1037023 12.886208,7.9553972 12.960938,7.8066406 13.61138,6.5121373 14.61629,5.1140491 16.117187,4.9492187 a 0.13560678,0.13560678 0 0 0 0.0078,-0.00195 c 0.11059,-0.019574 0.22032,-0.028978 0.328125,-0.029297 z m -6.5625,3.8554688 c 0.544763,0.014791 1.082689,0.079467 1.630859,0.1660156 -0.502089,1.2293999 -0.619809,2.6671229 -0.832031,3.9296879 -0.9040548,0.522376 -2.1791223,1.79841 -2.8085936,2.509765 -0.055591,0.06243 -0.1139081,0.125038 -0.171875,0.1875 -1.1120095,-1.418258 -1.800708,-3.004193 -1.6875,-4.267578 0.058292,-0.650531 0.3166685,-1.215041 0.8378906,-1.6542967 0.5212221,-0.4392557 1.3130389,-0.7539924 2.4375,-0.8691407 0.1999325,-0.00731 0.3965607,-0.00731 0.59375,-0.00195 z m 12.462891,0.00195 h 0.01172 c 0.880629,-0.00138 1.88724,0.058013 2.703125,0.375 0.819354,0.318335 1.44466,0.8762464 1.621094,1.9238284 0.25655,1.523117 -0.626512,3.08069 -1.505859,4.316406 l -0.154297,0.1875 C 24.34873,14.810507 23.763924,14.23744 22.960937,13.5625 22.640615,13.293199 22.270604,13.040903 21.984375,12.783203 21.722159,11.470421 21.745312,10.337041 21.201172,8.9296875 21.562938,8.8364129 21.959206,8.8086124 22.353516,8.7753906 Z m -2.056641,0.328125 c 0.01403,0.024002 0.02383,0.036447 0.04687,0.095703 0.03569,0.091801 0.07656,0.2153369 0.117187,0.3613281 0.08125,0.2919823 0.166005,0.6685941 0.244141,1.0507811 0.07814,0.382187 0.148479,0.770804 0.201172,1.089844 0.02921,0.176879 0.03659,0.248429 0.05273,0.369141 -0.538092,-0.398601 -1.179777,-0.775338 -1.71875,-1.087891 a 0.13560678,0.13560678 0 0 0 -0.002,0 c -0.53534,-0.30545 -1.186753,-0.678193 -1.796875,-0.935547 0.771957,-0.3680332 2.135614,-0.7865083 2.855469,-0.9433594 z m -7.837891,0.011719 c 0.744801,0.1383854 2.042665,0.610539 2.785157,0.9433596 -0.585267,0.273679 -1.208473,0.582031 -1.740235,0.927734 -0.494162,0.260842 -1.224284,0.691813 -1.74414,1.091797 0.07045,-0.94443 0.405939,-2.052658 0.699218,-2.9628906 z m 3.878907,1.4199216 c 0.02289,7.58e-4 0.08967,0.01616 0.167968,0.05859 0.08374,0.04538 0.16871,0.106156 0.253907,0.146484 1.427408,0.675938 3.113128,1.589329 4.355468,2.582032 0.0063,0.607413 0.06519,1.213155 0.08984,1.80664 0.04418,1.062158 0.0064,2.143082 -0.05469,3.208985 -0.01751,0.305234 -0.03813,0.612005 -0.03516,0.927734 -0.272335,0.116286 -0.513982,0.30621 -0.722656,0.449219 -1.286137,0.881411 -2.625738,1.66031 -4.048828,2.296875 0.0094,-0.0025 -0.0062,7.19e-4 -0.04297,-0.0098 -0.04192,-0.01195 -0.10116,-0.03449 -0.171875,-0.06445 -0.141429,-0.05993 -0.329092,-0.15256 -0.546875,-0.267578 -0.435565,-0.230037 -0.989652,-0.550228 -1.546875,-0.882813 -1.090692,-0.650992 -2.168443,-1.338416 -2.425781,-1.517578 -0.109015,-1.659861 -0.194187,-3.097021 -0.0957,-4.77539 0.02326,-0.396716 0.04047,-0.789263 0.0957,-1.169922 1.565054,-1.152832 3.030536,-1.902926 4.728516,-2.789063 z m 5.728515,3.484375 c 0.0036,0.0025 0.0042,0.0013 0.0078,0.0039 0.09125,0.06442 0.202981,0.153118 0.326172,0.257812 0.246381,0.209388 0.541089,0.483337 0.832031,0.765625 0.542356,0.526224 1.027171,1.037639 1.230469,1.261719 -0.406831,0.364488 -0.76646,0.774815 -1.158204,1.121093 a 0.13560678,0.13560678 0 0 0 -0.002,0.002 c -0.396739,0.364264 -0.815021,0.697662 -1.234375,1.039062 0.08689,-1.414433 0.112195,-3.040092 -0.002,-4.451172 z m -11.457031,0.05664 c -0.0044,0.14077 -0.01378,0.317086 -0.02344,0.5 -0.02016,0.381514 -0.04413,0.774492 -0.04687,0.910156 -0.02042,1.00935 0.06642,2.029253 0.06055,2.986328 -0.36994,-0.3209 -0.7536978,-0.627192 -1.1171871,-0.960937 h -0.00195 C 9.0712521,17.126661 8.6667756,16.728847 8.3085938,16.304687 8.8114307,15.592171 9.8713549,14.68052 10.609375,14.076172 Z m 14.378906,2.945312 c 0.133425,0.122853 0.269819,0.329864 0.392578,0.507813 1.124045,1.629815 1.558705,3.208116 1.203125,4.341797 -0.177789,0.56684 -0.547618,1.029918 -1.144531,1.359375 -0.596913,0.329456 -1.42564,0.521371 -2.507812,0.517578 -0.57537,8.72e-4 -1.166149,-0.05684 -1.734375,-0.160156 0.05367,-0.215822 0.124448,-0.433945 0.1875,-0.664063 0.228311,-0.832819 0.387962,-1.679389 0.505859,-2.53125 0.0308,-0.22258 0.0449,-0.445326 0.0918,-0.638672 0.138952,-0.149372 0.312903,-0.271795 0.496094,-0.410156 0.909245,-0.686449 1.748147,-1.477264 2.509765,-2.322266 z M 5.7519531,18.421875 c -0.061028,-0.0014 -0.1203444,0.0023 -0.1777344,0.0098 -0.6339937,0.08265 -1.0849777,0.666334 -1.0058593,1.300781 0.079102,0.634313 0.6581811,1.087372 1.2929687,1.011719 0.6398956,-0.07618 1.0993114,-0.663266 1.0195313,-1.302735 C 6.8086138,18.86181 6.3197761,18.434727 5.7519531,18.421875 Z m -0.046875,0.923828 c 0.1323467,-0.0058 0.2429157,0.09415 0.2519531,0.226563 0.00902,0.132179 -0.086284,0.243528 -0.21875,0.255859 -0.087962,0.0082 -0.1728162,-0.03068 -0.2226562,-0.103516 -0.049893,-0.07291 -0.056505,-0.168247 -0.017578,-0.246093 0.038945,-0.07784 0.11837,-0.129008 0.2070312,-0.132813 z m 15.2441409,1.113281 c -0.0096,0.08905 -0.02462,0.192874 -0.04687,0.320313 -0.05101,0.292064 -0.130195,0.66335 -0.216797,1.039062 -0.160516,0.696379 -0.330027,1.337078 -0.400391,1.580078 -0.769829,-0.176856 -1.520541,-0.410474 -2.265625,-0.683593 -0.177312,-0.06613 -0.352038,-0.144658 -0.527344,-0.220703 0.151466,-0.0766 0.299937,-0.153455 0.457032,-0.232422 1.046631,-0.526294 2.032401,-1.156761 3,-1.802735 z m -9.160156,0.04492 c 0.07778,0.05455 0.152443,0.104213 0.234375,0.158203 1.030298,0.679183 2.105094,1.269109 3.197265,1.832032 -0.163448,0.06497 -0.325257,0.125556 -0.490234,0.220703 -0.404788,0.0849 -0.768307,0.25213 -1.13086,0.365234 -0.369135,0.115117 -0.756364,0.203241 -1.140625,0.318359 -0.295317,-0.943468 -0.527022,-1.917842 -0.669921,-2.894531 z m 4.531249,2.525391 c 0.0084,0.0027 0.01392,0.0038 0.02539,0.0078 0.04057,0.01417 0.09834,0.03583 0.166016,0.0625 0.135355,0.05335 0.312706,0.127346 0.49414,0.203125 0.362869,0.151558 0.732698,0.309642 0.851563,0.353516 0.672298,0.2481 1.38787,0.471375 2.095703,0.630859 -0.112497,0.213008 -0.214487,0.430939 -0.314453,0.634766 -0.664574,1.355211 -1.624238,2.524168 -3.15625,2.6875 -0.986507,0.01679 -1.732091,-0.421399 -2.333984,-1.080078 -0.570408,-0.624222 -0.995427,-1.4482 -1.339844,-2.246094 0.151755,-0.04775 0.305778,-0.09161 0.46875,-0.134766 1.050916,-0.278298 2.060335,-0.657887 3.042968,-1.11914 z" />
  <path
     id="path1-7"
     style="fill:#000000;fill-opacity:1;stroke:#000000;stroke-width:0.0212082;stroke-opacity:1"
     d="m 18.060547,13.886719 c -0.04289,7.48e-4 -0.09036,0.0043 -0.140625,0.01172 -0.214761,0.03182 -0.357695,0.180303 -0.445313,0.320312 -0.08762,0.140009 -0.142614,0.284445 -0.185547,0.353516 -0.412761,0.66408 -0.868777,1.573619 -1.316406,2.203125 -0.216518,-0.465243 -0.503128,-0.934339 -0.738281,-1.353516 l -0.455078,-0.806641 c -0.06255,-0.110086 -0.127781,-0.284636 -0.248047,-0.441406 -0.120266,-0.15677 -0.321473,-0.292451 -0.591797,-0.28125 a 0.16229709,0.16229709 0 0 0 -0.03516,0.0039 c -0.331643,0.08473 -0.513303,0.298835 -0.566406,0.521485 -0.0531,0.222649 -0.01574,0.440656 -0.01563,0.613281 v 2.109375 c -5.55e-4,0.162868 -0.01149,0.335462 -0.0039,0.515625 a 0.16229709,0.16229709 0 0 0 0,0.002 c 0.02105,0.497771 0.776847,0.631144 0.941407,0.179688 0.02693,-0.07386 0.03072,-0.138181 0.03516,-0.220704 0.0044,-0.08252 0.0049,-0.175866 0.0039,-0.269531 -0.0021,-0.187328 -0.01152,-0.379313 -0.01172,-0.458984 v -1.248047 c 0.222317,0.401708 0.447563,0.804522 0.664063,1.203125 0.07341,0.135171 0.197793,0.491191 0.386719,0.785156 0.09446,0.146983 0.206636,0.283736 0.359375,0.373047 0.152738,0.08931 0.353165,0.117456 0.550781,0.04492 0.131697,-0.04834 0.1944,-0.141629 0.27539,-0.251953 0.08099,-0.110325 0.161777,-0.243012 0.240235,-0.38086 0.156916,-0.275695 0.302796,-0.573136 0.363281,-0.679687 l 0.574219,-1.007812 v 1.240234 c -4.17e-4,0.107109 -0.04858,0.373983 -0.02344,0.623047 0.01257,0.124532 0.04365,0.254464 0.134766,0.361328 0.09111,0.106864 0.244066,0.167905 0.414062,0.158203 0.141211,-0.0081 0.265745,-0.07202 0.339844,-0.166016 0.0741,-0.09399 0.100965,-0.204292 0.113281,-0.30664 0.02463,-0.204697 -0.0097,-0.415238 -0.0098,-0.490235 l 0.002,-2.226562 c 5.19e-4,-0.122022 0.03162,-0.356217 -0.02148,-0.582031 -0.02655,-0.112908 -0.07853,-0.230087 -0.179688,-0.31836 -0.101153,-0.08827 -0.243296,-0.135744 -0.410156,-0.132812 z" />
</svg>
