<?xml version="1.0" encoding="UTF-8" standalone="no"?>
<svg
   width="1000"
   height="1000"
   viewBox="0 0 1000 1000"
   version="1.1"
   id="svg27"
   sodipodi:docname="cube-background.svg"
   inkscape:version="1.3.2 (091e20e, 2023-11-25)"
   inkscape:export-filename="favicon-square.png"
   inkscape:export-xdpi="300"
   inkscape:export-ydpi="300"
   xmlns:inkscape="http://www.inkscape.org/namespaces/inkscape"
   xmlns:sodipodi="http://sodipodi.sourceforge.net/DTD/sodipodi-0.dtd"
   xmlns="http://www.w3.org/2000/svg"
   xmlns:svg="http://www.w3.org/2000/svg">
  <sodipodi:namedview
     id="namedview27"
     pagecolor="#ffffff"
     bordercolor="#000000"
     borderopacity="0.25"
     inkscape:showpageshadow="2"
     inkscape:pageopacity="0.0"
     inkscape:pagecheckerboard="0"
     inkscape:deskcolor="#d1d1d1"
     inkscape:zoom="0.47599855"
     inkscape:cx="352.94225"
     inkscape:cy="468.48883"
     inkscape:window-width="1728"
     inkscape:window-height="965"
     inkscape:window-x="0"
     inkscape:window-y="38"
     inkscape:window-maximized="0"
     inkscape:current-layer="svg27" />
  <defs
     id="defs2">
    <linearGradient
       id="gradient_0"
       gradientUnits="userSpaceOnUse"
       x1="433.54166"
       y1="349.55374"
       x2="59.169716"
       y2="206.72916"
       gradientTransform="matrix(2.2,0,0,2.2,-64.484745,-59.711863)">
      <stop
         offset="0"
         stop-color="#003582"
         id="stop1"
         style="stop-color:#404040;stop-opacity:1;" />
      <stop
         offset="1"
         stop-color="#044EA8"
         id="stop2" />
    </linearGradient>
  </defs>
  <rect
     style="fill:#333333;fill-opacity:1;stroke-width:22;stroke-linecap:round;stroke-linejoin:bevel;paint-order:markers fill stroke"
     id="rect27"
     width="1100"
     height="1100"
     x="-50.1661"
     y="-50.1661" />
  <path
     id="path2"
     style="fill:#4d4d4d;stroke-width:2.2;fill-opacity:1"
     d="M 496.40625 185.66992 C 474.15989 186.9781 452.8001 203.83125 462.30078 232.30469 C 443.70422 239.15547 414.56354 257.65099 396.80078 267.79297 C 371.36884 239.85083 332.90593 257.13421 330.61133 294.56055 C 303.64159 310.20031 271.72502 329.47922 244.04688 343.08398 L 178.46875 305.93164 C 165.97717 298.99066 153.40864 292.51683 141.0957 285.24805 C 135.82144 281.84905 119.61508 274.17036 117.4668 272.44336 C 98.428476 281.12674 107.12867 341.08999 107.13867 362.42773 L 107.14258 584.99023 C 107.13688 593.07743 106.69433 606.79742 107.15039 614.41602 L 107.13672 680.57422 C 107.1079 739.1535 112.08835 725.46429 163.91211 754.24023 L 485.39062 933.32812 C 502.819 943.02132 514.87127 931.89874 530.08203 923.40234 L 628.93945 869.19141 L 865.97852 734.76758 C 874.8357 729.63938 885.18785 726.14605 889.03125 716.26367 C 886.76965 713.95367 869.40408 701.89928 866.23828 701.02148 L 865.63086 701.94922 L 865.63086 700.16602 C 852.36709 693.03142 815.84058 674.70001 805.00781 665.58984 L 799.74609 663.63477 C 800.50949 661.73177 803.74281 657.08733 805.00781 655.17773 C 800.64524 632.40782 807.77529 612.88152 770.45898 606.43555 L 770.45898 501.5625 C 804.44889 492.49853 807.19237 452.69076 777.66406 430.76562 C 775.73686 430.18264 773.50393 429.71835 771.51953 429.25195 L 771.51953 419.36914 L 771.51953 370.5957 C 771.34793 368.23293 771.51253 363.46117 771.51953 360.91797 L 775.63477 359.02734 C 776.60714 357.70517 843.65155 320.39074 851.56055 315.75977 C 856.60733 313.13517 860.16386 311.16407 865.63086 309.38867 C 865.48566 312.61167 865.49886 314.64106 865.63086 317.83984 C 865.34086 331.99461 865.63167 346.90888 865.63867 361.14062 L 865.60742 494.77344 C 865.57662 515.25758 861.42224 521.61706 873.13281 536.67383 C 897.45597 537.80023 889.03311 495.41231 889.03711 476.56055 L 889.03711 316.78906 C 889.03656 313.16459 889.25944 309.26642 889.44727 305.28711 C 890.01074 293.34918 890.26171 280.67684 883.23438 272.44336 C 874.58838 274.85456 865.09825 282.66745 858.32227 285.24805 L 774.39258 331.67969 C 768.12038 335.14687 760.63846 340.202 755.29688 343.08398 C 741.8197 333.0146 684.65138 302.03393 666.54102 294.56055 C 670.3734 262.28881 631.21416 241.23789 606.57422 261.62305 C 604.25982 263.54143 602.01052 265.73157 599.82812 267.79297 C 580.27456 256.10879 556.39514 242.34987 535.83398 232.30469 C 541.78608 198.59855 518.65261 184.36175 496.40625 185.66992 z M 469.61328 252.67773 C 471.31608 252.86253 480.26307 260.49349 487.43945 262.58789 C 487.45705 277.09247 486.66065 299.80696 487.43945 313.71094 C 478.11367 316.49612 471.39633 321.9457 466.01953 329.89648 C 457.92795 324.6935 448.69099 319.83415 439.97461 315.75977 C 432.65523 311.30257 414.35308 300.54424 407.0293 297.55664 L 407.0293 287.57227 C 424.11006 275.56249 450.62072 264.24971 469.61328 252.67773 z M 527.06445 252.67773 C 539.52083 262.23671 576.1557 280.49487 590.95508 287.57227 C 590.73508 291.51025 590.61628 293.65384 590.95508 297.55664 C 582.5665 300.67844 567.63858 309.12614 559.8418 313.71094 C 552.452 317.88432 537.06133 325.5537 530.92773 329.89648 C 524.02195 321.9149 520.29727 317.42232 510.33789 313.71094 L 510.33789 262.58789 C 516.41207 260.07989 521.64367 256.33853 527.06445 252.67773 z M 130.62109 306.80469 C 161.40607 324.12745 194.15554 341.00718 224.23828 359.02734 C 223.57168 375.73412 224.24528 396.58041 224.23828 413.61719 C 188.54336 423.10137 184.63616 474.14063 224.23828 490.06641 C 230.72166 491.81099 237.33494 492.53444 244.04492 492.52344 L 248.44727 499.68164 C 253.49185 505.16184 259.15521 513.25803 263.72461 519.38281 L 291.24414 557.04492 C 302.04172 571.8993 318.03351 591.67357 327.42969 606.43555 C 324.38709 612.32933 323.49222 614.72966 321.69922 621.08984 C 304.04866 620.17684 277.40906 624.00239 258.8125 623.65039 C 255.5345 618.93801 252.56125 614.83139 248.44727 610.81641 C 238.36029 603.90401 236.35366 602.79738 224.23828 602.39258 C 192.74534 606.85856 179.51852 643.0971 204.33008 665.58984 C 197.4375 668.55764 189.71012 673.02203 183.08594 676.70703 L 150.94727 694.48633 C 144.82665 697.90291 136.77713 702.73465 130.62109 705.65625 L 130.63867 654.41602 C 130.64567 646.23642 131.09387 634.52174 130.62109 626.65234 C 129.86539 603.5722 130.61909 575.66362 130.62109 552.20508 C 131.08643 547.94368 130.67536 533.43692 130.66016 528.20312 L 130.62891 356.45508 C 130.62911 356.45403 130.6287 356.44244 130.62891 356.44141 C 130.6295 356.43843 130.63222 356.40516 130.63281 356.40234 C 131.19089 353.76501 130.98386 347.29708 130.62695 340.13477 L 130.62109 306.80469 z M 248.44727 499.68164 C 248.29822 507.88432 248.43398 516.98762 248.66797 526.51367 C 248.43398 516.98762 248.29822 507.88432 248.44727 499.68164 z M 337.875 315.75977 C 352.49398 337.80371 381.51203 337.5276 398.56641 317.83984 C 419.03737 328.69462 439.89621 339.88131 459.79297 351.71289 C 458.75897 355.49469 458.91297 357.11857 459.79297 360.91797 L 412.91016 386.82227 C 405.35316 391.08585 395.75163 396.12661 388.74023 400.93359 C 380.27025 404.91119 373.67021 408.17439 365.95703 413.61719 C 351.44147 406.17019 273.37159 365.20185 264.50781 357.18945 C 283.92717 343.77829 316.47124 327.94993 337.875 315.75977 z M 660.81641 315.75977 C 682.73935 330.66253 710.56201 341.47929 734.16797 357.18945 C 723.09099 362.37925 706.44621 372.36988 695.29883 378.66406 L 633.33008 413.61719 C 625.7599 409.56479 618.17019 405.16859 610.68359 400.93359 C 589.12585 388.07243 560.69643 371.57695 537.76367 360.91797 C 537.92867 357.73237 537.84287 354.89409 537.76367 351.71289 C 552.52565 342.48611 583.85176 324.26164 599.82812 317.83984 C 617.5183 339.9036 644.33403 335.45633 660.81641 315.75977 z M 748.91992 375.69922 C 749.25652 376.55062 748.40511 424.96197 748.41211 429.25195 C 728.50875 430.46635 718.73752 448.53042 718.72852 466.70898 C 703.60354 471.29158 686.48882 477.14099 672.08984 483.54297 C 668.25086 480.14177 665.27579 477.48171 660.81641 474.91211 C 656.80361 472.77811 653.24811 471.72631 648.86133 470.75391 L 648.86133 430.76562 C 677.04327 414.03466 718.74297 388.23936 748.41211 375.76758 L 748.91992 375.69922 z M 248.44727 375.76758 C 255.35085 377.62658 271.53629 387.33658 278.88867 391.35156 L 349.89648 430.76562 C 349.84808 444.1438 350.03508 457.31633 349.89648 470.75391 C 347.1487 471.51731 342.99726 473.63391 340.28906 474.91211 C 333.68468 476.83051 331.89787 478.55997 327.42969 483.54297 C 310.33571 474.74959 294.21512 464.88599 277.66016 456.43359 C 277.55896 437.24963 268.73563 418.10737 248.44727 413.61719 C 247.96107 410.78579 248.01827 378.02918 248.44727 375.76758 z M 469.61328 380.32422 C 489.18664 397.71298 507.59449 397.56558 527.06445 380.32422 C 554.48081 394.26558 583.05385 413.46679 610.68359 425.66797 C 586.63765 437.80535 549.70021 457.50002 527.06445 472.83398 C 519.03887 476.84678 506.98565 484.1054 499.26367 488.875 C 465.18355 473.25504 421.24737 445.08513 388.74023 425.66797 C 414.63639 412.44379 444.63674 395.08178 469.61328 380.32422 z M 772.86914 418.68164 C 773.52109 419.08292 774.11758 419.78032 774.66016 420.64648 C 774.11739 419.77954 773.52144 419.08314 772.86914 418.68164 z M 372.4082 442.42773 C 379.8684 444.75753 389.73145 452.60039 396.99805 456.49219 C 427.30299 472.72155 456.77371 492.40172 487.43945 507.86328 C 486.42745 517.03506 486.73105 545.62266 487.43945 555.18164 C 483.87327 556.80084 481.99049 557.8605 478.62891 559.9043 C 474.78331 562.40348 472.51728 565.0172 469.61328 568.4668 C 447.11832 554.06782 418.70789 536.74258 394.80273 524.41602 C 401.26853 501.83966 391.23356 486.51709 372.4082 474.91211 L 372.4082 442.42773 z M 625.81836 442.42773 C 626.11096 442.74673 625.82536 469.8882 625.81836 472.83398 C 605.7698 482.36876 596.18827 503.26746 604.03125 524.41602 C 582.52189 539.43098 550.39761 556.59342 527.06445 568.4668 C 525.73125 566.8564 523.99073 564.18406 522.80273 562.42188 C 519.54895 560.62448 513.91069 558.424 510.33789 556.9082 L 510.33789 507.86328 C 515.89509 504.0067 523.2171 500.40903 529.27148 496.99023 L 565.89258 476.17578 C 584.61234 465.607 606.9292 451.44553 625.81836 442.42773 z M 269.14648 477.54102 C 285.07446 486.1298 300.59164 494.80276 316.6582 503.24414 C 316.1588 528.5309 324.68234 542.59937 349.89648 550.25977 C 349.92288 561.89113 354.55802 585.17248 344.39844 588.61328 L 343.61914 589.01758 C 343.67194 589.04618 273.57179 494.63755 264.50781 483.54297 C 265.99281 481.49257 267.5757 479.5298 269.14648 477.54102 z M 727.72266 488.83984 L 727.95117 489.61523 C 726.78957 492.30583 720.78913 499.43198 718.56055 502.30078 L 668.88672 566.84375 C 662.50454 575.17513 656.25771 584.00771 648.86133 591.37109 C 648.42133 591.27869 648.73094 591.37951 648.15234 590.69531 C 649.12914 579.29713 648.88553 563.85186 648.86133 552.20508 C 673.89067 545.36968 686.54322 529.80908 683.39062 503.24414 C 697.4816 498.57356 712.16094 493.2904 726.0957 488.875 C 726.5819 488.7738 727.19466 488.83084 727.72266 488.83984 z M 748.41211 503.24414 C 749.04591 504.47394 748.42386 524.33953 748.42188 527.73633 L 748.41211 610.81641 C 741.94633 616.86419 737.70557 620.36294 734.16797 628.51172 C 726.56259 628.26752 674.31899 629.18897 672.24219 628.20117 L 672.08984 626.65234 C 670.75446 617.89196 670.0104 615.87332 666.54102 607.58594 C 685.50938 583.61038 727.33835 520.8727 748.41211 503.24414 z M 381.13281 543.46484 C 385.40521 542.67944 452.75079 584.0791 459.79297 588.61328 C 458.02197 611.46904 466.88025 623.70499 487.44141 633.41797 C 487.89681 638.60555 487.48952 649.99047 487.47852 655.69727 L 487.46875 739.43945 C 487.51715 746.05045 488.09505 754.22674 487.43945 760.57812 C 485.24167 761.07092 484.22699 761.53579 482.11719 762.40039 L 478.62891 757.7832 C 452.16075 721.18408 422.05674 685.23818 396.80078 648.33984 C 398.29898 644.21046 401.05796 639.73258 402.16016 635.4668 C 407.95054 613.06644 394.30036 592.30347 372.4082 586.58789 C 372.4302 575.68031 371.7746 558.11185 372.4082 547.85547 C 374.7908 545.90627 378.23103 544.70344 381.13281 543.46484 z M 614.99609 543.46484 C 616.54709 543.79484 623.80536 548.94637 625.81836 550.25977 C 626.61256 556.52975 625.96576 580.8539 625.81836 588.61328 C 593.92062 593.71068 580.59575 627.06604 601.41211 652.3418 C 598.60271 656.58338 593.70084 662.32884 590.43164 666.48242 L 522.80273 753.76367 C 520.69515 756.52907 519.02055 759.43039 517.21875 762.40039 L 510.33789 760.57812 C 511.06429 750.49116 510.3477 729.97848 510.3457 718.97852 L 510.33789 633.41797 C 531.30825 624.39359 538.84827 611.14344 537.76367 588.61328 C 561.44883 577.7651 592.74315 557.24342 614.99609 543.46484 z M 875.52148 624.66992 C 875.33105 628.83353 875.09751 632.60067 875.31641 633.41797 C 875.09751 632.60067 875.33063 628.83342 875.52148 624.66992 z M 227.1543 625.93359 C 231.86586 626.25813 236.1591 629.31092 237.84375 634.0332 C 240.08995 640.3318 236.8647 647.26442 230.60352 649.60742 C 226.46752 651.15402 221.81865 650.35215 218.43945 647.50977 C 215.06027 644.66517 213.47457 640.21949 214.29297 635.87891 C 215.10917 631.54051 218.20257 627.97759 222.38477 626.55859 C 223.9671 626.02124 225.58377 625.82542 227.1543 625.93359 z M 327.42969 643.75586 C 335.09007 665.14202 359.66691 668.89055 379.01367 663.63477 C 390.52185 676.90953 401.0963 692.90718 411.83008 706.91016 L 443.10547 747.98438 C 450.69105 758.13734 455.879 764.37639 462.30078 775.45117 C 457.1616 773.28197 449.66045 768.99118 444.69727 766.26758 L 308.02344 691.54688 C 289.74588 681.4775 271.86243 670.58023 253.07227 661.61523 C 257.41505 655.54985 258.34252 653.63815 260.51172 646.38477 C 282.72288 646.31877 305.75753 643.61946 327.42969 643.75586 z M 698.9668 650.69727 C 709.8334 650.77537 720.70424 651.01298 731.41602 651.17578 L 735.63672 661.61523 C 733.11992 663.57543 724.39624 667.98841 721.05664 669.84961 L 578.70898 749.24414 C 574.1022 751.78954 541.00059 771.29646 538.94141 771.63086 C 560.76095 736.57832 594.51298 699.21898 619.66992 665.58984 C 641.55108 671.18444 651.34124 666.59776 666.54102 651.17578 C 677.23848 650.70058 688.10019 650.61917 698.9668 650.69727 z " />
  <path
     fill="#0d68c7"
     d="m 875.31565,633.41793 c 17.6902,2.1098 13.805,19.6196 13.7632,33.3388 l -0.143,37.686 c -0.007,1.7072 -0.132,10.4742 0.0946,11.8206 -2.2616,-2.31 -19.6262,-14.3638 -22.792,-15.2416 l -0.6072,0.9284 v -1.7842 c 1.518,-21.7536 -7.8628,-55.627 9.6844,-66.748 z"
     id="path5"
     style="stroke-width:2.2;fill:#505050;fill-opacity:1" />
  <path
     fill="#0d68c7"
     d="m 875.31565,559.90493 c 19.943,0.5456 13.3826,22.2376 13.7632,37.4814 0.1056,8.2324 -7.8276,14.7026 -15.9456,13.431 -1.0758,-1.5202 -5.918,-4.554 -6.3976,-6.5406 -3.1482,-13.0878 -5.5968,-37.2548 8.58,-44.3718 z"
     id="path6"
     style="stroke-width:2.2;fill:#505050;fill-opacity:1" />
  <path
     fill="#daeaf9"
     d="m 771.51965,360.91713 4.1162,-1.8898 c 0.0836,2.4772 0.9526,1.9316 -0.2442,5.005 l 0.0396,-0.121 -0.3366,0.429 c -0.8668,-1.386 -0.979,-1.8106 -1.5994,-3.3 -1.0516,0.9966 -1.1484,12.5972 -0.6314,13.1626 l -0.007,0.2662 0.308,-2.2286 c 1.7006,1.9316 -0.1452,6.49 1.2276,9.3808 l 0.2794,-0.0308 c -0.0594,-2.2484 -0.4928,-10.23 0.1276,-11.8184 l 0.6974,0.6622 c -0.2046,6.479 1.2826,29.1082 -1.386,32.8262 l -0.8514,0.2024 c -2.7874,-3.9314 0.473,-26.4418 -1.7402,-32.868 -0.1716,-2.3628 -0.007,-7.1346 0,-9.6778 z"
     id="path7"
     style="stroke-width:2.2" />
  <path
     fill="#daeaf9"
     d="m 805.00805,655.17813 c -0.3146,2.4178 -0.8228,3.0096 -2.123,5.0974 3.4804,-2.288 6.2238,4.367 2.123,5.3152 l -5.2624,-1.9558 c 0.7634,-1.903 3.9974,-6.5472 5.2624,-8.4568 z"
     id="path8"
     style="stroke-width:2.2" />
  <path
     fill="#0e93ff"
     d="m 735.63765,661.61533 c 15.0304,25.5552 46.288,24.5102 64.108,2.0196 l 5.2624,1.9558 c 10.8328,9.1102 47.3594,27.4406 60.6232,34.5752 v 1.7842 c 1.3134,10.373 -16.1458,14.795 -25.9512,20.4996 l -212.6278,119.9946 c -33.352,18.6956 -69.102,37.554 -101.4398,56.9338 -4.7344,2.838 -10.3004,6.2942 -15.2746,8.591 v -68.9216 c 24.5256,-11.0022 37.5166,-33.8668 23.2012,-59.5672 1.7072,-2.6576 3.3682,-5.4538 5.4032,-7.8496 2.0592,-0.3344 35.1604,-19.8418 39.7672,-22.3872 l 142.3466,-79.3936 c 3.3396,-1.8612 12.0648,-6.2744 14.5816,-8.2346 z"
     id="path9"
     style="stroke-width:2.2;fill:#5b5b5b;fill-opacity:1" />
  <path
     fill="#0e93ff"
     d="m 130.62181,626.65293 c 0.47278,7.8694 0.0246,19.5844 0.0176,27.764 l -0.0176,51.2402 c 6.15604,-2.9216 14.20518,-7.755 20.3258,-11.1716 l 32.13804,-17.7782 c 6.6242,-3.685 14.3528,-8.1488 21.2454,-11.1166 18.0928,10.9274 32.7646,9.6052 48.741,-3.9754 18.7902,8.965 36.674,19.8616 54.9516,29.931 l 136.6728,74.7208 c 4.9632,2.7236 12.4652,7.0158 17.6044,9.185 4.4418,3.3902 -20.031,49.7068 25.1394,63.5954 -0.3696,22.8668 0.5038,46.156 0,68.9216 -29.8012,-21.076 -75.2334,-42.5942 -107.668,-60.6342 l -249.15044,-137.577 c -1.23354,-20.5238 -1.59566,-62.6494 0,-83.105 z"
     id="path10"
     style="stroke-width:2.2;fill:#5b5b5b;fill-opacity:1" />
  <path
     fill="#0d68c7"
     d="m 224.23885,490.06593 c 6.4834,1.7446 13.0966,2.4684 19.8066,2.4574 l 4.4022,7.1588 c -0.5962,32.8108 3.3528,80.0206 0,111.1352 -10.087,-6.9124 -12.0934,-8.019 -24.2088,-8.4238 0.5544,-10.6678 0.0242,-25.8192 0.0198,-36.9666 z"
     id="path12"
     style="stroke-width:2.2;fill:#505050;fill-opacity:1" />
  <path
     fill="#1dcbf6"
     d="m 638.19305,492.11853 c 10.384,-1.9074 20.3544,4.95 22.2882,15.3296 1.9338,10.3796 -4.8972,20.3676 -15.2724,22.3278 -10.4126,1.9668 -20.4424,-4.895 -22.3828,-15.312 -1.9426,-10.417 4.9456,-20.4292 15.367,-22.3454 z"
     id="path14"
     style="stroke-width:2.2;fill:#999999;fill-opacity:1" />
  <path
     fill="#1dcbf6"
     d="m 233.71205,433.66893 c 9.9616,-1.892 19.5646,4.6772 21.4104,14.6476 1.848,9.9726 -4.763,19.5448 -14.7422,21.3466 -9.9176,1.7908 -19.4172,-4.7696 -21.252,-14.6784 -1.8348,-9.9088 4.6838,-19.437 14.5838,-21.3158 z"
     id="path15"
     style="stroke-width:2.2;fill:#999999;fill-opacity:1" />
  <path
     fill="#1dcbf6"
     d="m 495.00605,334.56553 c 9.8802,-1.7006 19.2676,4.928 20.9726,14.806 1.705,9.878 -4.9148,19.2698 -14.7928,20.9814 -9.8868,1.7138 -19.2896,-4.9148 -20.9968,-14.8016 -1.7072,-9.889 4.9302,-19.2874 14.817,-20.9858 z"
     id="path16"
     style="stroke-width:2.2;fill:#999999;fill-opacity:1" />
  <path
     fill="#1dcbf6"
     d="m 359.26825,607.71973 c 9.757,-2.134 19.3952,4.0524 21.5182,13.8094 2.123,9.7592 -4.0722,19.3908 -13.8336,21.5028 -9.746,2.1098 -19.3578,-4.0744 -21.4786,-13.8182 -2.1208,-9.7438 4.0524,-19.3622 13.794,-21.494 z"
     id="path17"
     style="stroke-width:2.2;fill:#999999;fill-opacity:1" />
  <path
     fill="#1dcbf6"
     d="m 628.27325,609.98793 c 6.2964,-1.496 12.9096,0.5148 17.3052,5.2624 4.3956,4.7476 5.8916,11.4972 3.916,17.6572 -1.9778,6.1622 -7.1214,10.78 -13.4596,12.0846 -9.592,1.9734 -18.9948,-4.1184 -21.1156,-13.6796 -2.1208,-9.5634 3.8258,-19.0564 13.354,-21.3246 z"
     id="path18"
     style="stroke-width:2.2;fill:#999999;fill-opacity:1" />
  <path
     fill="#1dcbf6"
     d="m 497.43485,781.71333 c 9.7482,-1.0208 18.4844,6.0456 19.5184,15.7916 1.034,9.7482 -6.0214,18.491 -15.7674,19.5382 -9.7614,1.0494 -18.524,-6.0214 -19.5602,-15.7872 -1.0384,-9.7636 6.0434,-18.5174 15.8092,-19.5426 z"
     id="path19"
     style="stroke-width:2.2;fill:#999999;fill-opacity:1" />
  <path
     fill="#1dcbf6"
     d="m 352.98945,493.50893 c 9.5392,-2.0922 18.9618,3.9688 21.0144,13.5168 2.0548,9.5458 -4.0414,18.9442 -13.596,20.9616 -9.504,2.0064 -18.8408,-4.048 -20.8824,-13.5454 -2.0438,-9.4952 3.9776,-18.854 13.464,-20.933 z"
     id="path20"
     style="stroke-width:2.2;fill:#999999;fill-opacity:1" />
  <path
     fill="#1dcbf6"
     d="m 497.43925,577.19473 c 9.5986,-0.495 17.798,6.8442 18.3678,16.4384 0.5698,9.5942 -6.7056,17.853 -16.2954,18.4954 -9.6954,0.6512 -18.0642,-6.721 -18.6406,-16.4208 -0.5742,-9.702 6.864,-18.0114 16.5682,-18.513 z"
     id="path21"
     style="stroke-width:2.2;fill:#999999;fill-opacity:1" />
  <path
     fill="#1dcbf6"
     d="m 494.17225,207.53313 c 6.0588,-1.5422 12.4762,0.2992 16.7948,4.818 4.3164,4.5188 5.863,11.0154 4.0458,16.9972 -1.8172,5.9796 -6.7166,10.516 -12.8194,11.869 -9.2334,2.046 -18.4008,-3.6938 -20.592,-12.8942 -2.1912,-9.2004 3.4056,-18.4558 12.5708,-20.79 z"
     id="path22"
     style="stroke-width:2.2;fill:#999999;fill-opacity:1" />
  <path
     fill="#1dcbf6"
     d="m 754.71385,448.88193 c 9.0948,-1.6698 17.8464,4.2724 19.646,13.343 1.7996,9.0706 -4.0172,17.9058 -13.0614,19.833 -5.9664,1.2738 -12.155,-0.7656 -16.1986,-5.335 -4.0414,-4.5694 -5.3086,-10.9604 -3.3176,-16.7266 1.991,-5.7662 6.9322,-10.0122 12.9316,-11.1144 z"
     id="path23"
     style="stroke-width:2.2;fill:#999999;fill-opacity:1" />
  <path
     fill="#1dcbf6"
     d="m 365.91005,276.76273 c 9.0904,-1.5092 17.6814,4.642 19.1862,13.7324 1.5026,9.0904 -4.6486,17.6792 -13.7412,19.1818 -9.086,1.5004 -17.6704,-4.6486 -19.1752,-13.7346 -1.5026,-9.0882 4.642,-17.6748 13.7302,-19.1796 z"
     id="path24"
     style="stroke-width:2.2;fill:#999999;fill-opacity:1" />
  <path
     fill="#1dcbf6"
     d="m 625.21745,276.83093 c 5.8366,-1.4344 11.9922,0.3894 16.1062,4.7718 4.1118,4.3824 5.5396,10.6436 3.7378,16.3768 -1.804,5.7332 -6.5604,10.0474 -12.441,11.286 -8.8858,1.8722 -17.6308,-3.7246 -19.6504,-12.5774 -2.0196,-8.8506 3.4298,-17.688 12.2474,-19.8572 z"
     id="path25"
     style="stroke-width:2.2;fill:#999999;fill-opacity:1" />
  <path
     fill="#1dcbf6"
     d="m 764.78325,628.74733 c 8.1444,-1.8106 16.2074,3.3396 17.9894,11.4884 1.782,8.1488 -3.3946,16.1964 -11.55,17.952 -8.1158,1.7468 -16.1172,-3.4012 -17.8926,-11.5104 -1.7732,-8.1114 3.3484,-16.1304 11.4532,-17.93 z"
     id="path26"
     style="stroke-width:2.2;fill:#999999;fill-opacity:1" />
  <path
     fill="#0e93ff"
     d="m 117.46669,272.44413 c 5.12688,-4.8136 16.55808,-10.7338 23.03532,-14.3264 L 418.71005,105.16119 c 19.3908,-10.582217 60.9356,-37.434097 80.553,-41.513997 17.721,5.92724 40.821,21.37652 57.7324,30.28762 52.5844,27.709877 104.6232,56.564637 156.926,84.815717 l 122.1132,66.935 c 11.4092,6.1754 38.8366,19.4194 47.1988,26.7586 -8.646,2.4112 -18.1346,10.2234 -24.9106,12.804 -17.8464,-11.693 -38.1106,-21.3796 -56.9624,-31.5194 L 517.71005,99.466273 c -6.3492,-3.39922 -13.5828,-7.61244 -19.866,-10.72676 -12.7138,6.45392 -26.3076,14.517137 -39.0742,21.350117 l -266.3078,146.1383 c -15.4726,8.4964 -37.40198,18.9772 -51.3667,29.0202 -5.27428,-3.399 -21.48036,-11.077 -23.62866,-12.804 z"
     id="path27"
     style="stroke-width:2.2;fill:#6b6b6b;fill-opacity:1" />
</svg>
