<?xml version="1.0" encoding="UTF-8" standalone="no"?>
<svg
   class=""
   width="1024"
   height="1024"
   viewBox="0 -200 10424 10424"
   version="1.1"
   id="svg6"
   sodipodi:docname="favicon-square-gray-colors.svg"
   inkscape:version="1.3.2 (091e20e, 2023-11-25)"
   xmlns:inkscape="http://www.inkscape.org/namespaces/inkscape"
   xmlns:sodipodi="http://sodipodi.sourceforge.net/DTD/sodipodi-0.dtd"
   xmlns="http://www.w3.org/2000/svg"
   xmlns:svg="http://www.w3.org/2000/svg">
  <sodipodi:namedview
     id="namedview6"
     pagecolor="#ffffff"
     bordercolor="#000000"
     borderopacity="0.25"
     inkscape:showpageshadow="2"
     inkscape:pageopacity="0.0"
     inkscape:pagecheckerboard="0"
     inkscape:deskcolor="#d1d1d1"
     inkscape:zoom="0.37397348"
     inkscape:cx="470.62161"
     inkscape:cy="640.41975"
     inkscape:window-width="1728"
     inkscape:window-height="870"
     inkscape:window-x="0"
     inkscape:window-y="38"
     inkscape:window-maximized="0"
     inkscape:current-layer="svg6" />
  <defs
     id="defs2">
    <linearGradient
       id="gradient_0"
       gradientUnits="userSpaceOnUse"
       x1="322.57593"
       y1="373.91083"
       x2="336.18707"
       y2="143.61948"
       gradientTransform="matrix(2.54492,0,0,2.54492,-90.109,-559.52594)">
      <stop
         offset="0"
         stop-color="#4fb3ff"
         id="stop1" />
      <stop
         offset="1"
         stop-color="#1e40af"
         id="stop2" />
    </linearGradient>
  </defs>
  <rect
     style="fill:#333333;stroke:none;stroke-width:66.677;stroke-linecap:round;stroke-linejoin:bevel;stroke-dasharray:none;stroke-opacity:1;paint-order:markers fill stroke"
     id="rect3"
     width="10424"
     height="10424"
     x="2.1316282e-14"
     y="-200" />
  <path
     id="path1-5-8-4"
     style="color:#000000;fill:#2f7af2;fill-opacity:1;stroke-linejoin:bevel;-inkscape-stroke:none;paint-order:stroke markers fill"
     sodipodi:type="inkscape:offset"
     inkscape:radius="229.15685"
     inkscape:original="M 7235.8223 1849.0156 L 6968.9766 1986.0176 C 6920.7381 2053.2795 6886.4242 2101.0868 6863.1035 2133.7051 C 6841.8122 2163.4849 6841.0658 2161.8076 6820.2539 2194.5098 L 6516.5156 2629.1172 L 6515.3086 2630.8555 C 6402.97 2793.822 6244.4666 2999.2435 6119.8457 3206.4707 C 6117.0591 3209.687 6114.2373 3212.9233 6111.6074 3216.0488 C 6095.9121 3234.7021 6081.4427 3253.301 6064.8672 3275.1309 C 6031.7161 3318.7905 5991.5866 3374.091 5945.0664 3439.4062 C 5852.026 3570.0368 5734.5616 3739.4414 5616.2402 3911.7148 C 5479.1308 4111.3433 5355.0255 4294.0968 5254.9531 4441.9805 L 4749.7188 2119.209 L 4439.877 1860.8125 C 4148.4342 1851.016 3864.6827 1860.7091 3595.1523 1860.627 L 3192.5059 1860.2246 C 3125.4843 1859.8913 3041.9995 1855.38 2942.5391 1861.1211 L 2642.2715 2111.8203 L 1873.1992 5294.5098 C 1828.1112 5456.4253 1794.4525 5607.2525 1752.75 5730.3691 L 1747.0742 5748.9102 C 1722.535 5838.4337 1703.1647 5916.4654 1681.9043 5978.1387 L 1673.4238 6006.9551 C 1646.9059 6115.0984 1611.1405 6231.6169 1577.0117 6359.5527 L 1576.4102 6361.8398 L 1422.9004 6954.3926 L 1422.1816 6957.2227 C 1362.6336 7195.8043 1268.1036 7461.7909 1206.4082 7749.5996 L 1528.3926 8146.8008 C 1988.931 8145.5331 2455.0752 8152.6186 2925.4785 8146.7773 L 3238.7676 7902.7441 C 3355.1032 7464.8588 3439.8293 7026.669 3533.0723 6604.5684 L 3533.0723 6604.5586 C 3571.6452 6429.9648 3610.1759 6250.6837 3649.0957 6070.1426 L 3731.6289 6457.9043 C 3756.1806 6575.9354 3788.9943 6804.1432 3848.0625 7030.5664 C 3907.1664 7257.1267 3960.6413 7506.5142 4220.502 7685.2695 C 4360.123 7781.3102 4517.1019 7839.9555 4675.0293 7839.8613 C 4832.9566 7839.7673 4975.1626 7779.6868 5080 7705.6523 C 5289.4393 7557.7495 5396.8082 7365.6499 5483.6875 7234.1777 L 5833.0117 6714.4766 L 5833.1934 6714.2051 C 5956.4148 6530.4898 6078.9518 6346.7389 6201.2852 6163.1328 C 6072.52 6692.7663 5943.8294 7223.6916 5822.793 7758.0039 L 6143.1543 8158.9277 L 6903.9551 8158.6973 L 6903.9824 8158.6973 C 7105.9916 8158.6193 7290.3767 8154.0721 7447.4453 8174.9785 L 7811.6543 7919.2227 C 7844.6329 7767.5054 7887.3913 7609.2872 7927.375 7440.8906 L 7926.625 7443.9863 L 8941.0527 3348.6758 L 8940.6074 3350.4531 C 9012.5826 3066.6763 9072.1397 2789.578 9145.502 2529.2598 L 9145.207 2530.3008 C 9170.6345 2441.2005 9197.2034 2344.2859 9217.5859 2240.9062 L 8895.418 1849.0156 L 7235.8223 1849.0156 z M 7404.4531 2505.7676 L 8471.6426 2505.7676 C 8410.5817 2739.6625 8359.727 2969.358 8304.0195 3188.9961 L 8303.5742 3190.7734 L 7289.1445 7286.084 L 7288.3945 7289.1777 C 7271.9153 7358.5822 7253.9363 7429.694 7235.7871 7502.3164 C 7118.4114 7499.5208 7007.0768 7501.9114 6903.7344 7501.9512 L 6555.6797 7502.0566 C 6784.2401 6523.6756 7034.8356 5544.4996 7259.4375 4551.8477 L 6668.7676 4293.0488 C 6198.1976 4975.9034 5745.6552 5665.7048 5287.7715 6348.3809 L 4937.543 6869.4277 L 4936.1562 6871.5098 C 4844.7127 7009.8185 4749.2038 7135.2618 4701.1602 7169.1895 C 4677.1383 7186.1533 4676.7789 7183.114 4674.6445 7183.1152 C 4672.5104 7183.1152 4651.9345 7184.9097 4592.7266 7144.1855 C 4624.1332 7165.7707 4529.6902 7041.6661 4483.5469 6864.7871 C 4437.3961 6687.8794 4407.6495 6482.8215 4374.5527 6323.8262 L 4374.25 6322.3848 L 4037.1582 4738.6445 C 4022.2342 4666.8988 4008.4981 4580.5647 3985.0234 4483.2891 L 3349.0781 4473.6562 C 3174.0101 5113.4664 3031.9478 5828.4565 2891.7832 6462.8887 L 2891.7832 6462.8984 C 2814.7952 6811.4139 2745.7375 7157.2195 2665.1465 7491.9531 C 2429.8426 7492.8466 2193.0165 7491.5595 1955.0391 7490.6289 C 1990.2402 7370.7419 2027.0593 7245.7866 2059.3867 7116.2656 L 2058.666 7119.0977 L 2211.7168 6528.3145 C 2240.4883 6420.5166 2276.103 6304.3902 2307.8027 6177.166 C 2338.9135 6084.3596 2359.3285 6000.2975 2378.8359 5928.6035 C 2434.8692 5760.3829 2469.4883 5600.556 2507.4785 5464.8438 L 2510.4473 5453.4531 L 3220.0176 2517.0059 L 3594.4941 2517.3809 L 3594.7188 2517.3809 C 3788.7151 2517.4439 3978.9111 2513.3543 4163.3672 2513.4629 L 4658.3906 4789.291 L 4659.2578 4793.168 C 4692.6862 4938.3697 4725.4282 5070.6874 4744.1191 5193.3809 L 5138.416 5464.8281 C 5287.5961 5432.4421 5428.195 5340.0516 5505.1914 5247.8848 C 5582.1877 5155.718 5611.3105 5088.3347 5643.1016 5040.8184 L 5643.1191 5040.793 C 5682.8371 4981.4168 5923.1809 4624.8546 6157.6055 4283.5371 C 6274.8178 4112.8783 6391.1286 3945.1976 6480.0059 3820.4121 C 6524.4446 3758.0193 6562.3098 3706.029 6587.9258 3672.293 C 6600.7338 3655.425 6610.8429 3642.799 6614.1348 3638.8867 C 6615.7808 3636.9305 6616.0087 3636.9979 6610.6777 3642.4941 C 6605.3467 3647.9902 6607.465 3656.4694 6547.002 3691.4453 L 6666.502 3572.1777 C 6758.7081 3413.4909 6921.7618 3198.3919 7056.0391 3003.5996 L 7054.832 3005.3379 L 7362.0762 2565.7148 L 7371.127 2552.0508 C 7349.0114 2587.3213 7374.7365 2547.3106 7397.3555 2515.6738 C 7398.8804 2513.5409 7402.8226 2508.0513 7404.4551 2505.7695 L 7404.4531 2505.7676 z "
     d="m 7235.8223,1619.8594 a 229.17976,229.17976 0 0 0 -104.6641,25.2969 l -266.8457,137.0019 a 229.17976,229.17976 0 0 0 -81.5547,70.3086 c -48.2142,67.228 -82.5066,115.0056 -106.0683,147.9609 -16.345,22.8614 -25.0958,32.9353 -45.8438,65.0664 l -302.1621,432.3516 a 229.17976,229.17976 0 0 0 -0.3984,0.5723 l -1.2071,1.7383 a 229.17976,229.17976 0 0 0 -0.4433,0.6406 c -103.6032,150.2942 -260.6747,353.7619 -393.0274,570.9824 -18.2065,21.7933 -34.5819,42.8242 -51.248,64.7734 h 0 c -35.6484,46.9486 -76.7589,103.6589 -123.9472,169.9121 -94.4773,132.648 -212.3673,302.6875 -331.0684,475.5137 -21.778,31.7084 -40.705,59.5828 -61.7812,90.3653 L 4973.6406,2070.5039 a 229.17976,229.17976 0 0 0 -77.1543,-127.2832 l -309.8418,-258.3965 a 229.17976,229.17976 0 0 0 -139.0683,-53.039 c -301.4466,-10.1328 -588.2514,-0.238 -852.1953,-0.3145 l -401.8008,-0.4023 c -57.6892,-0.2899 -150.5628,-5.2848 -264.2461,1.2773 a 229.17976,229.17976 0 0 0 -133.6621,52.8691 l -300.2676,250.6993 a 229.17976,229.17976 0 0 0 -75.8789,122.082 l -768.2891,3179.4473 c -46.4087,167.1295 -80.3645,315.5925 -115.5293,419.4082 a 229.17976,229.17976 0 0 0 -2.0761,6.4414 l -5.6758,18.541 a 229.17976,229.17976 0 0 0 -1.8848,6.4961 c -25.3863,92.6138 -44.9829,169.2114 -60.8105,215.125 a 229.17976,229.17976 0 0 0 -3.1895,9.9883 l -8.4805,28.8164 a 229.17976,229.17976 0 0 0 -2.7285,10.1211 c -24.2349,98.8329 -59.7895,215.1263 -95.2636,348.1054 a 229.17976,229.17976 0 0 0 -0.2071,0.7813 l -0.6015,2.2871 a 229.17976,229.17976 0 0 0 -0.2129,0.8164 l -153.5098,592.5527 a 229.17976,229.17976 0 0 0 -0.2715,1.0586 l -0.7187,2.8301 a 229.17976,229.17976 0 0 0 -0.2305,0.916 c -55.44,222.1229 -151.8184,493.4172 -217.5039,799.8399 a 229.17976,229.17976 0 0 0 46.0527,192.3359 l 321.9844,397.2012 a 229.17976,229.17976 0 0 0 178.6445,84.8515 c 457.7619,-1.26 924.7179,5.8522 1399.3008,-0.041 a 229.17976,229.17976 0 0 0 137.9746,-48.3555 l 313.2891,-244.0332 a 229.17976,229.17976 0 0 0 80.6543,-121.9433 c 71.3683,-268.6292 130.5258,-534.9139 186.4336,-795.3262 57.4044,216.2108 150.8765,506.2084 443.9531,707.8125 a 229.17976,229.17976 0 0 0 0,0 c 169.8115,116.8078 369.7868,195.0734 584.5351,194.9453 215.9642,-0.1286 400.1438,-79.5156 537.0235,-176.1778 255.4629,-180.4039 384.309,-413.6546 462.4785,-532.0078 l 6.5547,-9.7539 c -27.6027,118.5732 -54.9698,237.3109 -81.9239,356.2989 a 229.17976,229.17976 0 0 0 44.4707,193.6777 l 320.3614,400.9238 a 229.17976,229.17976 0 0 0 179.0937,86.1055 l 760.7578,-0.2305 a 229.17976,229.17976 0 0 0 0.088,0 c 205.394,-0.079 383.6302,-2.959 513.1406,14.2793 a 229.17976,229.17976 0 0 0 161.9278,-39.6172 l 364.209,-255.7558 a 229.17976,229.17976 0 0 0 92.2343,-138.8614 c 30.944,-142.3571 72.8519,-298.1671 113.4668,-468.7871 a 229.17976,229.17976 0 0 0 0.01,-0.027 L 9163.4863,3403.7734 a 229.17976,229.17976 0 0 0 0,-0.025 c 72.9524,-287.9201 132.1967,-562.5939 202.5762,-812.3281 a 229.17976,229.17976 0 0 0 0.01,-0.031 c 25.7684,-90.3406 54.0496,-193.0889 76.3418,-306.1543 a 229.17976,229.17976 0 0 0 -47.8106,-189.8535 l -322.168,-391.8907 a 229.17976,229.17976 0 0 0 -177.0175,-83.6308 z m 287.5722,1115.0644 h 655.1309 c -32.974,136.9395 -64.3138,270.3256 -96.6289,397.7344 a 229.17976,229.17976 0 0 0 -0.1621,0.6445 l -0.4453,1.7774 a 229.17976,229.17976 0 0 0 -0.1485,0.5957 L 7066.7109,7230.9863 a 229.17976,229.17976 0 0 0 -0.2714,1.1074 l -0.75,3.0938 a 229.17976,229.17976 0 0 0 -0.254,1.0508 c -2.7617,11.6313 -5.8356,23.871 -8.6992,35.6875 -53.8207,0.2742 -105.2435,0.8507 -153.0898,0.8691 l -58.3731,0.018 c 209.5092,-882.3864 433.809,-1769.3986 637.6719,-2670.3926 a 229.17976,229.17976 0 0 0 -131.543,-260.4668 l -590.6699,-258.7988 a 229.17976,229.17976 0 0 0 -186.7422,1.6914 c 32.9781,-47.1082 64.6434,-92.1451 92.668,-131.4922 43.6512,-61.2871 80.9585,-112.4328 103.7754,-142.4824 10.9942,-14.4793 23.3293,-29.5372 19.0449,-24.4453 -1.6831,2.0003 -2.5102,3.0373 -6.3808,7.2129 -0.9677,1.0439 -1.8737,2.0615 -5.1094,5.3301 -1.6179,1.6342 -2.9554,3.2081 -10.041,9.5468 -3.5429,3.1694 -5.6473,6.3888 -24.7364,19.25 -4.762,3.2084 -20.9268,12.5285 -20.9961,12.5684 l 106.168,-105.961 a 229.17976,229.17976 0 0 0 36.2559,-47.0664 c 78.0554,-134.3334 239.7057,-350.2325 377.9941,-550.6601 a 229.17976,229.17976 0 0 0 0.031,-0.037 z m -3544.4746,8.7266 455.5488,2094.3457 a 229.17976,229.17976 0 0 0 0.2911,1.3164 l 0.8672,3.877 a 229.17976,229.17976 0 0 0 0.3164,1.3906 c 33.9394,147.4213 65.2483,275.7591 81.6328,383.3125 a 229.17976,229.17976 0 0 0 96.5996,154.2402 l 394.2969,271.4473 a 229.17976,229.17976 0 0 0 178.5585,35.1894 c 155.3381,-33.7228 288.7975,-102.9798 395.0333,-193.9277 -161.6615,242.6418 -322.9929,484.9382 -484.6055,725.8926 l -350.1016,520.8574 a 229.17976,229.17976 0 0 0 -0.5371,0.8027 l -1.3867,2.0821 a 229.17976,229.17976 0 0 0 -0.4316,0.6504 c -13.4475,20.3393 -26.9205,40.1093 -40.295,59.455 -40.9927,-157.9714 -70.4526,-357.6181 -105.8066,-527.457 a 229.17976,229.17976 0 0 0 -0.082,-0.3945 l -0.3028,-1.4414 a 229.17976,229.17976 0 0 0 -0.1289,-0.6114 l -336.9258,-1582.957 c -13.1563,-63.2998 -27.7614,-154.8045 -53.6757,-262.1895 a 229.17976,229.17976 0 0 0 -219.2911,-175.373 l -635.9453,-9.6328 a 229.17976,229.17976 0 0 0 -224.5019,168.6504 c -178.209,651.2893 -320.6485,1369.4103 -460.0254,2000.2773 a 229.17976,229.17976 0 0 0 -0.01,0.062 c -63.9747,289.6085 -122.0613,574.3397 -184.7793,849.5742 -74.7428,-0.019 -149.9011,-0.2285 -225.0879,-0.4746 7.5541,-28.2801 15.0104,-56.8567 22.2735,-85.832 a 229.17976,229.17976 0 0 0 0.082,-0.2168 l 152.7344,-589.5644 c 26.6113,-99.6605 61.9074,-215.1837 94.7949,-346.0704 32.3896,-98.0153 53.3149,-183.3692 70.8027,-247.9726 59.2111,-179.4522 94.7017,-342.6739 129.3203,-466.3418 a 229.17976,229.17976 0 0 0 1.0743,-3.9785 l 2.9687,-11.3907 a 229.17976,229.17976 0 0 0 0.9981,-3.9707 l 667.1582,-2760.9335 193.9121,0.1933 a 229.17976,229.17976 0 0 0 0.2304,0 h 0.1504 c 131.5278,0.043 259.6262,-1.7116 384.2754,-2.8867 z m 2455.9024,752.7773 269.1269,350.7832 c -15.9956,6.014 -35.7716,13.4493 -35.7715,13.4493 2e-4,-10e-5 -174.9258,-28.9083 -174.9257,-28.9082 0,0 -107.2383,-193.3225 -107.2383,-193.3223 0,10e-5 12.8438,-76.3557 12.8437,-76.3555 -1e-4,3e-4 8.6988,-21.5978 11.7754,-27.6875 6.1532,-12.1794 9.6294,-17.2858 12.3457,-21.4687 5.4327,-8.3658 7.7177,-11.1812 9.6055,-13.67 1.3414,-1.7684 1.4098,-1.7724 2.2383,-2.8203 z"
     transform="translate(558.65864,1343.8913)" />
  <path
     id="path1-5-8"
     style="color:#000000;fill:#6cf22f;fill-opacity:1;stroke-linejoin:bevel;-inkscape-stroke:none;paint-order:stroke markers fill"
     sodipodi:type="inkscape:offset"
     inkscape:radius="229.15685"
     inkscape:original="M 7235.8223 1849.0156 L 6968.9766 1986.0176 C 6920.7381 2053.2795 6886.4242 2101.0868 6863.1035 2133.7051 C 6841.8122 2163.4849 6841.0658 2161.8076 6820.2539 2194.5098 L 6516.5156 2629.1172 L 6515.3086 2630.8555 C 6402.97 2793.822 6244.4666 2999.2435 6119.8457 3206.4707 C 6117.0591 3209.687 6114.2373 3212.9233 6111.6074 3216.0488 C 6095.9121 3234.7021 6081.4427 3253.301 6064.8672 3275.1309 C 6031.7161 3318.7905 5991.5866 3374.091 5945.0664 3439.4062 C 5852.026 3570.0368 5734.5616 3739.4414 5616.2402 3911.7148 C 5479.1308 4111.3433 5355.0255 4294.0968 5254.9531 4441.9805 L 4749.7188 2119.209 L 4439.877 1860.8125 C 4148.4342 1851.016 3864.6827 1860.7091 3595.1523 1860.627 L 3192.5059 1860.2246 C 3125.4843 1859.8913 3041.9995 1855.38 2942.5391 1861.1211 L 2642.2715 2111.8203 L 1873.1992 5294.5098 C 1828.1112 5456.4253 1794.4525 5607.2525 1752.75 5730.3691 L 1747.0742 5748.9102 C 1722.535 5838.4337 1703.1647 5916.4654 1681.9043 5978.1387 L 1673.4238 6006.9551 C 1646.9059 6115.0984 1611.1405 6231.6169 1577.0117 6359.5527 L 1576.4102 6361.8398 L 1422.9004 6954.3926 L 1422.1816 6957.2227 C 1362.6336 7195.8043 1268.1036 7461.7909 1206.4082 7749.5996 L 1528.3926 8146.8008 C 1988.931 8145.5331 2455.0752 8152.6186 2925.4785 8146.7773 L 3238.7676 7902.7441 C 3355.1032 7464.8588 3439.8293 7026.669 3533.0723 6604.5684 L 3533.0723 6604.5586 C 3571.6452 6429.9648 3610.1759 6250.6837 3649.0957 6070.1426 L 3731.6289 6457.9043 C 3756.1806 6575.9354 3788.9943 6804.1432 3848.0625 7030.5664 C 3907.1664 7257.1267 3960.6413 7506.5142 4220.502 7685.2695 C 4360.123 7781.3102 4517.1019 7839.9555 4675.0293 7839.8613 C 4832.9566 7839.7673 4975.1626 7779.6868 5080 7705.6523 C 5289.4393 7557.7495 5396.8082 7365.6499 5483.6875 7234.1777 L 5833.0117 6714.4766 L 5833.1934 6714.2051 C 5956.4148 6530.4898 6078.9518 6346.7389 6201.2852 6163.1328 C 6072.52 6692.7663 5943.8294 7223.6916 5822.793 7758.0039 L 6143.1543 8158.9277 L 6903.9551 8158.6973 L 6903.9824 8158.6973 C 7105.9916 8158.6193 7290.3767 8154.0721 7447.4453 8174.9785 L 7811.6543 7919.2227 C 7844.6329 7767.5054 7887.3913 7609.2872 7927.375 7440.8906 L 7926.625 7443.9863 L 8941.0527 3348.6758 L 8940.6074 3350.4531 C 9012.5826 3066.6763 9072.1397 2789.578 9145.502 2529.2598 L 9145.207 2530.3008 C 9170.6345 2441.2005 9197.2034 2344.2859 9217.5859 2240.9062 L 8895.418 1849.0156 L 7235.8223 1849.0156 z M 7404.4531 2505.7676 L 8471.6426 2505.7676 C 8410.5817 2739.6625 8359.727 2969.358 8304.0195 3188.9961 L 8303.5742 3190.7734 L 7289.1445 7286.084 L 7288.3945 7289.1777 C 7271.9153 7358.5822 7253.9363 7429.694 7235.7871 7502.3164 C 7118.4114 7499.5208 7007.0768 7501.9114 6903.7344 7501.9512 L 6555.6797 7502.0566 C 6784.2401 6523.6756 7034.8356 5544.4996 7259.4375 4551.8477 L 6668.7676 4293.0488 C 6198.1976 4975.9034 5745.6552 5665.7048 5287.7715 6348.3809 L 4937.543 6869.4277 L 4936.1562 6871.5098 C 4844.7127 7009.8185 4749.2038 7135.2618 4701.1602 7169.1895 C 4677.1383 7186.1533 4676.7789 7183.114 4674.6445 7183.1152 C 4672.5104 7183.1152 4651.9345 7184.9097 4592.7266 7144.1855 C 4624.1332 7165.7707 4529.6902 7041.6661 4483.5469 6864.7871 C 4437.3961 6687.8794 4407.6495 6482.8215 4374.5527 6323.8262 L 4374.25 6322.3848 L 4037.1582 4738.6445 C 4022.2342 4666.8988 4008.4981 4580.5647 3985.0234 4483.2891 L 3349.0781 4473.6562 C 3174.0101 5113.4664 3031.9478 5828.4565 2891.7832 6462.8887 L 2891.7832 6462.8984 C 2814.7952 6811.4139 2745.7375 7157.2195 2665.1465 7491.9531 C 2429.8426 7492.8466 2193.0165 7491.5595 1955.0391 7490.6289 C 1990.2402 7370.7419 2027.0593 7245.7866 2059.3867 7116.2656 L 2058.666 7119.0977 L 2211.7168 6528.3145 C 2240.4883 6420.5166 2276.103 6304.3902 2307.8027 6177.166 C 2338.9135 6084.3596 2359.3285 6000.2975 2378.8359 5928.6035 C 2434.8692 5760.3829 2469.4883 5600.556 2507.4785 5464.8438 L 2510.4473 5453.4531 L 3220.0176 2517.0059 L 3594.4941 2517.3809 L 3594.7188 2517.3809 C 3788.7151 2517.4439 3978.9111 2513.3543 4163.3672 2513.4629 L 4658.3906 4789.291 L 4659.2578 4793.168 C 4692.6862 4938.3697 4725.4282 5070.6874 4744.1191 5193.3809 L 5138.416 5464.8281 C 5287.5961 5432.4421 5428.195 5340.0516 5505.1914 5247.8848 C 5582.1877 5155.718 5611.3105 5088.3347 5643.1016 5040.8184 L 5643.1191 5040.793 C 5682.8371 4981.4168 5923.1809 4624.8546 6157.6055 4283.5371 C 6274.8178 4112.8783 6391.1286 3945.1976 6480.0059 3820.4121 C 6524.4446 3758.0193 6562.3098 3706.029 6587.9258 3672.293 C 6600.7338 3655.425 6610.8429 3642.799 6614.1348 3638.8867 C 6615.7808 3636.9305 6616.0087 3636.9979 6610.6777 3642.4941 C 6605.3467 3647.9902 6607.465 3656.4694 6547.002 3691.4453 L 6666.502 3572.1777 C 6758.7081 3413.4909 6921.7618 3198.3919 7056.0391 3003.5996 L 7054.832 3005.3379 L 7362.0762 2565.7148 L 7371.127 2552.0508 C 7349.0114 2587.3213 7374.7365 2547.3106 7397.3555 2515.6738 C 7398.8804 2513.5409 7402.8226 2508.0513 7404.4551 2505.7695 L 7404.4531 2505.7676 z "
     d="m 7235.8223,1619.8594 a 229.17976,229.17976 0 0 0 -104.6641,25.2969 l -266.8457,137.0019 a 229.17976,229.17976 0 0 0 -81.5547,70.3086 c -48.2142,67.228 -82.5066,115.0056 -106.0683,147.9609 -16.345,22.8614 -25.0958,32.9353 -45.8438,65.0664 l -302.1621,432.3516 a 229.17976,229.17976 0 0 0 -0.3984,0.5723 l -1.2071,1.7383 a 229.17976,229.17976 0 0 0 -0.4433,0.6406 c -103.6032,150.2942 -260.6747,353.7619 -393.0274,570.9824 -18.2065,21.7933 -34.5819,42.8242 -51.248,64.7734 h 0 c -35.6484,46.9486 -76.7589,103.6589 -123.9472,169.9121 -94.4773,132.648 -212.3673,302.6875 -331.0684,475.5137 -21.778,31.7084 -40.705,59.5828 -61.7812,90.3653 L 4973.6406,2070.5039 a 229.17976,229.17976 0 0 0 -77.1543,-127.2832 l -309.8418,-258.3965 a 229.17976,229.17976 0 0 0 -139.0683,-53.039 c -301.4466,-10.1328 -588.2514,-0.238 -852.1953,-0.3145 l -401.8008,-0.4023 c -57.6892,-0.2899 -150.5628,-5.2848 -264.2461,1.2773 a 229.17976,229.17976 0 0 0 -133.6621,52.8691 l -300.2676,250.6993 a 229.17976,229.17976 0 0 0 -75.8789,122.082 l -768.2891,3179.4473 c -46.4087,167.1295 -80.3645,315.5925 -115.5293,419.4082 a 229.17976,229.17976 0 0 0 -2.0761,6.4414 l -5.6758,18.541 a 229.17976,229.17976 0 0 0 -1.8848,6.4961 c -25.3863,92.6138 -44.9829,169.2114 -60.8105,215.125 a 229.17976,229.17976 0 0 0 -3.1895,9.9883 l -8.4805,28.8164 a 229.17976,229.17976 0 0 0 -2.7285,10.1211 c -24.2349,98.8329 -59.7895,215.1263 -95.2636,348.1054 a 229.17976,229.17976 0 0 0 -0.2071,0.7813 l -0.6015,2.2871 a 229.17976,229.17976 0 0 0 -0.2129,0.8164 l -153.5098,592.5527 a 229.17976,229.17976 0 0 0 -0.2715,1.0586 l -0.7187,2.8301 a 229.17976,229.17976 0 0 0 -0.2305,0.916 c -55.44,222.1229 -151.8184,493.4172 -217.5039,799.8399 a 229.17976,229.17976 0 0 0 46.0527,192.3359 l 321.9844,397.2012 a 229.17976,229.17976 0 0 0 178.6445,84.8515 c 457.7619,-1.26 924.7179,5.8522 1399.3008,-0.041 a 229.17976,229.17976 0 0 0 137.9746,-48.3555 l 313.2891,-244.0332 a 229.17976,229.17976 0 0 0 80.6543,-121.9433 c 71.3683,-268.6292 130.5258,-534.9139 186.4336,-795.3262 57.4044,216.2108 150.8765,506.2084 443.9531,707.8125 a 229.17976,229.17976 0 0 0 0,0 c 169.8115,116.8078 369.7868,195.0734 584.5351,194.9453 215.9642,-0.1286 400.1438,-79.5156 537.0235,-176.1778 255.4629,-180.4039 384.309,-413.6546 462.4785,-532.0078 l 6.5547,-9.7539 c -27.6027,118.5732 -54.9698,237.3109 -81.9239,356.2989 a 229.17976,229.17976 0 0 0 44.4707,193.6777 l 320.3614,400.9238 a 229.17976,229.17976 0 0 0 179.0937,86.1055 l 760.7578,-0.2305 a 229.17976,229.17976 0 0 0 0.088,0 c 205.394,-0.079 383.6302,-2.959 513.1406,14.2793 a 229.17976,229.17976 0 0 0 161.9278,-39.6172 l 364.209,-255.7558 a 229.17976,229.17976 0 0 0 92.2343,-138.8614 c 30.944,-142.3571 72.8519,-298.1671 113.4668,-468.7871 a 229.17976,229.17976 0 0 0 0.01,-0.027 L 9163.4863,3403.7734 a 229.17976,229.17976 0 0 0 0,-0.025 c 72.9524,-287.9201 132.1967,-562.5939 202.5762,-812.3281 a 229.17976,229.17976 0 0 0 0.01,-0.031 c 25.7684,-90.3406 54.0496,-193.0889 76.3418,-306.1543 a 229.17976,229.17976 0 0 0 -47.8106,-189.8535 l -322.168,-391.8907 a 229.17976,229.17976 0 0 0 -177.0175,-83.6308 z m 287.5722,1115.0644 h 655.1309 c -32.974,136.9395 -64.3138,270.3256 -96.6289,397.7344 a 229.17976,229.17976 0 0 0 -0.1621,0.6445 l -0.4453,1.7774 a 229.17976,229.17976 0 0 0 -0.1485,0.5957 L 7066.7109,7230.9863 a 229.17976,229.17976 0 0 0 -0.2714,1.1074 l -0.75,3.0938 a 229.17976,229.17976 0 0 0 -0.254,1.0508 c -2.7617,11.6313 -5.8356,23.871 -8.6992,35.6875 -53.8207,0.2742 -105.2435,0.8507 -153.0898,0.8691 l -58.3731,0.018 c 209.5092,-882.3864 433.809,-1769.3986 637.6719,-2670.3926 a 229.17976,229.17976 0 0 0 -131.543,-260.4668 l -590.6699,-258.7988 a 229.17976,229.17976 0 0 0 -186.7422,1.6914 c 32.9781,-47.1082 64.6434,-92.1451 92.668,-131.4922 43.6512,-61.2871 80.9585,-112.4328 103.7754,-142.4824 10.9942,-14.4793 23.3293,-29.5372 19.0449,-24.4453 -1.6831,2.0003 -2.5102,3.0373 -6.3808,7.2129 -0.9677,1.0439 -1.8737,2.0615 -5.1094,5.3301 -1.6179,1.6342 -2.9554,3.2081 -10.041,9.5468 -3.5429,3.1694 -5.6473,6.3888 -24.7364,19.25 -4.762,3.2084 -20.9268,12.5285 -20.9961,12.5684 l 106.168,-105.961 a 229.17976,229.17976 0 0 0 36.2559,-47.0664 c 78.0554,-134.3334 239.7057,-350.2325 377.9941,-550.6601 a 229.17976,229.17976 0 0 0 0.031,-0.037 z m -3544.4746,8.7266 455.5488,2094.3457 a 229.17976,229.17976 0 0 0 0.2911,1.3164 l 0.8672,3.877 a 229.17976,229.17976 0 0 0 0.3164,1.3906 c 33.9394,147.4213 65.2483,275.7591 81.6328,383.3125 a 229.17976,229.17976 0 0 0 96.5996,154.2402 l 394.2969,271.4473 a 229.17976,229.17976 0 0 0 178.5585,35.1894 c 155.3381,-33.7228 288.7975,-102.9798 395.0333,-193.9277 -161.6615,242.6418 -322.9929,484.9382 -484.6055,725.8926 l -350.1016,520.8574 a 229.17976,229.17976 0 0 0 -0.5371,0.8027 l -1.3867,2.0821 a 229.17976,229.17976 0 0 0 -0.4316,0.6504 c -13.4475,20.3393 -26.9205,40.1093 -40.295,59.455 -40.9927,-157.9714 -70.4526,-357.6181 -105.8066,-527.457 a 229.17976,229.17976 0 0 0 -0.082,-0.3945 l -0.3028,-1.4414 a 229.17976,229.17976 0 0 0 -0.1289,-0.6114 l -336.9258,-1582.957 c -13.1563,-63.2998 -27.7614,-154.8045 -53.6757,-262.1895 a 229.17976,229.17976 0 0 0 -219.2911,-175.373 l -635.9453,-9.6328 a 229.17976,229.17976 0 0 0 -224.5019,168.6504 c -178.209,651.2893 -320.6485,1369.4103 -460.0254,2000.2773 a 229.17976,229.17976 0 0 0 -0.01,0.062 c -63.9747,289.6085 -122.0613,574.3397 -184.7793,849.5742 -74.7428,-0.019 -149.9011,-0.2285 -225.0879,-0.4746 7.5541,-28.2801 15.0104,-56.8567 22.2735,-85.832 a 229.17976,229.17976 0 0 0 0.082,-0.2168 l 152.7344,-589.5644 c 26.6113,-99.6605 61.9074,-215.1837 94.7949,-346.0704 32.3896,-98.0153 53.3149,-183.3692 70.8027,-247.9726 59.2111,-179.4522 94.7017,-342.6739 129.3203,-466.3418 a 229.17976,229.17976 0 0 0 1.0743,-3.9785 l 2.9687,-11.3907 a 229.17976,229.17976 0 0 0 0.9981,-3.9707 l 667.1582,-2760.9335 193.9121,0.1933 a 229.17976,229.17976 0 0 0 0.2304,0 h 0.1504 c 131.5278,0.043 259.6262,-1.7116 384.2754,-2.8867 z m 2455.9024,752.7773 269.1269,350.7832 c -15.9956,6.014 -35.7716,13.4493 -35.7715,13.4493 2e-4,-10e-5 -174.9258,-28.9083 -174.9257,-28.9082 0,0 -107.2383,-193.3225 -107.2383,-193.3223 0,10e-5 12.8438,-76.3557 12.8437,-76.3555 -1e-4,3e-4 8.6988,-21.5978 11.7754,-27.6875 6.1532,-12.1794 9.6294,-17.2858 12.3457,-21.4687 5.4327,-8.3658 7.7177,-11.1812 9.6055,-13.67 1.3414,-1.7684 1.4098,-1.7724 2.2383,-2.8203 z"
     transform="translate(195.74134,879.64992)" />
  <path
     id="path1-5"
     style="color:#000000;fill:#f22f2f;fill-opacity:1;stroke-linejoin:bevel;-inkscape-stroke:none;paint-order:stroke markers fill"
     sodipodi:type="inkscape:offset"
     inkscape:radius="229.15685"
     inkscape:original="M 7235.8223 1849.0156 L 6968.9766 1986.0176 C 6920.7381 2053.2795 6886.4242 2101.0868 6863.1035 2133.7051 C 6841.8122 2163.4849 6841.0658 2161.8076 6820.2539 2194.5098 L 6516.5156 2629.1172 L 6515.3086 2630.8555 C 6402.97 2793.822 6244.4666 2999.2435 6119.8457 3206.4707 C 6117.0591 3209.687 6114.2373 3212.9233 6111.6074 3216.0488 C 6095.9121 3234.7021 6081.4427 3253.301 6064.8672 3275.1309 C 6031.7161 3318.7905 5991.5866 3374.091 5945.0664 3439.4062 C 5852.026 3570.0368 5734.5616 3739.4414 5616.2402 3911.7148 C 5479.1308 4111.3433 5355.0255 4294.0968 5254.9531 4441.9805 L 4749.7188 2119.209 L 4439.877 1860.8125 C 4148.4342 1851.016 3864.6827 1860.7091 3595.1523 1860.627 L 3192.5059 1860.2246 C 3125.4843 1859.8913 3041.9995 1855.38 2942.5391 1861.1211 L 2642.2715 2111.8203 L 1873.1992 5294.5098 C 1828.1112 5456.4253 1794.4525 5607.2525 1752.75 5730.3691 L 1747.0742 5748.9102 C 1722.535 5838.4337 1703.1647 5916.4654 1681.9043 5978.1387 L 1673.4238 6006.9551 C 1646.9059 6115.0984 1611.1405 6231.6169 1577.0117 6359.5527 L 1576.4102 6361.8398 L 1422.9004 6954.3926 L 1422.1816 6957.2227 C 1362.6336 7195.8043 1268.1036 7461.7909 1206.4082 7749.5996 L 1528.3926 8146.8008 C 1988.931 8145.5331 2455.0752 8152.6186 2925.4785 8146.7773 L 3238.7676 7902.7441 C 3355.1032 7464.8588 3439.8293 7026.669 3533.0723 6604.5684 L 3533.0723 6604.5586 C 3571.6452 6429.9648 3610.1759 6250.6837 3649.0957 6070.1426 L 3731.6289 6457.9043 C 3756.1806 6575.9354 3788.9943 6804.1432 3848.0625 7030.5664 C 3907.1664 7257.1267 3960.6413 7506.5142 4220.502 7685.2695 C 4360.123 7781.3102 4517.1019 7839.9555 4675.0293 7839.8613 C 4832.9566 7839.7673 4975.1626 7779.6868 5080 7705.6523 C 5289.4393 7557.7495 5396.8082 7365.6499 5483.6875 7234.1777 L 5833.0117 6714.4766 L 5833.1934 6714.2051 C 5956.4148 6530.4898 6078.9518 6346.7389 6201.2852 6163.1328 C 6072.52 6692.7663 5943.8294 7223.6916 5822.793 7758.0039 L 6143.1543 8158.9277 L 6903.9551 8158.6973 L 6903.9824 8158.6973 C 7105.9916 8158.6193 7290.3767 8154.0721 7447.4453 8174.9785 L 7811.6543 7919.2227 C 7844.6329 7767.5054 7887.3913 7609.2872 7927.375 7440.8906 L 7926.625 7443.9863 L 8941.0527 3348.6758 L 8940.6074 3350.4531 C 9012.5826 3066.6763 9072.1397 2789.578 9145.502 2529.2598 L 9145.207 2530.3008 C 9170.6345 2441.2005 9197.2034 2344.2859 9217.5859 2240.9062 L 8895.418 1849.0156 L 7235.8223 1849.0156 z M 7404.4531 2505.7676 L 8471.6426 2505.7676 C 8410.5817 2739.6625 8359.727 2969.358 8304.0195 3188.9961 L 8303.5742 3190.7734 L 7289.1445 7286.084 L 7288.3945 7289.1777 C 7271.9153 7358.5822 7253.9363 7429.694 7235.7871 7502.3164 C 7118.4114 7499.5208 7007.0768 7501.9114 6903.7344 7501.9512 L 6555.6797 7502.0566 C 6784.2401 6523.6756 7034.8356 5544.4996 7259.4375 4551.8477 L 6668.7676 4293.0488 C 6198.1976 4975.9034 5745.6552 5665.7048 5287.7715 6348.3809 L 4937.543 6869.4277 L 4936.1562 6871.5098 C 4844.7127 7009.8185 4749.2038 7135.2618 4701.1602 7169.1895 C 4677.1383 7186.1533 4676.7789 7183.114 4674.6445 7183.1152 C 4672.5104 7183.1152 4651.9345 7184.9097 4592.7266 7144.1855 C 4624.1332 7165.7707 4529.6902 7041.6661 4483.5469 6864.7871 C 4437.3961 6687.8794 4407.6495 6482.8215 4374.5527 6323.8262 L 4374.25 6322.3848 L 4037.1582 4738.6445 C 4022.2342 4666.8988 4008.4981 4580.5647 3985.0234 4483.2891 L 3349.0781 4473.6562 C 3174.0101 5113.4664 3031.9478 5828.4565 2891.7832 6462.8887 L 2891.7832 6462.8984 C 2814.7952 6811.4139 2745.7375 7157.2195 2665.1465 7491.9531 C 2429.8426 7492.8466 2193.0165 7491.5595 1955.0391 7490.6289 C 1990.2402 7370.7419 2027.0593 7245.7866 2059.3867 7116.2656 L 2058.666 7119.0977 L 2211.7168 6528.3145 C 2240.4883 6420.5166 2276.103 6304.3902 2307.8027 6177.166 C 2338.9135 6084.3596 2359.3285 6000.2975 2378.8359 5928.6035 C 2434.8692 5760.3829 2469.4883 5600.556 2507.4785 5464.8438 L 2510.4473 5453.4531 L 3220.0176 2517.0059 L 3594.4941 2517.3809 L 3594.7188 2517.3809 C 3788.7151 2517.4439 3978.9111 2513.3543 4163.3672 2513.4629 L 4658.3906 4789.291 L 4659.2578 4793.168 C 4692.6862 4938.3697 4725.4282 5070.6874 4744.1191 5193.3809 L 5138.416 5464.8281 C 5287.5961 5432.4421 5428.195 5340.0516 5505.1914 5247.8848 C 5582.1877 5155.718 5611.3105 5088.3347 5643.1016 5040.8184 L 5643.1191 5040.793 C 5682.8371 4981.4168 5923.1809 4624.8546 6157.6055 4283.5371 C 6274.8178 4112.8783 6391.1286 3945.1976 6480.0059 3820.4121 C 6524.4446 3758.0193 6562.3098 3706.029 6587.9258 3672.293 C 6600.7338 3655.425 6610.8429 3642.799 6614.1348 3638.8867 C 6615.7808 3636.9305 6616.0087 3636.9979 6610.6777 3642.4941 C 6605.3467 3647.9902 6607.465 3656.4694 6547.002 3691.4453 L 6666.502 3572.1777 C 6758.7081 3413.4909 6921.7618 3198.3919 7056.0391 3003.5996 L 7054.832 3005.3379 L 7362.0762 2565.7148 L 7371.127 2552.0508 C 7349.0114 2587.3213 7374.7365 2547.3106 7397.3555 2515.6738 C 7398.8804 2513.5409 7402.8226 2508.0513 7404.4551 2505.7695 L 7404.4531 2505.7676 z "
     d="m 7235.8223,1619.8594 a 229.17976,229.17976 0 0 0 -104.6641,25.2969 l -266.8457,137.0019 a 229.17976,229.17976 0 0 0 -81.5547,70.3086 c -48.2142,67.228 -82.5066,115.0056 -106.0683,147.9609 -16.345,22.8614 -25.0958,32.9353 -45.8438,65.0664 l -302.1621,432.3516 a 229.17976,229.17976 0 0 0 -0.3984,0.5723 l -1.2071,1.7383 a 229.17976,229.17976 0 0 0 -0.4433,0.6406 c -103.6032,150.2942 -260.6747,353.7619 -393.0274,570.9824 -18.2065,21.7933 -34.5819,42.8242 -51.248,64.7734 h 0 c -35.6484,46.9486 -76.7589,103.6589 -123.9472,169.9121 -94.4773,132.648 -212.3673,302.6875 -331.0684,475.5137 -21.778,31.7084 -40.705,59.5828 -61.7812,90.3653 L 4973.6406,2070.5039 a 229.17976,229.17976 0 0 0 -77.1543,-127.2832 l -309.8418,-258.3965 a 229.17976,229.17976 0 0 0 -139.0683,-53.039 c -301.4466,-10.1328 -588.2514,-0.238 -852.1953,-0.3145 l -401.8008,-0.4023 c -57.6892,-0.2899 -150.5628,-5.2848 -264.2461,1.2773 a 229.17976,229.17976 0 0 0 -133.6621,52.8691 l -300.2676,250.6993 a 229.17976,229.17976 0 0 0 -75.8789,122.082 l -768.2891,3179.4473 c -46.4087,167.1295 -80.3645,315.5925 -115.5293,419.4082 a 229.17976,229.17976 0 0 0 -2.0761,6.4414 l -5.6758,18.541 a 229.17976,229.17976 0 0 0 -1.8848,6.4961 c -25.3863,92.6138 -44.9829,169.2114 -60.8105,215.125 a 229.17976,229.17976 0 0 0 -3.1895,9.9883 l -8.4805,28.8164 a 229.17976,229.17976 0 0 0 -2.7285,10.1211 c -24.2349,98.8329 -59.7895,215.1263 -95.2636,348.1054 a 229.17976,229.17976 0 0 0 -0.2071,0.7813 l -0.6015,2.2871 a 229.17976,229.17976 0 0 0 -0.2129,0.8164 l -153.5098,592.5527 a 229.17976,229.17976 0 0 0 -0.2715,1.0586 l -0.7187,2.8301 a 229.17976,229.17976 0 0 0 -0.2305,0.916 c -55.44,222.1229 -151.8184,493.4172 -217.5039,799.8399 a 229.17976,229.17976 0 0 0 46.0527,192.3359 l 321.9844,397.2012 a 229.17976,229.17976 0 0 0 178.6445,84.8515 c 457.7619,-1.26 924.7179,5.8522 1399.3008,-0.041 a 229.17976,229.17976 0 0 0 137.9746,-48.3555 l 313.2891,-244.0332 a 229.17976,229.17976 0 0 0 80.6543,-121.9433 c 71.3683,-268.6292 130.5258,-534.9139 186.4336,-795.3262 57.4044,216.2108 150.8765,506.2084 443.9531,707.8125 a 229.17976,229.17976 0 0 0 0,0 c 169.8115,116.8078 369.7868,195.0734 584.5351,194.9453 215.9642,-0.1286 400.1438,-79.5156 537.0235,-176.1778 255.4629,-180.4039 384.309,-413.6546 462.4785,-532.0078 l 6.5547,-9.7539 c -27.6027,118.5732 -54.9698,237.3109 -81.9239,356.2989 a 229.17976,229.17976 0 0 0 44.4707,193.6777 l 320.3614,400.9238 a 229.17976,229.17976 0 0 0 179.0937,86.1055 l 760.7578,-0.2305 a 229.17976,229.17976 0 0 0 0.088,0 c 205.394,-0.079 383.6302,-2.959 513.1406,14.2793 a 229.17976,229.17976 0 0 0 161.9278,-39.6172 l 364.209,-255.7558 a 229.17976,229.17976 0 0 0 92.2343,-138.8614 c 30.944,-142.3571 72.8519,-298.1671 113.4668,-468.7871 a 229.17976,229.17976 0 0 0 0.01,-0.027 L 9163.4863,3403.7734 a 229.17976,229.17976 0 0 0 0,-0.025 c 72.9524,-287.9201 132.1967,-562.5939 202.5762,-812.3281 a 229.17976,229.17976 0 0 0 0.01,-0.031 c 25.7684,-90.3406 54.0496,-193.0889 76.3418,-306.1543 a 229.17976,229.17976 0 0 0 -47.8106,-189.8535 l -322.168,-391.8907 a 229.17976,229.17976 0 0 0 -177.0175,-83.6308 z m 287.5722,1115.0644 h 655.1309 c -32.974,136.9395 -64.3138,270.3256 -96.6289,397.7344 a 229.17976,229.17976 0 0 0 -0.1621,0.6445 l -0.4453,1.7774 a 229.17976,229.17976 0 0 0 -0.1485,0.5957 L 7066.7109,7230.9863 a 229.17976,229.17976 0 0 0 -0.2714,1.1074 l -0.75,3.0938 a 229.17976,229.17976 0 0 0 -0.254,1.0508 c -2.7617,11.6313 -5.8356,23.871 -8.6992,35.6875 -53.8207,0.2742 -105.2435,0.8507 -153.0898,0.8691 l -58.3731,0.018 c 209.5092,-882.3864 433.809,-1769.3986 637.6719,-2670.3926 a 229.17976,229.17976 0 0 0 -131.543,-260.4668 l -590.6699,-258.7988 a 229.17976,229.17976 0 0 0 -186.7422,1.6914 c 32.9781,-47.1082 64.6434,-92.1451 92.668,-131.4922 43.6512,-61.2871 80.9585,-112.4328 103.7754,-142.4824 10.9942,-14.4793 23.3293,-29.5372 19.0449,-24.4453 -1.6831,2.0003 -2.5102,3.0373 -6.3808,7.2129 -0.9677,1.0439 -1.8737,2.0615 -5.1094,5.3301 -1.6179,1.6342 -2.9554,3.2081 -10.041,9.5468 -3.5429,3.1694 -5.6473,6.3888 -24.7364,19.25 -4.762,3.2084 -20.9268,12.5285 -20.9961,12.5684 l 106.168,-105.961 a 229.17976,229.17976 0 0 0 36.2559,-47.0664 c 78.0554,-134.3334 239.7057,-350.2325 377.9941,-550.6601 a 229.17976,229.17976 0 0 0 0.031,-0.037 z m -3544.4746,8.7266 455.5488,2094.3457 a 229.17976,229.17976 0 0 0 0.2911,1.3164 l 0.8672,3.877 a 229.17976,229.17976 0 0 0 0.3164,1.3906 c 33.9394,147.4213 65.2483,275.7591 81.6328,383.3125 a 229.17976,229.17976 0 0 0 96.5996,154.2402 l 394.2969,271.4473 a 229.17976,229.17976 0 0 0 178.5585,35.1894 c 155.3381,-33.7228 288.7975,-102.9798 395.0333,-193.9277 -161.6615,242.6418 -322.9929,484.9382 -484.6055,725.8926 l -350.1016,520.8574 a 229.17976,229.17976 0 0 0 -0.5371,0.8027 l -1.3867,2.0821 a 229.17976,229.17976 0 0 0 -0.4316,0.6504 c -13.4475,20.3393 -26.9205,40.1093 -40.295,59.455 -40.9927,-157.9714 -70.4526,-357.6181 -105.8066,-527.457 a 229.17976,229.17976 0 0 0 -0.082,-0.3945 l -0.3028,-1.4414 a 229.17976,229.17976 0 0 0 -0.1289,-0.6114 l -336.9258,-1582.957 c -13.1563,-63.2998 -27.7614,-154.8045 -53.6757,-262.1895 a 229.17976,229.17976 0 0 0 -219.2911,-175.373 l -635.9453,-9.6328 a 229.17976,229.17976 0 0 0 -224.5019,168.6504 c -178.209,651.2893 -320.6485,1369.4103 -460.0254,2000.2773 a 229.17976,229.17976 0 0 0 -0.01,0.062 c -63.9747,289.6085 -122.0613,574.3397 -184.7793,849.5742 -74.7428,-0.019 -149.9011,-0.2285 -225.0879,-0.4746 7.5541,-28.2801 15.0104,-56.8567 22.2735,-85.832 a 229.17976,229.17976 0 0 0 0.082,-0.2168 l 152.7344,-589.5644 c 26.6113,-99.6605 61.9074,-215.1837 94.7949,-346.0704 32.3896,-98.0153 53.3149,-183.3692 70.8027,-247.9726 59.2111,-179.4522 94.7017,-342.6739 129.3203,-466.3418 a 229.17976,229.17976 0 0 0 1.0743,-3.9785 l 2.9687,-11.3907 a 229.17976,229.17976 0 0 0 0.9981,-3.9707 l 667.1582,-2760.9335 193.9121,0.1933 a 229.17976,229.17976 0 0 0 0.2304,0 h 0.1504 c 131.5278,0.043 259.6262,-1.7116 384.2754,-2.8867 z m 2455.9024,752.7773 269.1269,350.7832 c -15.9956,6.014 -35.7716,13.4493 -35.7715,13.4493 2e-4,-10e-5 -174.9258,-28.9083 -174.9257,-28.9082 0,0 -107.2383,-193.3225 -107.2383,-193.3223 0,10e-5 12.8438,-76.3557 12.8437,-76.3555 -1e-4,3e-4 8.6988,-21.5978 11.7754,-27.6875 6.1532,-12.1794 9.6294,-17.2858 12.3457,-21.4687 5.4327,-8.3658 7.7177,-11.1812 9.6055,-13.67 1.3414,-1.7684 1.4098,-1.7724 2.2383,-2.8203 z"
     transform="translate(-167.53753,473.50917)" />
  <path
     id="path1"
     style="color:#000000;fill:#f2f2f2;stroke-linejoin:bevel;-inkscape-stroke:none;paint-order:stroke markers fill"
     sodipodi:type="inkscape:offset"
     inkscape:radius="229.15685"
     inkscape:original="M 7235.8223 1849.0156 L 6968.9766 1986.0176 C 6920.7381 2053.2795 6886.4242 2101.0868 6863.1035 2133.7051 C 6841.8122 2163.4849 6841.0658 2161.8076 6820.2539 2194.5098 L 6516.5156 2629.1172 L 6515.3086 2630.8555 C 6402.97 2793.822 6244.4666 2999.2435 6119.8457 3206.4707 C 6117.0591 3209.687 6114.2373 3212.9233 6111.6074 3216.0488 C 6095.9121 3234.7021 6081.4427 3253.301 6064.8672 3275.1309 C 6031.7161 3318.7905 5991.5866 3374.091 5945.0664 3439.4062 C 5852.026 3570.0368 5734.5616 3739.4414 5616.2402 3911.7148 C 5479.1308 4111.3433 5355.0255 4294.0968 5254.9531 4441.9805 L 4749.7188 2119.209 L 4439.877 1860.8125 C 4148.4342 1851.016 3864.6827 1860.7091 3595.1523 1860.627 L 3192.5059 1860.2246 C 3125.4843 1859.8913 3041.9995 1855.38 2942.5391 1861.1211 L 2642.2715 2111.8203 L 1873.1992 5294.5098 C 1828.1112 5456.4253 1794.4525 5607.2525 1752.75 5730.3691 L 1747.0742 5748.9102 C 1722.535 5838.4337 1703.1647 5916.4654 1681.9043 5978.1387 L 1673.4238 6006.9551 C 1646.9059 6115.0984 1611.1405 6231.6169 1577.0117 6359.5527 L 1576.4102 6361.8398 L 1422.9004 6954.3926 L 1422.1816 6957.2227 C 1362.6336 7195.8043 1268.1036 7461.7909 1206.4082 7749.5996 L 1528.3926 8146.8008 C 1988.931 8145.5331 2455.0752 8152.6186 2925.4785 8146.7773 L 3238.7676 7902.7441 C 3355.1032 7464.8588 3439.8293 7026.669 3533.0723 6604.5684 L 3533.0723 6604.5586 C 3571.6452 6429.9648 3610.1759 6250.6837 3649.0957 6070.1426 L 3731.6289 6457.9043 C 3756.1806 6575.9354 3788.9943 6804.1432 3848.0625 7030.5664 C 3907.1664 7257.1267 3960.6413 7506.5142 4220.502 7685.2695 C 4360.123 7781.3102 4517.1019 7839.9555 4675.0293 7839.8613 C 4832.9566 7839.7673 4975.1626 7779.6868 5080 7705.6523 C 5289.4393 7557.7495 5396.8082 7365.6499 5483.6875 7234.1777 L 5833.0117 6714.4766 L 5833.1934 6714.2051 C 5956.4148 6530.4898 6078.9518 6346.7389 6201.2852 6163.1328 C 6072.52 6692.7663 5943.8294 7223.6916 5822.793 7758.0039 L 6143.1543 8158.9277 L 6903.9551 8158.6973 L 6903.9824 8158.6973 C 7105.9916 8158.6193 7290.3767 8154.0721 7447.4453 8174.9785 L 7811.6543 7919.2227 C 7844.6329 7767.5054 7887.3913 7609.2872 7927.375 7440.8906 L 7926.625 7443.9863 L 8941.0527 3348.6758 L 8940.6074 3350.4531 C 9012.5826 3066.6763 9072.1397 2789.578 9145.502 2529.2598 L 9145.207 2530.3008 C 9170.6345 2441.2005 9197.2034 2344.2859 9217.5859 2240.9062 L 8895.418 1849.0156 L 7235.8223 1849.0156 z M 7404.4531 2505.7676 L 8471.6426 2505.7676 C 8410.5817 2739.6625 8359.727 2969.358 8304.0195 3188.9961 L 8303.5742 3190.7734 L 7289.1445 7286.084 L 7288.3945 7289.1777 C 7271.9153 7358.5822 7253.9363 7429.694 7235.7871 7502.3164 C 7118.4114 7499.5208 7007.0768 7501.9114 6903.7344 7501.9512 L 6555.6797 7502.0566 C 6784.2401 6523.6756 7034.8356 5544.4996 7259.4375 4551.8477 L 6668.7676 4293.0488 C 6198.1976 4975.9034 5745.6552 5665.7048 5287.7715 6348.3809 L 4937.543 6869.4277 L 4936.1562 6871.5098 C 4844.7127 7009.8185 4749.2038 7135.2618 4701.1602 7169.1895 C 4677.1383 7186.1533 4676.7789 7183.114 4674.6445 7183.1152 C 4672.5104 7183.1152 4651.9345 7184.9097 4592.7266 7144.1855 C 4624.1332 7165.7707 4529.6902 7041.6661 4483.5469 6864.7871 C 4437.3961 6687.8794 4407.6495 6482.8215 4374.5527 6323.8262 L 4374.25 6322.3848 L 4037.1582 4738.6445 C 4022.2342 4666.8988 4008.4981 4580.5647 3985.0234 4483.2891 L 3349.0781 4473.6562 C 3174.0101 5113.4664 3031.9478 5828.4565 2891.7832 6462.8887 L 2891.7832 6462.8984 C 2814.7952 6811.4139 2745.7375 7157.2195 2665.1465 7491.9531 C 2429.8426 7492.8466 2193.0165 7491.5595 1955.0391 7490.6289 C 1990.2402 7370.7419 2027.0593 7245.7866 2059.3867 7116.2656 L 2058.666 7119.0977 L 2211.7168 6528.3145 C 2240.4883 6420.5166 2276.103 6304.3902 2307.8027 6177.166 C 2338.9135 6084.3596 2359.3285 6000.2975 2378.8359 5928.6035 C 2434.8692 5760.3829 2469.4883 5600.556 2507.4785 5464.8438 L 2510.4473 5453.4531 L 3220.0176 2517.0059 L 3594.4941 2517.3809 L 3594.7188 2517.3809 C 3788.7151 2517.4439 3978.9111 2513.3543 4163.3672 2513.4629 L 4658.3906 4789.291 L 4659.2578 4793.168 C 4692.6862 4938.3697 4725.4282 5070.6874 4744.1191 5193.3809 L 5138.416 5464.8281 C 5287.5961 5432.4421 5428.195 5340.0516 5505.1914 5247.8848 C 5582.1877 5155.718 5611.3105 5088.3347 5643.1016 5040.8184 L 5643.1191 5040.793 C 5682.8371 4981.4168 5923.1809 4624.8546 6157.6055 4283.5371 C 6274.8178 4112.8783 6391.1286 3945.1976 6480.0059 3820.4121 C 6524.4446 3758.0193 6562.3098 3706.029 6587.9258 3672.293 C 6600.7338 3655.425 6610.8429 3642.799 6614.1348 3638.8867 C 6615.7808 3636.9305 6616.0087 3636.9979 6610.6777 3642.4941 C 6605.3467 3647.9902 6607.465 3656.4694 6547.002 3691.4453 L 6666.502 3572.1777 C 6758.7081 3413.4909 6921.7618 3198.3919 7056.0391 3003.5996 L 7054.832 3005.3379 L 7362.0762 2565.7148 L 7371.127 2552.0508 C 7349.0114 2587.3213 7374.7365 2547.3106 7397.3555 2515.6738 C 7398.8804 2513.5409 7402.8226 2508.0513 7404.4551 2505.7695 L 7404.4531 2505.7676 z "
     d="m 7235.8223,1619.8594 a 229.17976,229.17976 0 0 0 -104.6641,25.2969 l -266.8457,137.0019 a 229.17976,229.17976 0 0 0 -81.5547,70.3086 c -48.2142,67.228 -82.5066,115.0056 -106.0683,147.9609 -16.345,22.8614 -25.0958,32.9353 -45.8438,65.0664 l -302.1621,432.3516 a 229.17976,229.17976 0 0 0 -0.3984,0.5723 l -1.2071,1.7383 a 229.17976,229.17976 0 0 0 -0.4433,0.6406 c -103.6032,150.2942 -260.6747,353.7619 -393.0274,570.9824 -18.2065,21.7933 -34.5819,42.8242 -51.248,64.7734 h 0 c -35.6484,46.9486 -76.7589,103.6589 -123.9472,169.9121 -94.4773,132.648 -212.3673,302.6875 -331.0684,475.5137 -21.778,31.7084 -40.705,59.5828 -61.7812,90.3653 L 4973.6406,2070.5039 a 229.17976,229.17976 0 0 0 -77.1543,-127.2832 l -309.8418,-258.3965 a 229.17976,229.17976 0 0 0 -139.0683,-53.039 c -301.4466,-10.1328 -588.2514,-0.238 -852.1953,-0.3145 l -401.8008,-0.4023 c -57.6892,-0.2899 -150.5628,-5.2848 -264.2461,1.2773 a 229.17976,229.17976 0 0 0 -133.6621,52.8691 l -300.2676,250.6993 a 229.17976,229.17976 0 0 0 -75.8789,122.082 l -768.2891,3179.4473 c -46.4087,167.1295 -80.3645,315.5925 -115.5293,419.4082 a 229.17976,229.17976 0 0 0 -2.0761,6.4414 l -5.6758,18.541 a 229.17976,229.17976 0 0 0 -1.8848,6.4961 c -25.3863,92.6138 -44.9829,169.2114 -60.8105,215.125 a 229.17976,229.17976 0 0 0 -3.1895,9.9883 l -8.4805,28.8164 a 229.17976,229.17976 0 0 0 -2.7285,10.1211 c -24.2349,98.8329 -59.7895,215.1263 -95.2636,348.1054 a 229.17976,229.17976 0 0 0 -0.2071,0.7813 l -0.6015,2.2871 a 229.17976,229.17976 0 0 0 -0.2129,0.8164 l -153.5098,592.5527 a 229.17976,229.17976 0 0 0 -0.2715,1.0586 l -0.7187,2.8301 a 229.17976,229.17976 0 0 0 -0.2305,0.916 c -55.44,222.1229 -151.8184,493.4172 -217.5039,799.8399 a 229.17976,229.17976 0 0 0 46.0527,192.3359 l 321.9844,397.2012 a 229.17976,229.17976 0 0 0 178.6445,84.8515 c 457.7619,-1.26 924.7179,5.8522 1399.3008,-0.041 a 229.17976,229.17976 0 0 0 137.9746,-48.3555 l 313.2891,-244.0332 a 229.17976,229.17976 0 0 0 80.6543,-121.9433 c 71.3683,-268.6292 130.5258,-534.9139 186.4336,-795.3262 57.4044,216.2108 150.8765,506.2084 443.9531,707.8125 a 229.17976,229.17976 0 0 0 0,0 c 169.8115,116.8078 369.7868,195.0734 584.5351,194.9453 215.9642,-0.1286 400.1438,-79.5156 537.0235,-176.1778 255.4629,-180.4039 384.309,-413.6546 462.4785,-532.0078 l 6.5547,-9.7539 c -27.6027,118.5732 -54.9698,237.3109 -81.9239,356.2989 a 229.17976,229.17976 0 0 0 44.4707,193.6777 l 320.3614,400.9238 a 229.17976,229.17976 0 0 0 179.0937,86.1055 l 760.7578,-0.2305 a 229.17976,229.17976 0 0 0 0.088,0 c 205.394,-0.079 383.6302,-2.959 513.1406,14.2793 a 229.17976,229.17976 0 0 0 161.9278,-39.6172 l 364.209,-255.7558 a 229.17976,229.17976 0 0 0 92.2343,-138.8614 c 30.944,-142.3571 72.8519,-298.1671 113.4668,-468.7871 a 229.17976,229.17976 0 0 0 0.01,-0.027 L 9163.4863,3403.7734 a 229.17976,229.17976 0 0 0 0,-0.025 c 72.9524,-287.9201 132.1967,-562.5939 202.5762,-812.3281 a 229.17976,229.17976 0 0 0 0.01,-0.031 c 25.7684,-90.3406 54.0496,-193.0889 76.3418,-306.1543 a 229.17976,229.17976 0 0 0 -47.8106,-189.8535 l -322.168,-391.8907 a 229.17976,229.17976 0 0 0 -177.0175,-83.6308 z m 287.5722,1115.0644 h 655.1309 c -32.974,136.9395 -64.3138,270.3256 -96.6289,397.7344 a 229.17976,229.17976 0 0 0 -0.1621,0.6445 l -0.4453,1.7774 a 229.17976,229.17976 0 0 0 -0.1485,0.5957 L 7066.7109,7230.9863 a 229.17976,229.17976 0 0 0 -0.2714,1.1074 l -0.75,3.0938 a 229.17976,229.17976 0 0 0 -0.254,1.0508 c -2.7617,11.6313 -5.8356,23.871 -8.6992,35.6875 -53.8207,0.2742 -105.2435,0.8507 -153.0898,0.8691 l -58.3731,0.018 c 209.5092,-882.3864 433.809,-1769.3986 637.6719,-2670.3926 a 229.17976,229.17976 0 0 0 -131.543,-260.4668 l -590.6699,-258.7988 a 229.17976,229.17976 0 0 0 -186.7422,1.6914 c 32.9781,-47.1082 64.6434,-92.1451 92.668,-131.4922 43.6512,-61.2871 80.9585,-112.4328 103.7754,-142.4824 10.9942,-14.4793 23.3293,-29.5372 19.0449,-24.4453 -1.6831,2.0003 -2.5102,3.0373 -6.3808,7.2129 -0.9677,1.0439 -1.8737,2.0615 -5.1094,5.3301 -1.6179,1.6342 -2.9554,3.2081 -10.041,9.5468 -3.5429,3.1694 -5.6473,6.3888 -24.7364,19.25 -4.762,3.2084 -20.9268,12.5285 -20.9961,12.5684 l 106.168,-105.961 a 229.17976,229.17976 0 0 0 36.2559,-47.0664 c 78.0554,-134.3334 239.7057,-350.2325 377.9941,-550.6601 a 229.17976,229.17976 0 0 0 0.031,-0.037 z m -3544.4746,8.7266 455.5488,2094.3457 a 229.17976,229.17976 0 0 0 0.2911,1.3164 l 0.8672,3.877 a 229.17976,229.17976 0 0 0 0.3164,1.3906 c 33.9394,147.4213 65.2483,275.7591 81.6328,383.3125 a 229.17976,229.17976 0 0 0 96.5996,154.2402 l 394.2969,271.4473 a 229.17976,229.17976 0 0 0 178.5585,35.1894 c 155.3381,-33.7228 288.7975,-102.9798 395.0333,-193.9277 -161.6615,242.6418 -322.9929,484.9382 -484.6055,725.8926 l -350.1016,520.8574 a 229.17976,229.17976 0 0 0 -0.5371,0.8027 l -1.3867,2.0821 a 229.17976,229.17976 0 0 0 -0.4316,0.6504 c -13.4475,20.3393 -26.9205,40.1093 -40.295,59.455 -40.9927,-157.9714 -70.4526,-357.6181 -105.8066,-527.457 a 229.17976,229.17976 0 0 0 -0.082,-0.3945 l -0.3028,-1.4414 a 229.17976,229.17976 0 0 0 -0.1289,-0.6114 l -336.9258,-1582.957 c -13.1563,-63.2998 -27.7614,-154.8045 -53.6757,-262.1895 a 229.17976,229.17976 0 0 0 -219.2911,-175.373 l -635.9453,-9.6328 a 229.17976,229.17976 0 0 0 -224.5019,168.6504 c -178.209,651.2893 -320.6485,1369.4103 -460.0254,2000.2773 a 229.17976,229.17976 0 0 0 -0.01,0.062 c -63.9747,289.6085 -122.0613,574.3397 -184.7793,849.5742 -74.7428,-0.019 -149.9011,-0.2285 -225.0879,-0.4746 7.5541,-28.2801 15.0104,-56.8567 22.2735,-85.832 a 229.17976,229.17976 0 0 0 0.082,-0.2168 l 152.7344,-589.5644 c 26.6113,-99.6605 61.9074,-215.1837 94.7949,-346.0704 32.3896,-98.0153 53.3149,-183.3692 70.8027,-247.9726 59.2111,-179.4522 94.7017,-342.6739 129.3203,-466.3418 a 229.17976,229.17976 0 0 0 1.0743,-3.9785 l 2.9687,-11.3907 a 229.17976,229.17976 0 0 0 0.9981,-3.9707 l 667.1582,-2760.9335 193.9121,0.1933 a 229.17976,229.17976 0 0 0 0.2304,0 h 0.1504 c 131.5278,0.043 259.6262,-1.7116 384.2754,-2.8867 z m 2455.9024,752.7773 269.1269,350.7832 c -15.9956,6.014 -35.7716,13.4493 -35.7715,13.4493 2e-4,-10e-5 -174.9258,-28.9083 -174.9257,-28.9082 0,0 -107.2383,-193.3225 -107.2383,-193.3223 0,10e-5 12.8438,-76.3557 12.8437,-76.3555 -1e-4,3e-4 8.6988,-21.5978 11.7754,-27.6875 6.1532,-12.1794 9.6294,-17.2858 12.3457,-21.4687 5.4327,-8.3658 7.7177,-11.1812 9.6055,-13.67 1.3414,-1.7684 1.4098,-1.7724 2.2383,-2.8203 z"
     transform="translate(-540.18566,15.121239)" />
  <path
     id="path3"
     style="color:#000000;fill:#333333;fill-opacity:1;stroke-linejoin:bevel;-inkscape-stroke:none;paint-order:stroke markers fill"
     sodipodi:type="inkscape:offset"
     inkscape:radius="0"
     inkscape:original="M 7235.8223 2177.3926 C 7139.2757 2312.0137 7098.4222 2368.8221 7092.916 2377.6035 L 6785.6719 2817.2266 C 6659.1344 3000.791 6492.3669 3218.246 6382.5742 3407.1992 C 6326.373 3439.7097 5454.5004 4732.1543 5370.1758 4858.2148 C 5279.159 4994.2521 5249.6805 5104.6466 5068.748 5143.9258 C 5046.94 5000.7705 5011.723 4860.4947 4979.2617 4719.4941 L 4428.8457 2189.0039 C 4152.1822 2179.7042 3871.9093 2189.0939 3594.8223 2189.0039 L 3191.0977 2188.5977 C 3114.5689 2188.2254 3037.8872 2184.5397 2961.4609 2188.9512 L 2191.2559 5376.3203 C 2148.7681 5528.0995 2114.1771 5686.8969 2063.7676 5835.7188 C 2040.9832 5918.8405 2020.4268 6003.7162 1992.3516 6085.1582 C 1962.7987 6205.6785 1926.2753 6324.2943 1894.291 6444.1914 L 1740.7832 7036.7441 C 1675.985 7296.3606 1582.9865 7559.5378 1527.4902 7818.4277 C 1991.9526 7817.1492 2457.0404 7824.1934 2921.4023 7818.4277 C 3033.8769 7395.0752 3117.9499 6961.4183 3212.4277 6533.7285 C 3353.6796 5894.375 3495.3054 5183.4565 3665.8105 4560.3223 C 3685.3369 4641.2368 3698.7467 4724.2592 3715.7188 4805.8008 L 4053.0684 6390.7461 C 4110.7218 6667.7106 4178.201 7257.607 4406.6094 7414.7266 C 4804.2935 7688.2803 5031.7016 7322.4057 5210.0762 7052.6133 L 5560.4844 6531.2949 C 6019.6067 5846.7722 6471.4107 5158.1398 6939.1582 4479.3809 C 6685.4051 5600.8695 6396.5117 6711.7037 6143.0605 7830.5586 L 6903.8613 7830.3262 C 7098.6309 7830.2512 7297.362 7823.7342 7490.7773 7849.4785 C 7526.0958 7686.9965 7569.4857 7526.7681 7607.8867 7365.0371 L 8622.3164 3269.7266 C 8692.2774 2993.8912 8752.2879 2713.9713 8829.4434 2440.1934 C 8854.0589 2353.9384 8878.071 2265.3763 8895.418 2177.3926 L 7235.8223 2177.3926 z "
     d="m 7235.8223,2177.3926 c -96.5466,134.6211 -137.4001,191.4295 -142.9063,200.2109 l -307.2441,439.6231 c -126.5375,183.5644 -293.305,401.0194 -403.0977,589.9726 -56.2012,32.5105 -928.0738,1324.9551 -1012.3984,1451.0156 -91.0168,136.0373 -120.4953,246.4318 -301.4278,285.711 -21.808,-143.1553 -57.025,-283.4311 -89.4863,-424.4317 l -550.416,-2530.4902 c -276.6635,-9.2997 -556.9364,0.09 -834.0234,0 l -403.7246,-0.4062 c -76.5288,-0.3723 -153.2105,-4.058 -229.6368,0.3535 l -770.205,3187.3691 c -42.4878,151.7792 -77.0788,310.5766 -127.4883,459.3985 -22.7844,83.1217 -43.3408,167.9974 -71.416,249.4394 -29.5529,120.5203 -66.0763,239.1361 -98.0606,359.0332 l -153.5078,592.5527 c -64.7982,259.6165 -157.7967,522.7937 -213.293,781.6836 464.4624,-1.2785 929.5502,5.7657 1393.9121,0 112.4746,-423.3525 196.5476,-857.0094 291.0254,-1284.6992 141.2519,-639.3535 282.8777,-1350.272 453.3828,-1973.4062 19.5264,80.9145 32.9362,163.9369 49.9083,245.4785 l 337.3496,1584.9453 c 57.6534,276.9645 125.1326,866.8609 353.541,1023.9805 397.6841,273.5537 625.0922,-92.3209 803.4668,-362.1133 l 350.4082,-521.3184 c 459.1223,-684.5227 910.9263,-1373.1551 1378.6738,-2051.914 -253.7531,1121.4886 -542.6465,2232.3228 -796.0977,3351.1777 l 760.8008,-0.2324 c 194.7696,-0.075 393.5007,-6.592 586.916,19.1523 35.3185,-162.482 78.7084,-322.7104 117.1094,-484.4414 L 8622.3164,3269.7266 c 69.961,-275.8354 129.9715,-555.7553 207.127,-829.5332 24.6155,-86.255 48.6276,-174.8171 65.9746,-262.8008 z"
     transform="translate(-540.18566,15.121239)" />
</svg>
