<?xml version="1.0" encoding="UTF-8" standalone="no"?>
<svg
   width="1000"
   height="1000"
   viewBox="0 0 1000 1000"
   version="1.1"
   id="svg27"
   sodipodi:docname="favicon-square.svg"
   inkscape:version="1.3.2 (091e20e, 2023-11-25)"
   inkscape:export-filename="favicon-square.png"
   inkscape:export-xdpi="300"
   inkscape:export-ydpi="300"
   xmlns:inkscape="http://www.inkscape.org/namespaces/inkscape"
   xmlns:sodipodi="http://sodipodi.sourceforge.net/DTD/sodipodi-0.dtd"
   xmlns="http://www.w3.org/2000/svg"
   xmlns:svg="http://www.w3.org/2000/svg">
  <sodipodi:namedview
     id="namedview27"
     pagecolor="#ffffff"
     bordercolor="#000000"
     borderopacity="0.25"
     inkscape:showpageshadow="2"
     inkscape:pageopacity="0.0"
     inkscape:pagecheckerboard="0"
     inkscape:deskcolor="#d1d1d1"
     inkscape:zoom="0.51669394"
     inkscape:cx="361.91638"
     inkscape:cy="466.42699"
     inkscape:window-width="1728"
     inkscape:window-height="965"
     inkscape:window-x="0"
     inkscape:window-y="38"
     inkscape:window-maximized="0"
     inkscape:current-layer="svg27" />
  <defs
     id="defs2">
    <linearGradient
       id="gradient_0"
       gradientUnits="userSpaceOnUse"
       x1="433.54166"
       y1="349.55374"
       x2="59.169716"
       y2="206.72916"
       gradientTransform="matrix(2.2,0,0,2.2,-64.484745,-59.711863)">
      <stop
         offset="0"
         stop-color="#003582"
         id="stop1" />
      <stop
         offset="1"
         stop-color="#044EA8"
         id="stop2" />
    </linearGradient>
  </defs>
  <rect
     style="fill:#ffffff;fill-opacity:1;stroke-width:22;stroke-linecap:round;stroke-linejoin:bevel;paint-order:markers fill stroke"
     id="rect27"
     width="1100"
     height="1100"
     x="-50.1661"
     y="-50.1661" />
  <path
     style="fill:#0e93ff;fill-opacity:1;stroke:#ffffff;stroke-width:44;stroke-linecap:round;stroke-linejoin:bevel;stroke-dasharray:none;paint-order:markers fill stroke"
     d="M 503.48814,954.71803 106.20172,742.94128 -45.393219,813.68813 V 1079.8881 H 1052.3695 V 813.68813 L 880.78459,742.94128 Z"
     id="path28"
     sodipodi:nodetypes="cccccccc" />
  <path
     style="fill:#7cd4ff;fill-opacity:0.629179;stroke:#ffffff;stroke-width:44;stroke-linecap:round;stroke-linejoin:bevel;stroke-dasharray:none;paint-order:markers fill stroke"
     d="M 501.63017,41.983881 116.50547,249.64575 -49.047483,189.63387 V -76.5661 H 1048.7153 v 266.19997 l -162.50876,60.01188 z"
     id="path28-4"
     sodipodi:nodetypes="cccccccc" />
  <path
     fill="url(#gradient_0)"
     d="m 462.30085,232.30513 c -19.0014,-56.947 85.437,-67.4124 73.5328,0 20.5612,10.0452 44.44,23.804 63.9936,35.4882 2.1824,-2.0614 4.433,-4.2526 6.7474,-6.171 24.64,-20.3852 63.7978,0.6666 59.9654,32.9384 18.1104,7.4734 75.2796,38.4538 88.7568,48.5232 5.3416,-2.882 12.8238,-7.9376 19.096,-11.4048 l 83.93,-46.431 c 6.776,-2.5806 16.2646,-10.3928 24.9106,-12.804 9.3698,10.978 5.8014,29.8474 5.8036,44.3454 v 159.7706 c -0.004,18.8518 8.4194,61.2392 -15.9038,60.1128 8.283,11.352 0.2266,16.6298 2.1824,23.232 19.943,0.5456 13.3826,22.2376 13.7632,37.4814 0.1056,8.2324 -7.8276,14.7026 -15.9456,13.431 l 0.3102,1.463 2.0262,1.265 c 0.781,4.8026 -0.5918,18.238 -0.154,19.8726 17.6902,2.1098 13.805,19.6196 13.7632,33.3388 l -0.143,37.686 c -0.007,1.7072 -0.132,10.4742 0.0946,11.8206 -3.8434,9.8824 -14.1944,13.376 -23.0516,18.5042 l -237.039,134.4244 -98.857,54.2102 c -15.2108,8.4964 -27.2646,19.6196 -44.693,9.9264 l -321.4772,-179.0888 c -51.82386,-28.776 -56.80554,-15.0854 -56.77672,-73.6648 l 0.015,-66.1584 c -0.45606,-7.6186 -0.0147,-21.34 -0.009,-29.4272 l -0.004,-222.5608 c -0.01,-21.3378 -8.708916,-81.301 10.32944,-89.9844 2.1483,1.727 18.35438,9.405 23.62866,12.804 12.31296,7.2688 24.8809,13.7434 37.3725,20.6844 l 65.5776,37.1514 c 27.6782,-13.6048 59.5958,-32.8834 86.5656,-48.5232 2.2946,-37.4264 40.7572,-54.7096 66.1892,-26.7674 17.7628,-10.142 46.904,-28.6374 65.5006,-35.4882 z m -83.2876,431.3298 c -19.3468,5.2558 -43.923,1.507 -51.5834,-19.8792 -21.6722,-0.1364 -44.7062,2.563 -66.9174,2.629 -2.1692,7.2534 -3.0976,9.1652 -7.4404,15.2306 18.7902,8.965 36.674,19.8616 54.9516,29.931 l 136.6728,74.7208 c 4.9632,2.7236 12.4652,7.0158 17.6044,9.185 -6.4218,-11.0748 -11.6094,-17.314 -19.195,-27.467 l -31.2752,-41.074 c -10.7338,-14.003 -21.3092,-30.0014 -32.8174,-43.2762 z m 240.6558,1.9558 c -25.157,33.6292 -58.9072,70.9874 -80.7268,106.04 2.0592,-0.3344 35.1604,-19.8418 39.7672,-22.3872 l 142.3466,-79.3936 c 3.3396,-1.8612 12.0648,-6.2744 14.5816,-8.2346 l -4.2218,-10.439 c -21.4236,-0.3256 -43.4808,-0.9504 -64.8758,0 -15.1998,15.422 -24.9898,20.009 -46.871,14.4144 z m -360.8572,-41.9408 c 18.5966,0.352 45.2364,-3.4738 62.887,-2.5608 1.793,-6.3602 2.6884,-8.7604 5.731,-14.6542 -9.3962,-14.762 -25.388,-34.5356 -36.1856,-49.39 l -27.5198,-37.6618 c -4.5694,-6.1248 -10.2322,-14.2208 -15.2768,-19.701 -0.5962,32.8108 3.3528,80.0206 0,111.1352 4.114,4.015 7.0862,8.1202 10.3642,12.8326 z m 512.7078,-194.3986 c 1.9844,0.4664 4.2174,0.9306 6.1446,1.5136 l 0.5346,-1.111 c -1.0142,-3.0338 -2.7214,-9.3654 -5.3306,-10.9714 l -1.3486,0.6864 z m 94.1116,-119.8626 c -5.467,1.7754 -9.0244,3.7466 -14.0712,6.3712 2.0856,2.5432 12.5708,6.2876 14.0712,2.079 -0.132,-3.1988 -0.1452,-5.2272 0,-8.4502 z m -476.8918,116.2788 c 32.5072,19.4172 76.4434,47.5882 110.5236,63.2082 7.722,-4.7696 19.7758,-12.0296 27.8014,-16.0424 22.6358,-15.334 59.5738,-35.0284 83.6198,-47.1658 -27.6298,-12.2012 -56.2034,-31.4028 -83.6198,-45.3442 -19.47,17.2414 -37.8774,17.3888 -57.4508,0 -24.9766,14.7576 -54.978,32.12 -80.8742,45.3442 z m 8.0608,222.673 c 25.256,36.8984 55.3608,72.8442 81.829,109.4434 l 3.487,4.6156 c 2.1098,-0.8646 3.1262,-1.3288 5.324,-1.8216 0.6556,-6.3514 0.077,-14.5266 0.0286,-21.1376 l 0.009,-83.743 c 0.011,-5.7068 0.418,-17.0918 -0.0374,-22.2794 -20.5612,-9.713 -29.4184,-21.9494 -27.6474,-44.8052 -7.0422,-4.5342 -74.3886,-45.9338 -78.661,-45.1484 -2.9018,1.2386 -6.3404,2.442 -8.723,4.3912 -0.6336,10.2564 0.022,27.8256 0,38.7332 21.8922,5.7156 35.541,26.477 29.7506,48.8774 -1.1022,4.2658 -3.861,8.745 -5.3592,12.8744 z m 113.5376,-14.9226 0.007,85.5602 c 0.002,11 0.7194,31.5128 -0.007,41.5998 l 6.8816,1.8216 c 1.8018,-2.97 3.476,-5.8696 5.5836,-8.635 l 67.628,-87.2828 c 3.2692,-4.1536 8.1708,-9.8978 10.9802,-14.1394 -20.8164,-25.2758 -7.491,-58.6322 24.4068,-63.7296 0.1474,-7.7594 0.7942,-32.0826 0,-38.3526 -2.013,-1.3134 -9.2708,-6.4658 -10.8218,-6.7958 -22.253,13.7786 -53.548,34.3002 -77.2332,45.1484 1.0846,22.5302 -6.4548,35.7808 -27.4252,44.8052 z m 89.4894,-315.579 c -15.9764,6.4218 -47.3022,24.6466 -62.0642,33.8734 0.0792,3.1812 0.165,6.0192 0,9.2048 22.9328,10.659 51.3634,27.1546 72.9212,40.0158 7.4866,4.235 15.0766,8.6328 22.6468,12.6852 l 61.9674,-34.9536 c 11.1474,-6.2942 27.7926,-16.2844 38.8696,-21.4742 -23.606,-15.7102 -51.4294,-26.5276 -73.3524,-41.4304 -16.4824,19.6966 -43.2982,24.1428 -60.9884,2.079 z m -335.3196,39.3514 c 8.8638,8.0124 86.933,48.9808 101.4486,56.4278 7.7132,-5.4428 14.3132,-8.7076 22.7832,-12.6852 7.0114,-4.807 16.6144,-9.8472 24.1714,-14.1108 l 46.882,-25.905 c -0.88,-3.7994 -1.034,-5.423 0,-9.2048 -19.8968,-11.8316 -40.755,-23.0186 -61.226,-33.8734 -17.0544,19.6878 -46.0724,19.965 -60.6914,-2.079 -21.4038,12.1902 -53.9484,28.0192 -73.3678,41.4304 z m 85.3886,113.564 c 0.1386,-13.4376 -0.0484,-26.6112 0,-39.9894 l -71.0072,-39.413 c -7.3524,-4.015 -23.5378,-13.7258 -30.4414,-15.5848 -0.429,2.2616 -0.4862,35.0196 0,37.851 20.2884,4.4902 29.1104,23.6324 29.2116,42.8164 16.555,8.4524 32.6766,18.315 49.7706,27.1084 4.4682,-4.983 6.2546,-6.7122 12.859,-8.6306 2.7082,-1.2782 6.8596,-3.3946 9.6074,-4.158 z m -119.2928,178.8534 c 6.2612,-2.343 9.4864,-9.2752 7.2402,-15.5738 -2.2462,-6.2964 -9.13,-9.625 -15.4594,-7.4756 -4.1822,1.419 -7.2754,4.983 -8.0916,9.3214 -0.8184,4.3406 0.7678,8.7846 4.147,11.6292 3.3792,2.8424 8.0278,3.6454 12.1638,2.0988 z m 176.4268,-362.0364 v 9.9858 c 7.3238,2.9876 25.6256,13.7456 32.945,18.2028 8.7164,4.0744 17.952,8.9342 26.0436,14.1372 5.3768,-7.9508 12.0956,-13.4002 21.4214,-16.1854 -0.7788,-13.904 0.0176,-36.619 0,-51.1236 -7.1764,-2.0944 -16.1238,-9.7262 -17.8266,-9.911 -18.9926,11.572 -45.5026,22.8844 -62.5834,34.8942 z m 103.3076,26.1404 c 9.9594,3.7114 13.684,8.2038 20.5898,16.1854 6.1336,-4.3428 21.5248,-12.012 28.9146,-16.1854 7.7968,-4.5848 22.7238,-13.0328 31.1124,-16.1546 -0.3388,-3.9028 -0.22,-6.0478 0,-9.9858 -14.7994,-7.0774 -51.4338,-25.3352 -63.8902,-34.8942 -5.4208,3.6608 -10.6524,7.403 -16.7266,9.911 z m 138.523,277.6598 c 7.3964,-7.3634 13.6444,-16.1964 20.0266,-24.5278 l 49.6738,-64.5436 c 2.2286,-2.8688 8.228,-9.9946 9.3896,-12.6852 l -0.2288,-0.7744 c -0.528,-0.009 -1.1396,-0.066 -1.6258,0.0352 -13.9348,4.4154 -28.6154,9.6976 -42.7064,14.3682 3.1526,26.565 -9.4996,42.1256 -34.529,48.961 0.0242,11.6468 0.2684,27.093 -0.7084,38.4912 0.5786,0.6842 0.2684,0.583 0.7084,0.6754 z m -179.2472,-22.9042 c 2.904,-3.4496 5.17,-6.0632 9.0156,-8.5624 3.3616,-2.0438 5.2448,-3.1042 8.811,-4.7234 -0.7084,-9.559 -1.012,-38.1458 0,-47.3176 -30.6658,-15.4616 -60.137,-35.1428 -90.442,-51.3722 -7.2666,-3.8918 -17.1292,-11.7348 -24.5894,-14.0646 v 32.4852 c 18.8254,11.605 28.8596,26.928 22.3938,49.5044 23.9052,12.3266 52.316,29.6516 74.811,44.0506 z m -125.2152,20.1454 c 10.1596,-3.4408 5.5242,-26.7212 5.4978,-38.3526 -25.2142,-7.6604 -33.737,-21.7294 -33.2376,-47.0162 -16.0666,-8.4414 -31.5832,-17.1138 -47.5112,-25.7026 -1.5708,1.9888 -3.1548,3.9512 -4.6398,6.0016 9.064,11.0946 79.1648,105.5032 79.112,105.4746 z m 404.0146,-85.3688 c -21.0738,17.6286 -62.9046,80.366 -81.873,104.3416 3.4694,8.2874 4.2152,10.307 5.5506,19.0674 l 0.1518,1.5488 c 2.0768,0.9878 54.3202,0.066 61.9256,0.3102 3.5376,-8.1488 7.7792,-11.6468 14.245,-17.6946 l 0.009,-83.0808 c 0.002,-3.3968 0.6248,-23.2628 -0.009,-24.4926 z m -87.5974,-28.3316 c 4.4594,2.5696 7.436,5.2294 11.275,8.6306 14.399,-6.402 31.5128,-12.2518 46.6378,-16.8344 0.009,-18.1786 9.7812,-36.2428 29.6846,-37.4572 -0.007,-4.29 0.8426,-52.701 0.506,-53.5524 l -0.506,0.0682 c -29.6692,12.4718 -71.3702,38.2668 -99.5522,54.9978 v 39.9894 c 4.3868,0.9724 7.942,2.024 11.9548,4.158 z m -34.9976,-32.4852 c -18.8892,9.0178 -41.206,23.1792 -59.9258,33.748 l -36.6212,20.8142 c -6.0544,3.4188 -13.376,7.018 -18.9332,10.8746 v 49.0446 c 3.5728,1.5158 9.2114,3.7158 12.4652,5.5132 1.188,1.7622 2.9282,4.4352 4.2614,6.0456 23.3332,-11.8734 55.4576,-29.0356 76.967,-44.0506 -7.843,-21.1486 1.738,-42.0486 21.7866,-51.5834 0.007,-2.9458 0.2926,-30.0872 0,-30.4062 z"
     id="path2"
     style="fill:url(#gradient_0);stroke-width:2.2" />
  <path
     fill="#d1eaf8"
     d="m 883.23345,272.44413 c 9.3698,10.978 5.8014,29.8474 5.8036,44.3454 v 159.7706 c -0.004,18.8518 8.4194,61.2392 -15.9038,60.1128 8.283,11.352 0.2266,16.6298 2.1824,23.232 19.943,0.5456 13.3826,22.2376 13.7632,37.4814 0.1056,8.2324 -7.8276,14.7026 -15.9456,13.431 l 0.3102,1.463 2.0262,1.265 c 0.781,4.8026 -0.5918,18.238 -0.154,19.8726 17.6902,2.1098 13.805,19.6196 13.7632,33.3388 l -0.143,37.686 c -0.007,1.7072 -0.132,10.4742 0.0946,11.8206 -2.2616,-2.31 -19.6262,-14.3638 -22.792,-15.2416 l -0.6072,0.9284 v -1.7842 c -13.2638,-7.1346 -49.7904,-25.465 -60.6232,-34.5752 l -5.2624,-1.9558 c 0.7634,-1.903 3.9974,-6.5472 5.2624,-8.4568 -4.3626,-22.77 2.7676,-42.2972 -34.5488,-48.7432 v -104.8718 c 33.99,-9.064 36.7334,-48.873 7.205,-70.7982 l 0.5346,-1.111 c -1.0142,-3.0338 -2.7214,-9.3654 -5.3306,-10.9714 l -1.3486,0.6864 v -48.774 c -0.1716,-2.3628 -0.007,-7.1346 0,-9.6778 -1.1594,-14.1284 -6.1446,-12.265 -16.2228,-17.8332 5.3416,-2.882 12.8238,-7.9376 19.096,-11.4048 l 83.93,-46.431 c 6.776,-2.5806 16.2646,-10.3928 24.9106,-12.804 z m -17.6022,36.9446 c -5.467,1.7754 -9.0244,3.7466 -14.0712,6.3712 z"
     id="path3"
     style="stroke-width:2.2"
     sodipodi:nodetypes="cccccccccccccccccccccccccccccccccc" />
  <path
     fill="#0d68c7"
     d="m 883.23345,272.44413 c 9.3698,10.978 5.8014,29.8474 5.8036,44.3454 v 159.7706 c -0.004,18.8518 8.4194,61.2392 -15.9038,60.1128 -11.7106,-15.0568 -7.557,-21.4148 -7.5262,-41.899 l 0.0308,-133.6324 c -0.007,-14.2318 -0.297,-29.1478 -0.007,-43.3026 -0.132,-3.1988 -0.1452,-5.2272 0,-8.4502 -5.467,1.7754 -9.0244,3.7466 -14.0712,6.3712 -7.909,4.631 -74.9518,41.9452 -75.9242,43.2674 l -4.1162,1.8898 c -1.1594,-14.1284 -6.1446,-12.265 -16.2228,-17.8332 5.3416,-2.882 12.8238,-7.9376 19.096,-11.4048 l 83.93,-46.431 c 6.776,-2.5806 16.2646,-10.3928 24.9106,-12.804 z"
     id="path4"
     style="stroke-width:2.2" />
  <path
     fill="#0d68c7"
     d="m 875.31565,633.41793 c 17.6902,2.1098 13.805,19.6196 13.7632,33.3388 l -0.143,37.686 c -0.007,1.7072 -0.132,10.4742 0.0946,11.8206 -2.2616,-2.31 -19.6262,-14.3638 -22.792,-15.2416 l -0.6072,0.9284 v -1.7842 c 1.518,-21.7536 -7.8628,-55.627 9.6844,-66.748 z"
     id="path5"
     style="stroke-width:2.2" />
  <path
     fill="#0d68c7"
     d="m 875.31565,559.90493 c 19.943,0.5456 13.3826,22.2376 13.7632,37.4814 0.1056,8.2324 -7.8276,14.7026 -15.9456,13.431 -1.0758,-1.5202 -5.918,-4.554 -6.3976,-6.5406 -3.1482,-13.0878 -5.5968,-37.2548 8.58,-44.3718 z"
     id="path6"
     style="stroke-width:2.2" />
  <path
     fill="#daeaf9"
     d="m 771.51965,360.91713 4.1162,-1.8898 c 0.0836,2.4772 0.9526,1.9316 -0.2442,5.005 l 0.0396,-0.121 -0.3366,0.429 c -0.8668,-1.386 -0.979,-1.8106 -1.5994,-3.3 -1.0516,0.9966 -1.1484,12.5972 -0.6314,13.1626 l -0.007,0.2662 0.308,-2.2286 c 1.7006,1.9316 -0.1452,6.49 1.2276,9.3808 l 0.2794,-0.0308 c -0.0594,-2.2484 -0.4928,-10.23 0.1276,-11.8184 l 0.6974,0.6622 c -0.2046,6.479 1.2826,29.1082 -1.386,32.8262 l -0.8514,0.2024 c -2.7874,-3.9314 0.473,-26.4418 -1.7402,-32.868 -0.1716,-2.3628 -0.007,-7.1346 0,-9.6778 z"
     id="path7"
     style="stroke-width:2.2" />
  <path
     fill="#daeaf9"
     d="m 805.00805,655.17813 c -0.3146,2.4178 -0.8228,3.0096 -2.123,5.0974 3.4804,-2.288 6.2238,4.367 2.123,5.3152 l -5.2624,-1.9558 c 0.7634,-1.903 3.9974,-6.5472 5.2624,-8.4568 z"
     id="path8"
     style="stroke-width:2.2" />
  <path
     fill="#0e93ff"
     d="m 735.63765,661.61533 c 15.0304,25.5552 46.288,24.5102 64.108,2.0196 l 5.2624,1.9558 c 10.8328,9.1102 47.3594,27.4406 60.6232,34.5752 v 1.7842 c 1.3134,10.373 -16.1458,14.795 -25.9512,20.4996 l -212.6278,119.9946 c -33.352,18.6956 -69.102,37.554 -101.4398,56.9338 -4.7344,2.838 -10.3004,6.2942 -15.2746,8.591 v -68.9216 c 24.5256,-11.0022 37.5166,-33.8668 23.2012,-59.5672 1.7072,-2.6576 3.3682,-5.4538 5.4032,-7.8496 2.0592,-0.3344 35.1604,-19.8418 39.7672,-22.3872 l 142.3466,-79.3936 c 3.3396,-1.8612 12.0648,-6.2744 14.5816,-8.2346 z"
     id="path9"
     style="stroke-width:2.2" />
  <path
     fill="#0e93ff"
     d="m 130.62181,626.65293 c 0.47278,7.8694 0.0246,19.5844 0.0176,27.764 l -0.0176,51.2402 c 6.15604,-2.9216 14.20518,-7.755 20.3258,-11.1716 l 32.13804,-17.7782 c 6.6242,-3.685 14.3528,-8.1488 21.2454,-11.1166 18.0928,10.9274 32.7646,9.6052 48.741,-3.9754 18.7902,8.965 36.674,19.8616 54.9516,29.931 l 136.6728,74.7208 c 4.9632,2.7236 12.4652,7.0158 17.6044,9.185 4.4418,3.3902 -20.031,49.7068 25.1394,63.5954 -0.3696,22.8668 0.5038,46.156 0,68.9216 -29.8012,-21.076 -75.2334,-42.5942 -107.668,-60.6342 l -249.15044,-137.577 c -1.23354,-20.5238 -1.59566,-62.6494 0,-83.105 z"
     id="path10"
     style="stroke-width:2.2" />
  <path
     fill="#82c6ff"
     d="m 130.62181,306.80373 c 30.78504,17.3228 63.53424,34.2034 93.61704,52.2236 -0.6666,16.7068 0.007,37.554 0,54.5908 -35.695,9.4842 -39.6022,60.522 0,76.4478 6.4834,1.7446 13.0966,2.4684 19.8066,2.4574 l 4.4022,7.1588 c -0.5962,32.8108 3.3528,80.0206 0,111.1352 -10.087,-6.9124 -12.0934,-8.019 -24.2088,-8.4238 -31.493,4.466 -44.7194,40.7044 -19.9078,63.1972 -6.8926,2.9678 -14.6212,7.4316 -21.2454,11.1166 l -32.13804,17.7782 c -6.12062,3.4166 -14.16976,8.25 -20.3258,11.1716 l 0.0176,-51.2402 c 0.007,-8.1796 0.45518,-19.8946 -0.0176,-27.764 -0.7557,-23.0802 -0.002,-50.9894 0,-74.448 0.4653,-4.2614 0.0543,-18.7682 0.0392,-24.002 z"
     id="path11"
     style="stroke-width:2.2" />
  <path
     fill="#0d68c7"
     d="m 224.23885,490.06593 c 6.4834,1.7446 13.0966,2.4684 19.8066,2.4574 l 4.4022,7.1588 c -0.5962,32.8108 3.3528,80.0206 0,111.1352 -10.087,-6.9124 -12.0934,-8.019 -24.2088,-8.4238 0.5544,-10.6678 0.0242,-25.8192 0.0198,-36.9666 z"
     id="path12"
     style="stroke-width:2.2" />
  <path
     fill="#0d68c7"
     d="m 117.46669,272.44413 c 2.1483,1.727 18.35438,9.405 23.62866,12.804 12.31296,7.2688 24.8809,13.7434 37.3725,20.6844 l 65.5776,37.1514 c -9.8494,3.388 -15.609,5.8696 -19.8066,15.9434 -30.0828,-18.0202 -62.832,-34.9008 -93.61704,-52.2236 l 0.0392,221.3992 c 0.0152,5.2338 0.42614,19.7406 -0.0392,24.002 -3.60184,-15.1844 1.01706,-52.1136 -0.80916,-71.5484 -0.62832,-6.6836 0.12694,-27.4516 0.0794,-36.0756 l 0.046,-72.3426 c 0.008,-2.0548 0.46574,-14.7488 0.69542,-15.8356 1.66848,-7.8848 -2.92908,-47.3836 -0.77638,-50.3822 8.84532,1.6104 73.36076,39.9652 86.69056,46.4508 7.4316,3.6146 10.3026,-12.3178 13.9722,-16.104 -25.3264,-14.63 -52.0586,-28.8266 -77.70444,-43.021 -13.57928,-7.5152 -44.4972,-34.3816 -44.38258,-4.51 l -0.26312,303.5604 c -0.0431,2.7984 0.16698,20.955 -1.01882,22.0198 -0.45606,-7.6186 -0.0147,-21.34 -0.009,-29.4272 l -0.004,-222.5608 c -0.01,-21.3378 -8.708916,-81.301 10.32944,-89.9844 z"
     id="path13"
     style="stroke-width:2.2" />
  <path
     fill="#1dcbf6"
     d="m 638.19305,492.11853 c 10.384,-1.9074 20.3544,4.95 22.2882,15.3296 1.9338,10.3796 -4.8972,20.3676 -15.2724,22.3278 -10.4126,1.9668 -20.4424,-4.895 -22.3828,-15.312 -1.9426,-10.417 4.9456,-20.4292 15.367,-22.3454 z"
     id="path14"
     style="stroke-width:2.2" />
  <path
     fill="#1dcbf6"
     d="m 233.71205,433.66893 c 9.9616,-1.892 19.5646,4.6772 21.4104,14.6476 1.848,9.9726 -4.763,19.5448 -14.7422,21.3466 -9.9176,1.7908 -19.4172,-4.7696 -21.252,-14.6784 -1.8348,-9.9088 4.6838,-19.437 14.5838,-21.3158 z"
     id="path15"
     style="stroke-width:2.2" />
  <path
     fill="#1dcbf6"
     d="m 495.00605,334.56553 c 9.8802,-1.7006 19.2676,4.928 20.9726,14.806 1.705,9.878 -4.9148,19.2698 -14.7928,20.9814 -9.8868,1.7138 -19.2896,-4.9148 -20.9968,-14.8016 -1.7072,-9.889 4.9302,-19.2874 14.817,-20.9858 z"
     id="path16"
     style="stroke-width:2.2" />
  <path
     fill="#1dcbf6"
     d="m 359.26825,607.71973 c 9.757,-2.134 19.3952,4.0524 21.5182,13.8094 2.123,9.7592 -4.0722,19.3908 -13.8336,21.5028 -9.746,2.1098 -19.3578,-4.0744 -21.4786,-13.8182 -2.1208,-9.7438 4.0524,-19.3622 13.794,-21.494 z"
     id="path17"
     style="stroke-width:2.2" />
  <path
     fill="#1dcbf6"
     d="m 628.27325,609.98793 c 6.2964,-1.496 12.9096,0.5148 17.3052,5.2624 4.3956,4.7476 5.8916,11.4972 3.916,17.6572 -1.9778,6.1622 -7.1214,10.78 -13.4596,12.0846 -9.592,1.9734 -18.9948,-4.1184 -21.1156,-13.6796 -2.1208,-9.5634 3.8258,-19.0564 13.354,-21.3246 z"
     id="path18"
     style="stroke-width:2.2" />
  <path
     fill="#1dcbf6"
     d="m 497.43485,781.71333 c 9.7482,-1.0208 18.4844,6.0456 19.5184,15.7916 1.034,9.7482 -6.0214,18.491 -15.7674,19.5382 -9.7614,1.0494 -18.524,-6.0214 -19.5602,-15.7872 -1.0384,-9.7636 6.0434,-18.5174 15.8092,-19.5426 z"
     id="path19"
     style="stroke-width:2.2" />
  <path
     fill="#1dcbf6"
     d="m 352.98945,493.50893 c 9.5392,-2.0922 18.9618,3.9688 21.0144,13.5168 2.0548,9.5458 -4.0414,18.9442 -13.596,20.9616 -9.504,2.0064 -18.8408,-4.048 -20.8824,-13.5454 -2.0438,-9.4952 3.9776,-18.854 13.464,-20.933 z"
     id="path20"
     style="stroke-width:2.2" />
  <path
     fill="#1dcbf6"
     d="m 497.43925,577.19473 c 9.5986,-0.495 17.798,6.8442 18.3678,16.4384 0.5698,9.5942 -6.7056,17.853 -16.2954,18.4954 -9.6954,0.6512 -18.0642,-6.721 -18.6406,-16.4208 -0.5742,-9.702 6.864,-18.0114 16.5682,-18.513 z"
     id="path21"
     style="stroke-width:2.2" />
  <path
     fill="#1dcbf6"
     d="m 494.17225,207.53313 c 6.0588,-1.5422 12.4762,0.2992 16.7948,4.818 4.3164,4.5188 5.863,11.0154 4.0458,16.9972 -1.8172,5.9796 -6.7166,10.516 -12.8194,11.869 -9.2334,2.046 -18.4008,-3.6938 -20.592,-12.8942 -2.1912,-9.2004 3.4056,-18.4558 12.5708,-20.79 z"
     id="path22"
     style="stroke-width:2.2" />
  <path
     fill="#1dcbf6"
     d="m 754.71385,448.88193 c 9.0948,-1.6698 17.8464,4.2724 19.646,13.343 1.7996,9.0706 -4.0172,17.9058 -13.0614,19.833 -5.9664,1.2738 -12.155,-0.7656 -16.1986,-5.335 -4.0414,-4.5694 -5.3086,-10.9604 -3.3176,-16.7266 1.991,-5.7662 6.9322,-10.0122 12.9316,-11.1144 z"
     id="path23"
     style="stroke-width:2.2" />
  <path
     fill="#1dcbf6"
     d="m 365.91005,276.76273 c 9.0904,-1.5092 17.6814,4.642 19.1862,13.7324 1.5026,9.0904 -4.6486,17.6792 -13.7412,19.1818 -9.086,1.5004 -17.6704,-4.6486 -19.1752,-13.7346 -1.5026,-9.0882 4.642,-17.6748 13.7302,-19.1796 z"
     id="path24"
     style="stroke-width:2.2" />
  <path
     fill="#1dcbf6"
     d="m 625.21745,276.83093 c 5.8366,-1.4344 11.9922,0.3894 16.1062,4.7718 4.1118,4.3824 5.5396,10.6436 3.7378,16.3768 -1.804,5.7332 -6.5604,10.0474 -12.441,11.286 -8.8858,1.8722 -17.6308,-3.7246 -19.6504,-12.5774 -2.0196,-8.8506 3.4298,-17.688 12.2474,-19.8572 z"
     id="path25"
     style="stroke-width:2.2" />
  <path
     fill="#1dcbf6"
     d="m 764.78325,628.74733 c 8.1444,-1.8106 16.2074,3.3396 17.9894,11.4884 1.782,8.1488 -3.3946,16.1964 -11.55,17.952 -8.1158,1.7468 -16.1172,-3.4012 -17.8926,-11.5104 -1.7732,-8.1114 3.3484,-16.1304 11.4532,-17.93 z"
     id="path26"
     style="stroke-width:2.2" />
  <path
     fill="#0e93ff"
     d="m 117.46669,272.44413 c 5.12688,-4.8136 16.55808,-10.7338 23.03532,-14.3264 L 418.71005,105.16119 c 19.3908,-10.582217 60.9356,-37.434097 80.553,-41.513997 17.721,5.92724 40.821,21.37652 57.7324,30.28762 52.5844,27.709877 104.6232,56.564637 156.926,84.815717 l 122.1132,66.935 c 11.4092,6.1754 38.8366,19.4194 47.1988,26.7586 -8.646,2.4112 -18.1346,10.2234 -24.9106,12.804 -17.8464,-11.693 -38.1106,-21.3796 -56.9624,-31.5194 L 517.71005,99.466273 c -6.3492,-3.39922 -13.5828,-7.61244 -19.866,-10.72676 -12.7138,6.45392 -26.3076,14.517137 -39.0742,21.350117 l -266.3078,146.1383 c -15.4726,8.4964 -37.40198,18.9772 -51.3667,29.0202 -5.27428,-3.399 -21.48036,-11.077 -23.62866,-12.804 z"
     id="path27"
     style="stroke-width:2.2" />
</svg>
