<?xml version="1.0" encoding="UTF-8" standalone="no"?>
<!-- Created with Inkscape (http://www.inkscape.org/) -->

<svg
   width="900.3277"
   height="529.08429"
   viewBox="0 0 238.2117 139.98688"
   version="1.1"
   id="svg1"
   xmlns:xlink="http://www.w3.org/1999/xlink"
   xmlns="http://www.w3.org/2000/svg"
   xmlns:svg="http://www.w3.org/2000/svg">
  <defs
     id="defs1">
    <linearGradient
       xlink:href="#linearGradient4"
       id="linearGradient5"
       x1="5422.1089"
       y1="7703.25"
       x2="5444.2881"
       y2="2357.6167"
       gradientUnits="userSpaceOnUse"
       gradientTransform="matrix(0.0259913,0,0,0.0259913,2.3260479e-4,5.1982067)" />
    <linearGradient
       id="linearGradient4">
      <stop
         style="stop-color:#b2d6fa;stop-opacity:1;"
         offset="0"
         id="stop4" />
      <stop
         style="stop-color:#005aba;stop-opacity:1;"
         offset="1"
         id="stop5" />
    </linearGradient>
  </defs>
  <g
     id="layer1"
     transform="translate(-16.360817,-65.473224)">
    <path
       id="path1"
       style="color:#000000;fill:url(#linearGradient5);fill-opacity:1;stroke:none;stroke-width:0.020634;stroke-linejoin:bevel;-inkscape-stroke:none;paint-order:stroke markers fill"
       d="m 208.95288,65.473245 a 4.7288951,4.7288951 0 0 0 -2.15956,0.52193 l -5.50612,2.8267 a 4.7288951,4.7288951 0 0 0 -1.6831,1.45056 c -0.99485,1.38718 -1.70233,2.37304 -2.1885,3.05304 -0.33726,0.47172 -0.51757,0.67956 -0.94568,1.34255 l -6.23528,8.92142 a 4.7288951,4.7288951 0 0 0 -0.008,0.0119 l -0.0253,0.0356 a 4.7288951,4.7288951 0 0 0 -0.009,0.0134 c -2.13774,3.10117 -5.37913,7.29959 -8.11009,11.78171 -0.37568,0.44968 -0.71342,0.88345 -1.0573,1.33635 -0.73557,0.96873 -1.58379,2.13866 -2.55747,3.505735 -1.94944,2.73705 -4.38183,6.24572 -6.83111,9.81181 -0.44936,0.65426 -0.83997,1.22983 -1.27485,1.865 l -8.08685,-37.179645 a 4.7288951,4.7288951 0 0 0 -1.59215,-2.6262 l -6.39341,-5.33146 a 4.7288951,4.7288951 0 0 0 -2.86959,-1.0945 c -6.22004,-0.20908 -12.13773,-0.005 -17.58394,-0.007 l -8.29096,-0.008 c -1.19036,-0.006 -3.10665,-0.10905 -5.45238,0.0264 a 4.7288951,4.7288951 0 0 0 -2.75797,1.09088 l -6.19549,5.17282 a 4.7288951,4.7288951 0 0 0 -1.5658,2.51922 l -6.00583,24.853783 -4.550626,-0.519353 c -13.56261,-0.79878 -22.944979,-10.35022 -37.325882,-5.25859 -10.404058,3.68367 -15.773541,10.705065 -28.052031,2.04897 9.061958,17.848325 20.487203,7.277565 32.50964,10.937835 12.476533,3.79894 14.353391,13.59586 29.215783,14.5464 -7.13216,7.67485 -16.923788,1.01224 -24.218155,-2.56522 -23.911986,-11.72796 -32.642986,12.21282 -49.347888,3.7021 -2.036317,-1.03726 -3.633545,-2.60364 -5.437393,-3.96926 1.703907,11.23997 12.218019,16.65079 22.855967,14.93862 12.447249,-2.00342 13.041158,-2.52612 23.564451,4.05556 7.298292,4.5645 14.199387,5.84827 21.403858,0.39894 -5.88057,16.10617 -18.729873,5.64836 -30.30409,5.25808 -14.743838,-0.4971 -16.224599,12.43116 -33.7938,2.05052 2.057882,6.76929 9.437506,12.11569 16.416567,12.79457 7.526301,0.73163 18.177401,-2.7152 21.272086,9.2108 -3.651045,12.88249 -19.529517,-4.01721 -31.929831,1.97611 -3.101887,1.49915 -7.48598,5.40209 -8.793779,8.61343 12.147413,-5.95611 18.150883,-0.85121 27.922326,5.98258 10.906843,7.62701 22.864564,10.98835 35.368896,5.63428 -0.139847,0.59091 -0.295735,1.15517 -0.425296,1.75958 a 4.7288951,4.7288951 0 0 0 0.950328,3.96823 l 6.644043,8.19589 a 4.7288951,4.7288951 0 0 0 3.68608,1.75079 c 9.445436,-0.026 19.080636,0.12109 28.873166,-5.2e-4 a 4.7288951,4.7288951 0 0 0 2.84685,-0.99787 l 6.4642,-5.03535 a 4.7288951,4.7288951 0 0 0 1.6645,-2.51613 c 1.47261,-5.54288 2.69319,-11.03754 3.8468,-16.41088 1.18448,4.46128 3.11335,10.4449 9.16068,14.60479 a 4.7288951,4.7288951 0 0 0 0,5.2e-4 c 3.50388,2.41021 7.63017,4.02514 12.06128,4.0225 4.45619,-0.003 8.2566,-1.64092 11.08097,-3.63544 5.27121,-3.72245 7.92962,-8.53553 9.54257,-10.97762 l 0.13539,-0.20103 c -0.56955,2.44664 -1.13416,4.8963 -1.69033,7.35149 a 4.7288951,4.7288951 0 0 0 0.91725,3.99666 l 6.61045,8.27236 a 4.7288951,4.7288951 0 0 0 3.69538,1.77715 l 15.69775,-0.005 a 4.7288951,4.7288951 0 0 0 0.002,0 c 4.23809,-0.002 7.91619,-0.0606 10.5885,0.29508 a 4.7288951,4.7288951 0 0 0 3.34088,-0.81752 l 7.5153,-5.2772 a 4.7288951,4.7288951 0 0 0 1.90325,-2.86546 c 0.6385,-2.93739 1.5029,-6.15223 2.34094,-9.67279 a 4.7288951,4.7288951 0 0 0 5.2e-4,-5.2e-4 l 20.93153,-84.50284 a 4.7288951,4.7288951 0 0 0 0,-5.2e-4 c 1.50529,-5.940935 2.72789,-11.608775 4.1801,-16.761775 a 4.7288951,4.7288951 0 0 0 0,-5.2e-4 c 0.53171,-1.86408 1.11513,-3.98394 1.5751,-6.31692 a 4.7288951,4.7288951 0 0 0 -0.9865,-3.9176 l -6.64766,-8.08632 a 4.7288951,4.7288951 0 0 0 -3.65249,-1.72547 z m 0,11.50369 h 34.2439 c -0.35794,1.81545 -0.85324,3.64314 -1.36116,5.42292 -1.59202,5.64913 -2.83058,11.4252 -4.27415,17.116783 l -20.93154,84.502332 c -0.79237,3.33716 -1.68763,6.64313 -2.41639,9.99578 -3.99093,-0.53121 -8.0915,-0.39636 -12.11037,-0.39481 l -15.69827,0.005 c 5.22971,-23.08643 11.19045,-46.00746 16.42639,-69.14823 -9.65149,14.0055 -18.97384,28.21459 -28.44736,42.33901 l -7.23056,10.75697 c -3.68058,5.56689 -8.37251,13.11639 -16.57832,7.47189 -4.71297,-3.242 -6.10554,-15.41406 -7.29516,-21.12894 l -6.96081,-32.70342 c -0.35021,-1.68253 -0.62701,-3.39574 -1.02992,-5.06533 -3.5182,12.85774 -6.44039,27.52707 -9.35498,40.71948 -1.94945,8.82494 -3.68452,17.77301 -6.00532,26.50845 -9.58163,0.11897 -19.17784,-0.0264 -28.761546,0 1.14511,-5.34192 3.06372,-10.77232 4.40077,-16.12924 l 3.16776,-12.22716 c 0.65997,-2.47396 1.413336,-4.921 2.023126,-7.40782 0.57931,-1.68047 1.00368,-3.43184 1.47382,-5.14697 1.04014,-3.07079 1.75363,-6.34771 2.63033,-9.47953 l 15.89257,-65.768075 c 1.57697,-0.091 3.15911,-0.0149 4.73821,-0.007 l 8.33024,0.008 c 5.7174,0.002 11.50061,-0.19189 17.20928,0 l 11.35745,52.214385 c 0.6698,2.9094 1.39641,5.80374 1.84639,8.7576 3.73336,-0.81049 4.34174,-3.08826 6.21978,-5.89525 1.73995,-2.60113 19.73003,-29.26946 20.88968,-29.94029 2.26546,-3.898855 5.70687,-8.385755 8.31784,-12.173415 l 6.33966,-9.07128 c 0.11362,-0.1812 0.95652,-1.35376 2.94866,-4.13153 z M 66.450998,151.86693 c 6.943898,4.96106 13.71707,7.48214 22.319046,5.98465 -0.38221,1.36619 -0.72164,2.59631 -1.1498,4.20129 a 4.7288951,4.7288951 0 0 0 -0.004,0.0165 l -0.0124,0.047 a 4.7288951,4.7288951 0 0 0 -0.005,0.017 l -0.55913,2.15852 c -9.312764,1.14357 -19.252809,-2.01432 -20.588926,-12.42508 z" />
  </g>
</svg>
