<?xml version="1.0" encoding="UTF-8" standalone="no"?>
<svg
   class=""
   width="110.60482"
   height="56.56971"
   viewBox="0 -200 1125.9225 575.86197"
   version="1.1"
   id="svg6"
   xmlns="http://www.w3.org/2000/svg">
  <defs>
    <!-- Vibrant background gradient -->
    <radialGradient id="backgroundGradient" cx="50%" cy="40%" r="80%">
      <stop offset="0%" style="stop-color:#FF6B9D;stop-opacity:1" />
      <stop offset="30%" style="stop-color:#C44CE6;stop-opacity:1" />
      <stop offset="70%" style="stop-color:#4F46E5;stop-opacity:1" />
      <stop offset="100%" style="stop-color:#0F172A;stop-opacity:1" />
    </radialGradient>
    
    <!-- Modern holographic gradient for main logo -->
    <linearGradient id="holoGradient" x1="0%" y1="0%" x2="100%" y2="100%">
      <stop offset="0%" style="stop-color:#00F5FF;stop-opacity:1" />
      <stop offset="25%" style="stop-color:#FF00FF;stop-opacity:1" />
      <stop offset="50%" style="stop-color:#FFFF00;stop-opacity:1" />
      <stop offset="75%" style="stop-color:#00FF7F;stop-opacity:1" />
      <stop offset="100%" style="stop-color:#FF4500;stop-opacity:1" />
    </linearGradient>
    
    <!-- Glossy highlight -->
    <linearGradient id="highlight" x1="0%" y1="0%" x2="100%" y2="100%">
      <stop offset="0%" style="stop-color:#FFFFFF;stop-opacity:0.8" />
      <stop offset="100%" style="stop-color:#FFFFFF;stop-opacity:0.1" />
    </linearGradient>
    
    <!-- Drop shadow filter -->
    <filter id="dropShadow" x="-50%" y="-50%" width="200%" height="200%">
      <feDropShadow dx="5" dy="10" stdDeviation="8" flood-color="#000000" flood-opacity="0.3"/>
      <feDropShadow dx="0" dy="0" stdDeviation="20" flood-color="#FF6B9D" flood-opacity="0.4"/>
    </filter>
    
    <!-- Glow effect -->
    <filter id="glow" x="-50%" y="-50%" width="200%" height="200%">
      <feGaussianBlur stdDeviation="15" result="coloredBlur"/>
      <feMerge> 
        <feMergeNode in="coloredBlur"/>
        <feMergeNode in="ic"/>
      </feMerge>
    </filter>
  </defs>
  
  <!-- Modern geometric background -->
  <rect x="0" y="-200" width="1125.9225" height="575.86197" fill="url(#backgroundGradient)"/>
  
  <!-- Floating geometric shapes for modern feel -->
  <circle cx="100" cy="50" r="20" fill="#FF6B9D" opacity="0.3"/>
  <rect x="900" y="-100" width="40" height="40" fill="#00F5FF" opacity="0.2" transform="rotate(45 920 -80)"/>
  <polygon points="200,-150 230,-120 200,-90 170,-120" fill="#FFFF00" opacity="0.25"/>
  <circle cx="1000" cy="250" r="15" fill="#00FF7F" opacity="0.4"/>
  
  <!-- Main logo with holographic effect -->
  <path
     fill="url(#holoGradient)"
     d="m 939.89659,-202.19179 h 168.49151 c -1.7611,8.93267 -4.1991,17.92387 -6.6982,26.68094 -7.8333,27.79562 -13.9258,56.21474 -21.0287,84.219032 L 977.67083,324.48704 c -3.89881,16.41982 -8.30407,32.68695 -11.88986,49.18312 -19.6366,-2.61363 -39.81273,-1.95195 -59.58676,-1.94432 l -77.24086,0.0229 C 854.68503,258.15624 884.01524,145.37811 909.77746,31.518386 862.28925,100.42974 816.41962,170.34378 769.80686,239.84045 l -35.57543,52.92671 c -18.10966,27.39097 -41.19717,64.53662 -81.57233,36.76391 -23.18931,-15.95156 -30.04023,-75.84116 -35.89355,-103.95998 L 582.51602,64.658335 c -1.72291,-8.278625 -3.08444,-16.7074 -5.06694,-24.922402 -17.31054,63.264177 -31.68934,135.440647 -46.02996,200.351377 -9.59181,43.42143 -18.12747,87.44854 -29.54653,130.4297 -47.14464,0.58533 -94.36308,-0.12979 -141.51791,0 5.63446,-26.28394 15.07611,-53.00305 21.65473,-79.36079 l 15.58509,-60.15936 c 3.24732,-12.17235 6.95526,-24.21492 9.95572,-36.45089 2.85031,-8.26845 4.93715,-16.88555 7.25048,-25.3245 5.11784,-15.10919 8.62983,-31.23126 12.94346,-46.64075 l 78.19522,-323.59932 c 7.75946,-0.44791 15.54437,-0.0738 23.31401,-0.0356 l 40.98848,0.0407 c 28.13155,0.008 56.5863,-0.94417 84.67458,-0.005 L 710.7978,55.891185 c 3.29567,14.315175 6.87129,28.556547 9.08537,43.090591 18.36923,-3.987895 21.36205,-15.195723 30.60266,-29.007004 8.56111,-12.798402 97.07852,-144.014477 102.78423,-147.315239 11.14675,-19.183607 28.0781,-41.260783 40.92486,-59.897233 l 31.19308,-44.6328 c 4.79972,-6.75931 9.21261,-13.94617 14.50859,-20.32119 z"
     filter="url(#dropShadow)"/>
  
  <!-- Glossy highlight overlay -->
  <path
     fill="url(#highlight)"
     d="m 939.89659,-202.19179 h 168.49151 c -1.7611,8.93267 -4.1991,17.92387 -6.6982,26.68094 -7.8333,27.79562 -13.9258,56.21474 -21.0287,84.219032 L 977.67083,324.48704 c -3.89881,16.41982 -8.30407,32.68695 -11.88986,49.18312 -19.6366,-2.61363 -39.81273,-1.95195 -59.58676,-1.94432 l -77.24086,0.0229 C 854.68503,258.15624 884.01524,145.37811 909.77746,31.518386 862.28925,100.42974 816.41962,170.34378 769.80686,239.84045 l -35.57543,52.92671 c -18.10966,27.39097 -41.19717,64.53662 -81.57233,36.76391 -23.18931,-15.95156 -30.04023,-75.84116 -35.89355,-103.95998 L 582.51602,64.658335 c -1.72291,-8.278625 -3.08444,-16.7074 -5.06694,-24.922402 -17.31054,63.264177 -31.68934,135.440647 -46.02996,200.351377 -9.59181,43.42143 -18.12747,87.44854 -29.54653,130.4297 -47.14464,0.58533 -94.36308,-0.12979 -141.51791,0 5.63446,-26.28394 15.07611,-53.00305 21.65473,-79.36079 l 15.58509,-60.15936 c 3.24732,-12.17235 6.95526,-24.21492 9.95572,-36.45089 2.85031,-8.26845 4.93715,-16.88555 7.25048,-25.3245 5.11784,-15.10919 8.62983,-31.23126 12.94346,-46.64075 l 78.19522,-323.59932 c 7.75946,-0.44791 15.54437,-0.0738 23.31401,-0.0356 l 40.98848,0.0407 c 28.13155,0.008 56.5863,-0.94417 84.67458,-0.005 L 710.7978,55.891185 c 3.29567,14.315175 6.87129,28.556547 9.08537,43.090591 18.36923,-3.987895 21.36205,-15.195723 30.60266,-29.007004 8.56111,-12.798402 97.07852,-144.014477 102.78423,-147.315239 11.14675,-19.183607 28.0781,-41.260783 40.92486,-59.897233 l 31.19308,-44.6328 c 4.79972,-6.75931 9.21261,-13.94617 14.50859,-20.32119 z"
     opacity="0.3"/>
     
  <!-- Additional glow effect for modern feel -->
  <circle cx="562" cy="100" r="300" fill="none" stroke="url(#holoGradient)" stroke-width="2" opacity="0.1" filter="url(#glow)"/>
</svg>
