<?xml version="1.0" encoding="UTF-8" standalone="no"?>
<svg
   class=""
   width="1024"
   height="1024"
   viewBox="0 -200 10424 10424"
   version="1.1"
   id="svg6"
   xmlns="http://www.w3.org/2000/svg"
   xmlns:svg="http://www.w3.org/2000/svg">
  <defs
     id="defs2" />
  <path
     id="path1"
     style="color:#000000;fill:#3b82f6;fill-opacity:1;stroke:none;stroke-width:0.793881;stroke-linejoin:bevel;-inkscape-stroke:none;paint-order:stroke markers fill"
     d="m 8039.3305,2319.0466 a 181.94146,181.94146 0 0 0 -83.0877,20.081 l -211.8449,108.7557 a 181.94146,181.94146 0 0 0 -64.7563,55.8093 c -38.2763,53.371 -65.496,91.3015 -84.2012,117.464 -12.9759,18.1493 -19.913,26.1458 -36.3844,51.654 l -239.8986,343.2463 a 181.94146,181.94146 0 0 0 -0.2983,0.4573 l -0.9742,1.3719 a 181.94146,181.94146 0 0 0 -0.338,0.5169 c -82.2484,119.3156 -206.9591,280.8475 -312.0313,453.2944 -14.4538,17.3013 -27.4481,33.9902 -40.679,51.4154 -28.3004,37.2713 -60.9351,82.2837 -98.397,134.8808 -75.0035,105.3064 -168.5884,240.3002 -262.8228,377.5034 -17.2891,25.1726 -32.3173,47.3173 -49.0494,71.7548 L 6243.4308,2676.787 a 181.94146,181.94146 0 0 0 -61.257,-101.0413 L 5936.1911,2370.621 a 181.94146,181.94146 0 0 0 -110.4058,-42.1105 c -239.3123,-8.0442 -466.992,-0.1978 -676.5317,-0.2585 l -318.9901,-0.3181 c -45.7982,-0.2301 -119.5262,-4.1955 -209.7771,1.014 a 181.94146,181.94146 0 0 0 -106.1113,41.9713 l -238.3677,199.0209 a 181.94146,181.94146 0 0 0 -60.2431,96.9257 l -231.0709,956.2345 -175.0827,-19.9815 c -521.8134,-30.7328 -882.7947,-398.2187 -1436.0915,-202.3213 -400.29,141.7272 -606.8777,411.8708 -1079.2854,78.8329 348.6535,686.7036 788.2331,279.9998 1250.7893,420.8266 480.0273,146.1619 552.2383,523.0929 1124.0602,559.6642 -274.4056,295.2852 -651.1329,38.9454 -931.7794,-98.6953 -919.9996,-451.2264 -1255.9197,469.8811 -1898.63099,142.4361 -78.3461,-39.9078 -139.7985,-100.1734 -209.2005,-152.7151 65.5568,432.4514 470.08109,640.6294 879.36989,574.7546 478.9006,-77.0804 501.7509,-97.1907 906.6284,156.0355 280.7975,175.6164 546.3131,225.0088 823.5009,15.3491 -226.2515,619.6751 -720.6209,217.3173 -1165.9321,202.3014 -567.2605,-19.1256 -624.2319,478.2814 -1300.19659,78.8926 79.1758,260.4444 363.10249,466.144 631.61779,492.2634 289.57,28.1492 699.3648,-104.4656 818.431,354.3804 -140.4718,495.646 -751.3867,-154.5601 -1228.48149,76.0295 -119.3433,57.6788 -288.0187,207.8423 -338.3355,331.3966 467.36459,-229.1576 698.34459,-32.7496 1074.29509,230.1763 419.6344,293.4446 879.7007,422.7703 1360.7975,216.7756 -5.3805,22.7348 -11.3782,44.4446 -16.363,67.6989 a 181.94146,181.94146 0 0 0 36.5633,152.6754 l 255.6255,315.3318 a 181.94146,181.94146 0 0 0 141.8198,67.3608 c 363.4077,-1.0003 734.1167,4.6587 1110.8782,-0.02 a 181.94146,181.94146 0 0 0 109.5311,-38.3926 l 248.7064,-193.7322 a 181.94146,181.94146 0 0 0 64.0406,-96.8064 c 56.6579,-213.2591 103.619,-424.663 148.0032,-631.3991 45.5721,171.6453 119.7843,401.8614 352.4518,561.9108 a 181.94146,181.94146 0 0 0 0,0.02 c 134.8098,92.7313 293.5663,154.8648 464.0506,154.7631 171.4494,-0.1021 317.6681,-63.1332 426.334,-139.8713 202.8068,-143.2191 305.0876,-328.3995 367.1448,-422.3576 l 5.2091,-7.7343 c -21.9133,94.1329 -43.6364,188.3821 -65.0347,282.8443 a 181.94146,181.94146 0 0 0 35.2909,153.7689 l 254.3331,318.2743 a 181.94146,181.94146 0 0 0 142.1777,68.3749 l 603.9616,-0.1988 a 181.94146,181.94146 0 0 0 0.06,0 c 163.058,-0.063 304.5707,-2.3324 407.3863,11.3528 a 181.94146,181.94146 0 0 0 128.5384,-31.4537 l 289.1469,-203.037 a 181.94146,181.94146 0 0 0 73.2261,-110.2468 c 24.5659,-113.0145 57.8232,-236.7035 90.0664,-372.1551 a 181.94146,181.94146 0 0 0 0.02,-0.02 l 805.3282,-3251.1971 a 181.94146,181.94146 0 0 0 0,-0.02 c 57.9153,-228.5739 104.9543,-446.6404 160.8271,-644.8991 a 181.94146,181.94146 0 0 0 0,-0.02 c 20.4571,-71.7196 42.9038,-153.2797 60.6009,-243.04 a 181.94146,181.94146 0 0 0 -37.955,-150.7271 l -255.7647,-311.1164 a 181.94146,181.94146 0 0 0 -140.5274,-66.3867 z m 0,442.5977 h 1317.514 c -13.7714,69.8485 -32.828,140.1677 -52.3697,208.6438 -61.2523,217.3468 -108.905,439.5779 -164.4457,658.5582 l -805.3286,3251.1774 c -30.4858,128.3951 -64.9306,255.5903 -92.9692,384.5815 -153.5485,-20.4379 -311.3156,-15.2495 -465.9394,-15.19 l -603.9815,0.179 c 201.2098,-888.2368 430.5459,-1770.1099 631.9955,-2660.4375 -371.3354,538.8532 -730.0072,1085.5397 -1094.4953,1628.9687 l -278.1918,413.8679 C 6289.5107,6846.1761 6108.9914,7136.6389 5793.2779,6919.47 5611.949,6794.7359 5558.3708,6326.423 5512.6008,6106.5464 L 5244.7876,4848.3013 c -13.4738,-64.7343 -24.1236,-130.649 -39.6253,-194.8854 -135.3606,494.694 -247.7904,1059.0879 -359.9275,1566.6579 -75.004,339.5345 -141.7597,683.8061 -231.051,1019.8973 -368.6478,4.5773 -737.8563,-1.0149 -1106.5837,0 44.0573,-205.5275 117.8748,-414.4589 169.3168,-620.5633 l 121.8778,-470.4327 c 25.3918,-95.184 54.3775,-189.3327 77.8389,-285.0114 22.2883,-64.6552 38.6159,-132.038 56.704,-198.0267 40.0191,-118.1468 67.4702,-244.2246 101.2004,-364.7192 l 611.4573,-2530.3879 c 60.6733,-3.5022 121.5452,-0.5739 182.2999,-0.2784 l 320.5011,0.3181 c 219.9739,0.072 442.4794,-7.3828 662.1171,0 l 436.971,2008.9176 c 25.7704,111.9376 53.7262,223.2955 71.0391,336.9437 143.6387,-31.183 167.0458,-118.8189 239.3022,-226.8162 66.9437,-100.0769 759.1012,-1126.1255 803.7181,-1151.935 87.1623,-150.0062 219.5684,-322.6369 320.024,-468.365 l 243.9149,-349.0122 c 4.3713,-6.9714 36.8014,-52.0852 113.4478,-158.9582 z M 2556.6542,5642.9929 c 267.1624,190.8737 527.7562,287.8708 858.7123,230.2558 -14.7055,52.5634 -27.7649,99.8913 -44.2379,161.6423 a 181.94146,181.94146 0 0 0 -0.159,0.6362 l -0.4772,1.8093 a 181.94146,181.94146 0 0 0 -0.179,0.6561 l -21.5125,83.048 c -358.303,43.9979 -740.7404,-77.5001 -792.1467,-478.0477 z" />
</svg>
