<?xml version="1.0" encoding="UTF-8" standalone="no"?>
<!-- Created with Inkscape (http://www.inkscape.org/) -->

<svg
   width="900.3277"
   height="529.08429"
   viewBox="0 0 238.2117 139.98688"
   version="1.1"
   id="svg1"
   inkscape:version="1.3.2 (091e20e, 2023-11-25)"
   sodipodi:docname="final-logo.svg"
   xmlns:inkscape="http://www.inkscape.org/namespaces/inkscape"
   xmlns:sodipodi="http://sodipodi.sourceforge.net/DTD/sodipodi-0.dtd"
   xmlns="http://www.w3.org/2000/svg"
   xmlns:svg="http://www.w3.org/2000/svg">
  <sodipodi:namedview
     id="namedview1"
     pagecolor="#ffffff"
     bordercolor="#000000"
     borderopacity="0.25"
     inkscape:showpageshadow="2"
     inkscape:pageopacity="0.0"
     inkscape:pagecheckerboard="0"
     inkscape:deskcolor="#d1d1d1"
     inkscape:document-units="mm"
     inkscape:zoom="0.5"
     inkscape:cx="334"
     inkscape:cy="310"
     inkscape:window-width="1728"
     inkscape:window-height="969"
     inkscape:window-x="0"
     inkscape:window-y="38"
     inkscape:window-maximized="1"
     inkscape:current-layer="layer1" />
  <defs
     id="defs1" />
  <g
     inkscape:label="Layer 1"
     inkscape:groupmode="layer"
     id="layer1"
     transform="translate(-16.360817,-65.473224)">
    <path
       id="path1"
       style="color:#000000;fill:#3b82f6;fill-opacity:1;stroke:none;stroke-width:0.020634;stroke-linejoin:bevel;-inkscape-stroke:none;paint-order:stroke markers fill"
       d="m 208.95266,65.473224 a 4.7288951,4.7288951 0 0 0 -2.15956,0.521931 l -5.50612,2.826702 a 4.7288951,4.7288951 0 0 0 -1.6831,1.450556 c -0.99485,1.387182 -1.70233,2.373045 -2.1885,3.053042 -0.33726,0.471724 -0.51756,0.679564 -0.94568,1.342555 l -6.23527,8.921418 a 4.7288951,4.7288951 0 0 0 -0.008,0.01189 l -0.0253,0.03566 a 4.7288951,4.7288951 0 0 0 -0.009,0.01344 c -2.13774,3.101167 -5.37914,7.299591 -8.1101,11.781711 -0.37567,0.449683 -0.71341,0.883449 -1.0573,1.336353 -0.73557,0.968729 -1.58378,2.13866 -2.55747,3.505728 -1.94944,2.73705 -4.38183,6.24571 -6.8311,9.8118 -0.44937,0.65427 -0.83997,1.22984 -1.27486,1.865 l -8.08685,-37.179636 a 4.7288951,4.7288951 0 0 0 -1.59214,-2.626195 l -6.39341,-5.331458 a 4.7288951,4.7288951 0 0 0 -2.8696,-1.094506 c -6.22003,-0.209079 -12.13772,-0.0051 -17.58393,-0.0067 l -8.29097,-0.0083 c -1.19036,-0.006 -3.10664,-0.109046 -5.45238,0.02635 a 4.7288951,4.7288951 0 0 0 -2.75797,1.090889 l -6.19549,5.172812 a 4.7288951,4.7288951 0 0 0 -1.56579,2.519225 l -6.0054,24.853784 -4.550625,-0.519345 C 85.454136,98.049144 76.071763,88.497708 61.69086,93.589336 51.286802,97.27301 45.91732,104.29439 33.638829,95.638306 c 9.061958,17.848314 20.487203,7.277554 32.50964,10.937834 12.476534,3.79893 14.353392,13.59586 29.215786,14.5464 -7.132158,7.67484 -16.92379,1.01224 -24.218158,-2.56522 -23.911985,-11.72796 -32.642986,12.21282 -49.347888,3.7021 -2.036316,-1.03726 -3.633544,-2.60364 -5.437392,-3.96927 1.703906,11.23998 12.218018,16.65079 22.855966,14.93862 12.447249,-2.00342 13.041158,-2.52611 23.564451,4.05557 7.298292,4.5645 14.199388,5.84827 21.403859,0.39894 -5.880571,16.10616 -18.729874,5.64836 -30.304091,5.25808 -14.743838,-0.4971 -16.224599,12.43115 -33.7938,2.05052 2.057882,6.76929 9.437506,12.11569 16.416568,12.79456 7.5263,0.73164 18.1774,-2.71519 21.272085,9.21081 -3.651044,12.88248 -19.529517,-4.01722 -31.929831,1.97611 -3.101887,1.49914 -7.48598,5.40209 -8.793779,8.61342 12.147413,-5.9561 18.150884,-0.8512 27.922326,5.98259 10.906843,7.627 22.864565,10.98835 35.368896,5.63428 -0.139846,0.5909 -0.295734,1.15517 -0.425296,1.75958 a 4.7288951,4.7288951 0 0 0 0.950328,3.96823 l 6.644039,8.19588 a 4.7288951,4.7288951 0 0 0 3.686081,1.7508 c 9.445441,-0.026 19.080651,0.12108 28.873171,-5.2e-4 a 4.7288951,4.7288951 0 0 0 2.84685,-0.99788 l 6.46421,-5.03535 a 4.7288951,4.7288951 0 0 0 1.6645,-2.51612 c 1.47261,-5.54288 2.69319,-11.03754 3.84679,-16.41088 1.18448,4.46128 3.11335,10.4449 9.16068,14.60479 a 4.7288951,4.7288951 0 0 0 0,5.2e-4 c 3.50388,2.4102 7.63017,4.02514 12.06128,4.02249 4.45619,-0.003 8.25661,-1.64091 11.08097,-3.63544 5.27122,-3.72245 7.92963,-8.53553 9.54258,-10.97762 l 0.13539,-0.20102 c -0.56956,2.44663 -1.13417,4.89629 -1.69034,7.35149 a 4.7288951,4.7288951 0 0 0 0.91726,3.99665 l 6.61044,8.27236 a 4.7288951,4.7288951 0 0 0 3.69539,1.77716 l 15.69774,-0.005 a 4.7288951,4.7288951 0 0 0 0.002,0 c 4.23809,-0.002 7.91619,-0.0606 10.5885,0.29507 a 4.7288951,4.7288951 0 0 0 3.34088,-0.81752 l 7.51531,-5.27719 a 4.7288951,4.7288951 0 0 0 1.90324,-2.86546 c 0.6385,-2.9374 1.5029,-6.15223 2.34094,-9.6728 a 4.7288951,4.7288951 0 0 0 5.2e-4,-5.2e-4 l 20.93109,-84.50301 a 4.7288951,4.7288951 0 0 0 0,-5.2e-4 c 1.50529,-5.940928 2.7279,-11.60876 4.1801,-16.761761 a 4.7288951,4.7288951 0 0 0 0,-5.2e-4 c 0.53171,-1.864086 1.11513,-3.983939 1.5751,-6.316926 a 4.7288951,4.7288951 0 0 0 -0.9865,-3.917593 l -6.64766,-8.08632 a 4.7288951,4.7288951 0 0 0 -3.65249,-1.725476 z m 0,11.503689 h 34.2439 c -0.35793,1.815454 -0.85324,3.643141 -1.36115,5.422924 -1.59203,5.649126 -2.83059,11.425201 -4.27416,17.116784 l -20.93154,84.502329 c -0.79236,3.33715 -1.68763,6.64312 -2.41639,9.99577 -3.99092,-0.53121 -8.0915,-0.39635 -12.11037,-0.39481 l -15.69826,0.005 c 5.2297,-23.08643 11.19044,-46.00746 16.42638,-69.14823 -9.65149,14.00549 -18.97383,28.21458 -28.44735,42.33901 l -7.23057,10.75697 c -3.68058,5.56688 -8.37251,13.11639 -16.57831,7.47189 -4.71298,-3.242 -6.10555,-15.41406 -7.29517,-21.12894 l -6.96081,-32.70343 c -0.3502,-1.68253 -0.627,-3.39574 -1.02991,-5.06532 -3.5182,12.85774 -6.4404,27.52707 -9.35499,40.71947 -1.94945,8.82495 -3.68452,17.77301 -6.00531,26.50846 -9.58164,0.11897 -19.17785,-0.0264 -28.761553,0 1.145106,-5.34193 3.063719,-10.77233 4.400764,-16.12925 l 3.167762,-12.22716 c 0.659966,-2.47395 1.413347,-4.921 2.023137,-7.40781 0.5793,-1.68048 1.00368,-3.43184 1.47381,-5.14697 1.04015,-3.07079 1.75364,-6.34772 2.63033,-9.47953 l 15.89257,-65.768071 c 1.57698,-0.09103 3.15912,-0.01492 4.73821,-0.0072 l 8.33024,0.0083 c 5.71741,0.0019 11.50062,-0.191889 17.20928,0 l 11.35745,52.214381 c 0.66981,2.9094 1.39641,5.80374 1.8464,8.75761 3.73335,-0.81049 4.34174,-3.08826 6.21977,-5.89525 1.73996,-2.60113 19.73003,-29.26947 20.88968,-29.94029 2.26546,-3.898858 5.70687,-8.385755 8.31784,-12.173418 l 6.33967,-9.07128 c 0.11361,-0.181196 0.95651,-1.353762 2.94865,-4.131531 z M 66.450777,151.86691 c 6.943898,4.96105 13.717069,7.48214 22.319049,5.98465 -0.382215,1.36619 -0.721646,2.5963 -1.149801,4.20129 a 4.7288951,4.7288951 0 0 0 -0.0041,0.0165 l -0.0124,0.047 a 4.7288951,4.7288951 0 0 0 -0.0047,0.0171 l -0.559138,2.15853 c -9.312749,1.14357 -19.252794,-2.01432 -20.58891,-12.42507 z" />
  </g>
</svg>
